<svg width="219" height="220" viewBox="0 0 219 220" fill="none" xmlns="http://www.w3.org/2000/svg">
<mask id="path-1-inside-1_1034_20819" fill="white">
<path d="M187.803 40.6877C177.058 28.5285 163.635 19.0318 148.593 12.9468C133.55 6.8617 117.3 4.35464 101.123 5.62329C84.9456 6.89194 69.2846 11.9016 55.3745 20.2572C41.4645 28.6128 29.6859 40.0859 20.9677 53.7715L22.85 54.9706C31.3825 41.5766 42.9101 30.348 56.5238 22.1704C70.1374 13.9928 85.4648 9.0899 101.297 7.84828C117.129 6.60666 133.034 9.06031 147.756 15.0157C162.478 20.9711 175.615 30.2654 186.131 42.1656L187.803 40.6877Z"/>
</mask>
<path d="M187.803 40.6877C177.058 28.5285 163.635 19.0318 148.593 12.9468C133.55 6.8617 117.3 4.35464 101.123 5.62329C84.9456 6.89194 69.2846 11.9016 55.3745 20.2572C41.4645 28.6128 29.6859 40.0859 20.9677 53.7715L22.85 54.9706C31.3825 41.5766 42.9101 30.348 56.5238 22.1704C70.1374 13.9928 85.4648 9.0899 101.297 7.84828C117.129 6.60666 133.034 9.06031 147.756 15.0157C162.478 20.9711 175.615 30.2654 186.131 42.1656L187.803 40.6877Z" stroke="url(#paint0_linear_1034_20819)" stroke-width="6" mask="url(#path-1-inside-1_1034_20819)"/>
<ellipse cx="186.881" cy="40.8715" rx="3.2588" ry="3.2588" transform="rotate(30 186.881 40.8715)" fill="#E1F2FF"/>
<ellipse cx="21.6703" cy="55.1489" rx="3.2588" ry="3.2588" transform="rotate(30 21.6703 55.1489)" fill="#71AAFF"/>
<mask id="path-4-inside-2_1034_20819" fill="white">
<path d="M9.99746 76.7562C5.324 90.6968 3.63776 105.465 5.04844 120.1C6.45913 134.736 10.9351 148.91 18.1852 161.701C25.4354 174.493 35.2972 185.614 47.1291 194.343C58.9611 203.072 72.498 209.211 86.8594 212.363C101.221 215.515 116.085 215.608 130.484 212.636C144.884 209.664 158.497 203.694 170.437 195.114C182.377 186.534 192.377 175.537 199.787 162.837C207.196 150.137 211.849 136.02 213.443 121.403L211.224 121.162C209.664 135.467 205.111 149.283 197.859 161.712C190.607 174.141 180.82 184.904 169.135 193.302C157.449 201.699 144.126 207.542 130.033 210.45C115.941 213.359 101.393 213.268 87.3378 210.183C73.2824 207.099 60.0339 201.09 48.454 192.547C36.8742 184.004 27.2225 173.12 20.1269 160.601C13.0312 148.082 8.65061 134.21 7.26998 119.886C5.88936 105.563 7.53966 91.1092 12.1135 77.4656L9.99746 76.7562Z"/>
</mask>
<path d="M9.99746 76.7562C5.324 90.6968 3.63776 105.465 5.04844 120.1C6.45913 134.736 10.9351 148.91 18.1852 161.701C25.4354 174.493 35.2972 185.614 47.1291 194.343C58.9611 203.072 72.498 209.211 86.8594 212.363C101.221 215.515 116.085 215.608 130.484 212.636C144.884 209.664 158.497 203.694 170.437 195.114C182.377 186.534 192.377 175.537 199.787 162.837C207.196 150.137 211.849 136.02 213.443 121.403L211.224 121.162C209.664 135.467 205.111 149.283 197.859 161.712C190.607 174.141 180.82 184.904 169.135 193.302C157.449 201.699 144.126 207.542 130.033 210.45C115.941 213.359 101.393 213.268 87.3378 210.183C73.2824 207.099 60.0339 201.09 48.454 192.547C36.8742 184.004 27.2225 173.12 20.1269 160.601C13.0312 148.082 8.65061 134.21 7.26998 119.886C5.88936 105.563 7.53966 91.1092 12.1135 77.4656L9.99746 76.7562Z" stroke="url(#paint1_linear_1034_20819)" stroke-width="6" mask="url(#path-4-inside-2_1034_20819)"/>
<ellipse cx="10.6182" cy="77.4619" rx="3.2588" ry="3.2588" transform="rotate(-90 10.6182 77.4619)" fill="#CBE5FF"/>
<ellipse cx="211.927" cy="123.151" rx="3.2588" ry="3.2588" transform="rotate(-90 211.927 123.151)" fill="#7CB1FF"/>
<path d="M109.217 20.8717C158.598 20.8717 198.628 60.9022 198.628 110.283C198.628 159.663 158.598 199.693 109.217 199.693C59.8372 199.693 19.8066 159.663 19.8066 110.283C19.8066 60.9023 59.8372 20.8717 109.217 20.8717ZM109.217 190.752C153.66 190.752 189.687 154.725 189.687 110.283C189.687 65.8403 153.66 29.8127 109.217 29.8127C64.7753 29.8127 28.7477 65.8403 28.7477 110.283C28.7477 154.725 64.7753 190.752 109.217 190.752Z" fill="#5698FF"/>
<path opacity="0.7" d="M24.9272 80.459C29.7591 66.8026 37.8368 54.5246 48.4652 44.6818L54.5404 51.2418C44.9748 60.1004 37.7049 71.1506 33.3562 83.4413L24.9272 80.459Z" fill="white"/>
<path opacity="0.7" d="M191.622 75.5863C197.243 88.9372 199.536 103.454 198.304 117.887L189.396 117.127C190.505 104.137 188.441 91.0717 183.381 79.056L191.622 75.5863Z" fill="white"/>
<path opacity="0.7" d="M45.9945 47.0595C49.6002 43.4538 53.5077 40.1631 57.6744 37.2236L62.8287 44.5295C59.0787 47.1751 55.5619 50.1367 52.3168 53.3818L45.9945 47.0595Z" fill="white"/>
<path opacity="0.7" d="M65.9425 188.285C49.7718 179.321 36.776 165.566 28.7431 148.913C20.7102 132.261 18.035 113.528 21.0854 95.2919L29.9079 96.7677C27.1626 113.18 29.5703 130.039 36.7999 145.027C44.0295 160.015 55.7257 172.394 70.2794 180.461L65.9425 188.285Z" fill="white"/>
<g clip-path="url(#clip0_1034_20819)">
<path d="M125.088 152.062H81.661C76.1906 152.062 71.4723 150.61 68.0206 147.863C64.0821 144.724 62 140.065 62 134.4C62 129.452 63.8683 125.158 67.4071 121.983C70.2333 119.446 74.1165 117.676 78.3558 117.004C78.3637 117.004 78.3677 117.004 78.3717 116.996C79.5671 109.756 82.7931 103.616 87.7054 99.2425C92.4852 95.0027 98.6577 92.6695 105.047 92.6875C110.656 92.6875 115.897 94.4292 120.207 97.7304C123.975 100.655 126.883 104.543 128.623 108.984C134.081 109.879 138.776 112.159 142.204 115.579C146.051 119.426 148.094 124.548 148.094 130.391C148.094 136.486 145.655 142.056 141.23 146.074C136.983 149.937 131.247 152.062 125.088 152.062Z" fill="#5698FF"/>
<path d="M132.787 103.806C135.756 104.559 138.594 105.75 141.218 107.329C142.462 103.67 142.481 99.7053 141.274 96.0338C140.066 92.3623 137.697 89.1832 134.525 86.9761C131.352 84.769 127.547 83.6537 123.685 83.7986C119.823 83.9435 116.112 85.3406 113.114 87.7792C116.996 88.796 120.637 90.5778 123.821 93.02C127.562 95.9172 130.622 99.5991 132.787 103.806Z" fill="#5698FF"/>
<path d="M157 98.625H145.125V104.562H157V98.625Z" fill="#5698FF"/>
<path d="M127.312 68.9375H121.375V80.8125H127.312V68.9375Z" fill="#5698FF"/>
<path d="M109.381 87.0429L111.689 84.7312L103.408 76.4504L99.2123 80.6502L105.364 86.8054H105.474C106.781 86.8054 108.087 86.8846 109.377 87.0429H109.381Z" fill="#5698FF"/>
<path d="M145.283 76.4583L136.999 84.7392L141.194 88.935L149.479 80.6621L145.283 76.4662V76.4583Z" fill="#5698FF"/>
</g>
<defs>
<linearGradient id="paint0_linear_1034_20819" x1="178.619" y1="-16.9631" x2="-19.4864" y2="36.119" gradientUnits="userSpaceOnUse">
<stop stop-color="#E7F6FF"/>
<stop offset="1" stop-color="#5497FF"/>
</linearGradient>
<linearGradient id="paint1_linear_1034_20819" x1="-55.5822" y1="93.291" x2="184.368" y2="300.98" gradientUnits="userSpaceOnUse">
<stop stop-color="#DEF1FF"/>
<stop offset="1" stop-color="#5396FF"/>
</linearGradient>
<clipPath id="clip0_1034_20819">
<rect width="95" height="95" fill="white" transform="translate(62 63)"/>
</clipPath>
</defs>
</svg>
