<svg width="219" height="219" viewBox="0 0 219 219" fill="none" xmlns="http://www.w3.org/2000/svg">
<mask id="path-1-inside-1_1034_20562" fill="white">
<path d="M187.803 40.1877C177.058 28.0285 163.635 18.5318 148.593 12.4468C133.55 6.3617 117.3 3.85464 101.123 5.12329C84.9456 6.39194 69.2846 11.4016 55.3745 19.7572C41.4645 28.1128 29.6859 39.5859 20.9677 53.2715L22.85 54.4706C31.3825 41.0766 42.9101 29.848 56.5238 21.6704C70.1374 13.4928 85.4648 8.5899 101.297 7.34828C117.129 6.10666 133.034 8.56031 147.756 14.5157C162.478 20.4711 175.615 29.7654 186.131 41.6656L187.803 40.1877Z"/>
</mask>
<path d="M187.803 40.1877C177.058 28.0285 163.635 18.5318 148.593 12.4468C133.55 6.3617 117.3 3.85464 101.123 5.12329C84.9456 6.39194 69.2846 11.4016 55.3745 19.7572C41.4645 28.1128 29.6859 39.5859 20.9677 53.2715L22.85 54.4706C31.3825 41.0766 42.9101 29.848 56.5238 21.6704C70.1374 13.4928 85.4648 8.5899 101.297 7.34828C117.129 6.10666 133.034 8.56031 147.756 14.5157C162.478 20.4711 175.615 29.7654 186.131 41.6656L187.803 40.1877Z" stroke="url(#paint0_linear_1034_20562)" stroke-width="6" mask="url(#path-1-inside-1_1034_20562)"/>
<ellipse cx="186.881" cy="40.3715" rx="3.2588" ry="3.2588" transform="rotate(30 186.881 40.3715)" fill="#E1F2FF"/>
<ellipse cx="21.6703" cy="54.6494" rx="3.2588" ry="3.2588" transform="rotate(30 21.6703 54.6494)" fill="#71AAFF"/>
<mask id="path-4-inside-2_1034_20562" fill="white">
<path d="M9.99746 76.2557C5.324 90.1963 3.63776 104.965 5.04844 119.6C6.45913 134.235 10.9351 148.41 18.1852 161.201C25.4354 173.992 35.2972 185.114 47.1291 193.843C58.9611 202.571 72.498 208.711 86.8594 211.863C101.221 215.014 116.085 215.107 130.484 212.135C144.884 209.163 158.497 203.193 170.437 194.613C182.377 186.034 192.377 175.036 199.787 162.336C207.196 149.637 211.849 135.519 213.443 120.903L211.224 120.661C209.664 134.966 205.111 148.783 197.859 161.212C190.607 173.641 180.82 184.404 169.135 192.801C157.449 201.198 144.126 207.041 130.033 209.95C115.941 212.858 101.393 212.767 87.3378 209.683C73.2824 206.598 60.0339 200.589 48.454 192.047C36.8742 183.504 27.2225 172.619 20.1269 160.1C13.0312 147.582 8.65061 133.709 7.26998 119.386C5.88936 105.062 7.53966 90.6087 12.1135 76.9651L9.99746 76.2557Z"/>
</mask>
<path d="M9.99746 76.2557C5.324 90.1963 3.63776 104.965 5.04844 119.6C6.45913 134.235 10.9351 148.41 18.1852 161.201C25.4354 173.992 35.2972 185.114 47.1291 193.843C58.9611 202.571 72.498 208.711 86.8594 211.863C101.221 215.014 116.085 215.107 130.484 212.135C144.884 209.163 158.497 203.193 170.437 194.613C182.377 186.034 192.377 175.036 199.787 162.336C207.196 149.637 211.849 135.519 213.443 120.903L211.224 120.661C209.664 134.966 205.111 148.783 197.859 161.212C190.607 173.641 180.82 184.404 169.135 192.801C157.449 201.198 144.126 207.041 130.033 209.95C115.941 212.858 101.393 212.767 87.3378 209.683C73.2824 206.598 60.0339 200.589 48.454 192.047C36.8742 183.504 27.2225 172.619 20.1269 160.1C13.0312 147.582 8.65061 133.709 7.26998 119.386C5.88936 105.062 7.53966 90.6087 12.1135 76.9651L9.99746 76.2557Z" stroke="url(#paint1_linear_1034_20562)" stroke-width="6" mask="url(#path-4-inside-2_1034_20562)"/>
<ellipse cx="10.6182" cy="76.9619" rx="3.2588" ry="3.2588" transform="rotate(-90 10.6182 76.9619)" fill="#CBE5FF"/>
<ellipse cx="211.927" cy="122.651" rx="3.2588" ry="3.2588" transform="rotate(-90 211.927 122.651)" fill="#7CB1FF"/>
<path d="M109.217 20.3721C158.598 20.3721 198.628 60.4027 198.628 109.783C198.628 159.163 158.598 199.194 109.217 199.194C59.8372 199.194 19.8066 159.163 19.8066 109.783C19.8066 60.4027 59.8372 20.3721 109.217 20.3721ZM109.217 190.253C153.66 190.253 189.687 154.225 189.687 109.783C189.687 65.3408 153.66 29.3132 109.217 29.3132C64.7753 29.3132 28.7477 65.3408 28.7477 109.783C28.7477 154.225 64.7753 190.253 109.217 190.253Z" fill="#5698FF"/>
<path opacity="0.7" d="M24.9272 79.9595C29.7591 66.303 37.8368 54.0251 48.4652 44.1822L54.5404 50.7423C44.9748 59.6009 37.7049 70.651 33.3562 82.9418L24.9272 79.9595Z" fill="white"/>
<path opacity="0.7" d="M191.622 75.0868C197.243 88.4377 199.536 102.954 198.304 117.388L189.396 116.627C190.505 103.637 188.441 90.5722 183.381 78.5564L191.622 75.0868Z" fill="white"/>
<path opacity="0.7" d="M45.9945 46.56C49.6002 42.9543 53.5077 39.6636 57.6744 36.7241L62.8287 44.03C59.0787 46.6756 55.5619 49.6371 52.3168 52.8823L45.9945 46.56Z" fill="white"/>
<path opacity="0.7" d="M65.9425 187.785C49.7718 178.821 36.776 165.067 28.7431 148.414C20.7102 131.761 18.035 113.028 21.0854 94.7924L29.9079 96.2682C27.1626 112.68 29.5703 129.54 36.7999 144.528C44.0295 159.515 55.7257 171.894 70.2794 179.962L65.9425 187.785Z" fill="white"/>
<path d="M145.125 129.292H73.8752V81.7917H145.125V129.292ZM145.125 73.875H73.8752C71.7755 73.875 69.7619 74.7091 68.2772 76.1937C66.7926 77.6784 65.9585 79.692 65.9585 81.7917V129.292C65.9585 131.391 66.7926 133.405 68.2772 134.89C69.7619 136.374 71.7755 137.208 73.8752 137.208H93.6668V145.125H125.333V137.208H145.125C147.225 137.208 149.238 136.374 150.723 134.89C152.208 133.405 153.042 131.391 153.042 129.292V81.7917C153.042 79.692 152.208 77.6784 150.723 76.1937C149.238 74.7091 147.225 73.875 145.125 73.875Z" fill="#5698FF"/>
<defs>
<linearGradient id="paint0_linear_1034_20562" x1="178.619" y1="-17.4631" x2="-19.4864" y2="35.619" gradientUnits="userSpaceOnUse">
<stop stop-color="#E7F6FF"/>
<stop offset="1" stop-color="#5497FF"/>
</linearGradient>
<linearGradient id="paint1_linear_1034_20562" x1="-55.5822" y1="92.7905" x2="184.368" y2="300.48" gradientUnits="userSpaceOnUse">
<stop stop-color="#DEF1FF"/>
<stop offset="1" stop-color="#5396FF"/>
</linearGradient>
</defs>
</svg>
