<svg width="220" height="220" viewBox="0 0 220 220" fill="none" xmlns="http://www.w3.org/2000/svg">
<mask id="path-1-inside-1_1034_20309" fill="white">
<path d="M188.303 40.6877C177.558 28.5285 164.135 19.0318 149.093 12.9468C134.05 6.8617 117.8 4.35464 101.623 5.62329C85.4456 6.89194 69.7846 11.9016 55.8745 20.2572C41.9645 28.6128 30.1859 40.0859 21.4677 53.7715L23.35 54.9706C31.8825 41.5766 43.4101 30.348 57.0238 22.1704C70.6374 13.9928 85.9648 9.0899 101.797 7.84828C117.629 6.60666 133.534 9.06031 148.256 15.0157C162.978 20.9711 176.115 30.2654 186.631 42.1656L188.303 40.6877Z"/>
</mask>
<path d="M188.303 40.6877C177.558 28.5285 164.135 19.0318 149.093 12.9468C134.05 6.8617 117.8 4.35464 101.623 5.62329C85.4456 6.89194 69.7846 11.9016 55.8745 20.2572C41.9645 28.6128 30.1859 40.0859 21.4677 53.7715L23.35 54.9706C31.8825 41.5766 43.4101 30.348 57.0238 22.1704C70.6374 13.9928 85.9648 9.0899 101.797 7.84828C117.629 6.60666 133.534 9.06031 148.256 15.0157C162.978 20.9711 176.115 30.2654 186.631 42.1656L188.303 40.6877Z" stroke="url(#paint0_linear_1034_20309)" stroke-width="6" mask="url(#path-1-inside-1_1034_20309)"/>
<ellipse cx="187.381" cy="40.8715" rx="3.2588" ry="3.2588" transform="rotate(30 187.381 40.8715)" fill="#E1F2FF"/>
<ellipse cx="22.1703" cy="55.1494" rx="3.2588" ry="3.2588" transform="rotate(30 22.1703 55.1494)" fill="#71AAFF"/>
<mask id="path-4-inside-2_1034_20309" fill="white">
<path d="M10.4975 76.7557C5.824 90.6963 4.13776 105.465 5.54844 120.1C6.95913 134.735 11.4351 148.91 18.6852 161.701C25.9354 174.492 35.7972 185.614 47.6291 194.343C59.4611 203.071 72.998 209.211 87.3594 212.363C101.721 215.514 116.585 215.607 130.984 212.635C145.384 209.663 158.997 203.693 170.937 195.113C182.877 186.534 192.877 175.536 200.287 162.836C207.696 150.137 212.349 136.019 213.943 121.403L211.724 121.161C210.164 135.466 205.611 149.283 198.359 161.712C191.107 174.141 181.32 184.904 169.635 193.301C157.949 201.698 144.626 207.541 130.533 210.45C116.441 213.358 101.893 213.267 87.8378 210.183C73.7824 207.098 60.5339 201.089 48.954 192.547C37.3742 184.004 27.7225 173.119 20.6269 160.6C13.5312 148.082 9.15061 134.209 7.76998 119.886C6.38936 105.562 8.03966 91.1087 12.6135 77.4651L10.4975 76.7557Z"/>
</mask>
<path d="M10.4975 76.7557C5.824 90.6963 4.13776 105.465 5.54844 120.1C6.95913 134.735 11.4351 148.91 18.6852 161.701C25.9354 174.492 35.7972 185.614 47.6291 194.343C59.4611 203.071 72.998 209.211 87.3594 212.363C101.721 215.514 116.585 215.607 130.984 212.635C145.384 209.663 158.997 203.693 170.937 195.113C182.877 186.534 192.877 175.536 200.287 162.836C207.696 150.137 212.349 136.019 213.943 121.403L211.724 121.161C210.164 135.466 205.611 149.283 198.359 161.712C191.107 174.141 181.32 184.904 169.635 193.301C157.949 201.698 144.626 207.541 130.533 210.45C116.441 213.358 101.893 213.267 87.8378 210.183C73.7824 207.098 60.5339 201.089 48.954 192.547C37.3742 184.004 27.7225 173.119 20.6269 160.6C13.5312 148.082 9.15061 134.209 7.76998 119.886C6.38936 105.562 8.03966 91.1087 12.6135 77.4651L10.4975 76.7557Z" stroke="url(#paint1_linear_1034_20309)" stroke-width="6" mask="url(#path-4-inside-2_1034_20309)"/>
<ellipse cx="11.1182" cy="77.4619" rx="3.2588" ry="3.2588" transform="rotate(-90 11.1182 77.4619)" fill="#CBE5FF"/>
<ellipse cx="212.427" cy="123.151" rx="3.2588" ry="3.2588" transform="rotate(-90 212.427 123.151)" fill="#7CB1FF"/>
<path d="M109.717 20.8721C159.098 20.8721 199.128 60.9027 199.128 110.283C199.128 159.663 159.098 199.694 109.717 199.694C60.3372 199.694 20.3066 159.663 20.3066 110.283C20.3066 60.9027 60.3372 20.8721 109.717 20.8721ZM109.717 190.753C154.16 190.753 190.187 154.725 190.187 110.283C190.187 65.8408 154.16 29.8132 109.717 29.8132C65.2753 29.8132 29.2477 65.8408 29.2477 110.283C29.2477 154.725 65.2753 190.753 109.717 190.753Z" fill="#5698FF"/>
<path opacity="0.7" d="M25.4272 80.4595C30.2591 66.803 38.3368 54.5251 48.9652 44.6822L55.0404 51.2423C45.4748 60.1009 38.2049 71.151 33.8562 83.4418L25.4272 80.4595Z" fill="white"/>
<path opacity="0.7" d="M192.122 75.5868C197.743 88.9377 200.036 103.454 198.804 117.888L189.896 117.127C191.005 104.137 188.941 91.0722 183.881 79.0564L192.122 75.5868Z" fill="white"/>
<path opacity="0.7" d="M46.4945 47.06C50.1002 43.4543 54.0077 40.1636 58.1744 37.2241L63.3287 44.53C59.5787 47.1756 56.0619 50.1371 52.8168 53.3823L46.4945 47.06Z" fill="white"/>
<path opacity="0.7" d="M66.4425 188.285C50.2718 179.321 37.276 165.567 29.2431 148.914C21.2102 132.261 18.535 113.528 21.5854 95.2924L30.4079 96.7682C27.6626 113.18 30.0703 130.04 37.2999 145.028C44.5295 160.015 56.2257 172.394 70.7794 180.462L66.4425 188.285Z" fill="white"/>
<path d="M151.749 154.694H139.969V101.665H81.05V154.694H69.27V89.8849L110.5 66.3059L151.749 89.8659V154.694Z" fill="#5698FF"/>
<path d="M86.9399 107.555H134.06V119.335H86.9399V107.555Z" fill="#5698FF"/>
<path d="M86.9399 125.225H134.06V137.005H86.9399V125.225Z" fill="#5698FF"/>
<path d="M134.079 142.895H86.9399V154.675H134.079V142.895Z" fill="#5698FF"/>
<defs>
<linearGradient id="paint0_linear_1034_20309" x1="179.119" y1="-16.9631" x2="-18.9864" y2="36.119" gradientUnits="userSpaceOnUse">
<stop stop-color="#E7F6FF"/>
<stop offset="1" stop-color="#5497FF"/>
</linearGradient>
<linearGradient id="paint1_linear_1034_20309" x1="-55.0822" y1="93.2905" x2="184.868" y2="300.98" gradientUnits="userSpaceOnUse">
<stop stop-color="#DEF1FF"/>
<stop offset="1" stop-color="#5396FF"/>
</linearGradient>
</defs>
</svg>
