<svg width="50" height="50" viewBox="0 0 50 50" fill="none" xmlns="http://www.w3.org/2000/svg">
<path d="M37.9172 43.8843C37.4205 43.8833 36.9353 43.7343 36.5236 43.4564C36.112 43.1785 35.7924 42.7843 35.6057 42.324C35.419 41.8637 35.3737 41.3582 35.4755 40.8721C35.5772 40.3859 35.8215 39.9411 36.1772 39.5943C38.4664 37.3786 40.0714 34.5522 40.8015 31.451C41.5316 28.3499 41.3561 25.1043 40.2958 22.1C39.2355 19.0957 37.335 16.4589 34.8202 14.5029C32.3054 12.547 29.2819 11.3541 26.109 11.066C22.9362 10.7779 19.7473 11.4067 16.9213 12.8777C14.0953 14.3487 11.751 16.6001 10.1669 19.3643C8.58283 22.1285 7.82561 25.2894 7.98519 28.4713C8.14478 31.6532 9.21447 34.7225 11.0672 37.3143C11.5473 37.9878 12.0788 38.623 12.6572 39.2143C13.1186 39.6917 13.3716 40.3329 13.3603 40.9968C13.3491 41.6606 13.0745 42.2929 12.5972 42.7543C12.1198 43.2158 11.4786 43.4687 10.8147 43.4575C10.1509 43.4462 9.51864 43.1717 9.05716 42.6943C8.31141 41.9221 7.62292 41.0966 6.99716 40.2243C4.00725 36.0002 2.62153 30.8484 3.08892 25.6943C3.5563 20.5402 5.84616 15.7217 9.54716 12.1043C11.5872 10.1254 13.9973 8.56795 16.6397 7.52098C19.282 6.47402 22.1048 5.95808 24.9466 6.00266C27.7885 6.04724 30.5937 6.65146 33.2019 7.78078C35.8101 8.91011 38.1701 10.5424 40.1472 12.5843C44.1327 16.7109 46.3192 22.2494 46.2273 27.9856C46.1355 33.7218 43.7727 39.1875 39.6572 43.1843C39.1906 43.6355 38.5662 43.8867 37.9172 43.8843ZM33.1372 38.9543C32.6388 38.9573 32.1508 38.8112 31.7361 38.5348C31.3213 38.2584 30.9986 37.8644 30.8094 37.4033C30.6203 36.9421 30.5732 36.435 30.6744 35.947C30.7756 35.4589 31.0203 35.0123 31.3772 34.6643C32.724 33.3616 33.6682 31.6993 34.0975 29.8754C34.5267 28.0514 34.423 26.1425 33.7986 24.3758C33.1742 22.6091 32.0554 21.059 30.5753 19.9098C29.0952 18.7607 27.3162 18.0609 25.4499 17.8938C23.5836 17.7267 21.7085 18.0992 20.0478 18.9671C18.3871 19.835 17.0107 21.1616 16.0823 22.7893C15.1539 24.4169 14.7127 26.277 14.811 28.1482C14.9094 30.0194 15.5432 31.823 16.6372 33.3443C16.9103 33.7378 17.2182 34.1059 17.5572 34.4443C18.0186 34.9217 18.2716 35.5629 18.2603 36.2268C18.2491 36.8906 17.9745 37.5229 17.4972 37.9843C17.0198 38.4458 16.3786 38.6987 15.7147 38.6875C15.0509 38.6762 14.4186 38.4017 13.9572 37.9243C13.4594 37.407 12.9983 36.8557 12.5772 36.2743C10.5314 33.3785 9.58838 29.8467 9.91847 26.3166C10.2486 22.7864 11.83 19.4906 14.3772 17.0243C15.7709 15.6746 17.417 14.6127 19.2212 13.8992C21.0255 13.1858 22.9527 12.8349 24.8926 12.8665C26.8325 12.898 28.7473 13.3115 30.5274 14.0833C32.3075 14.855 33.9181 15.9699 35.2672 17.3643C36.6169 18.7581 37.6788 20.4041 38.3922 22.2084C39.1057 24.0127 39.4566 25.9398 39.425 27.8798C39.3935 29.8197 38.98 31.7344 38.2082 33.5145C37.4365 35.2946 36.3215 36.9052 34.9272 38.2543C34.6907 38.4847 34.4105 38.6653 34.103 38.7856C33.7956 38.9058 33.4672 38.9632 33.1372 38.9543ZM19.9272 32.1743C19.0323 31.2489 18.4319 30.079 18.2019 28.8125C17.9718 27.5459 18.1224 26.2396 18.6347 25.0586C19.1469 23.8776 19.9977 22.875 21.0796 22.1775C22.1616 21.48 23.426 21.1189 24.7131 21.1399C26.0002 21.1608 27.2522 21.5629 28.3108 22.2953C29.3695 23.0277 30.1872 24.0574 30.6607 25.2545C31.1342 26.4515 31.2422 27.762 30.971 29.0204C30.6998 30.2788 30.0616 31.4286 29.1372 32.3243C28.5228 32.9196 27.7971 33.388 27.0016 33.7026C26.2061 34.0173 25.3564 34.1721 24.5011 34.1582C23.6457 34.1442 22.8015 33.9618 22.0167 33.6214C21.2319 33.281 20.5218 32.7893 19.9272 32.1743ZM24.6072 34.2743C22.892 34.2077 21.2693 33.4795 20.0794 32.2425C18.8895 31.0055 18.2248 29.3558 18.2248 27.6393C18.2248 25.9229 18.8895 24.2731 20.0794 23.0361C21.2693 21.7991 22.892 21.0709 24.6072 21.0043H24.7172C25.5877 21.0123 26.4479 21.1933 27.2479 21.5366C28.0479 21.8799 28.7717 22.3789 29.3772 23.0043C30.2855 23.9393 30.8981 25.1213 31.1383 26.4025C31.3786 27.6837 31.2358 29.0073 30.7278 30.2078C30.2199 31.4083 29.3693 32.4325 28.2825 33.1522C27.1956 33.8719 25.9207 34.2553 24.6172 34.2543L24.6072 34.2743ZM24.6072 21.2743C23.354 21.2774 22.1294 21.6488 21.0857 22.3424C20.0421 23.036 19.2254 24.0212 18.7373 25.1754C18.2492 26.3296 18.1112 27.6018 18.3406 28.8338C18.5699 30.0658 19.1564 31.2031 20.0272 32.1043C20.7578 32.8604 21.6638 33.4244 22.6647 33.7465C23.6656 34.0685 24.7305 34.1386 25.7649 33.9506C26.7994 33.7625 27.7715 33.3221 28.595 32.6684C29.4184 32.0146 30.0679 31.1678 30.4857 30.203C30.9036 29.2381 31.0769 28.1851 30.9902 27.1372C30.9036 26.0894 30.5598 25.0791 29.9892 24.196C29.4186 23.3128 28.639 22.5841 27.7193 22.0745C26.7997 21.5648 25.7685 21.29 24.7172 21.2743H24.6072Z" fill="#5698FF"/>
</svg>
