<svg width="50" height="50" viewBox="0 0 50 50" fill="none" xmlns="http://www.w3.org/2000/svg">
<path d="M39.3467 44.435C38.8297 44.4339 38.3247 44.2788 37.8961 43.9895C37.4676 43.7002 37.135 43.2899 36.9406 42.8107C36.7463 42.3316 36.6991 41.8055 36.805 41.2994C36.911 40.7933 37.1653 40.3303 37.5355 39.9694C39.9184 37.6629 41.5891 34.7209 42.3491 31.4928C43.1091 28.2647 42.9264 24.8863 41.8227 21.759C40.719 18.6317 38.7408 15.887 36.123 13.851C33.5052 11.8149 30.3579 10.5732 27.0551 10.2733C23.7524 9.97343 20.4329 10.628 17.4912 12.1592C14.5495 13.6904 12.1092 16.0339 10.4603 18.9113C8.8114 21.7887 8.02317 25.0789 8.18929 28.3911C8.35541 31.7032 9.46889 34.8981 11.3974 37.596C11.8972 38.2971 12.4505 38.9583 13.0525 39.5738C13.5329 40.0707 13.7962 40.7381 13.7845 41.4292C13.7728 42.1202 13.487 42.7783 12.9901 43.2587C12.4931 43.7391 11.8257 44.0024 11.1347 43.9906C10.4436 43.9789 9.78552 43.6932 9.30515 43.1963C8.52887 42.3924 7.81219 41.5331 7.16081 40.6252C4.04849 36.2281 2.60604 30.8654 3.09256 25.5004C3.57908 20.1354 5.96269 15.1196 9.81521 11.3542C11.9388 9.29426 14.4476 7.67305 17.1981 6.58324C19.9486 5.49342 22.887 4.95637 25.8452 5.00277C28.8033 5.04917 31.7234 5.67812 34.4384 6.85367C37.1534 8.02922 39.6101 9.72831 41.668 11.8538C45.8167 16.1493 48.0927 21.9145 47.9971 27.8855C47.9015 33.8565 45.442 39.5459 41.1579 43.7063C40.6722 44.176 40.0223 44.4374 39.3467 44.435V44.435ZM34.371 39.3032C33.8522 39.3062 33.3443 39.1542 32.9126 38.8665C32.4808 38.5788 32.1449 38.1686 31.948 37.6886C31.7511 37.2086 31.7021 36.6807 31.8074 36.1727C31.9127 35.6647 32.1675 35.1998 32.5389 34.8376C33.9409 33.4815 34.9238 31.7512 35.3706 29.8526C35.8175 27.954 35.7095 25.967 35.0595 24.1279C34.4095 22.2889 33.2449 20.6754 31.7043 19.4792C30.1636 18.283 28.3117 17.5546 26.369 17.3806C24.4263 17.2067 22.4745 17.5944 20.7458 18.4978C19.0171 19.4012 17.5843 20.7822 16.6179 22.4765C15.6515 24.1707 15.1922 26.107 15.2946 28.0548C15.397 30.0026 16.0568 31.8799 17.1955 33.4636C17.4798 33.8731 17.8003 34.2563 18.1531 34.6086C18.6335 35.1055 18.8968 35.7729 18.8851 36.464C18.8734 37.155 18.5876 37.8131 18.0907 38.2935C17.5938 38.7738 16.9263 39.0371 16.2353 39.0254C15.5442 39.0137 14.8861 38.7279 14.4058 38.231C13.8876 37.6925 13.4076 37.1186 12.9693 36.5135C10.8397 33.4992 9.85811 29.8228 10.2017 26.1481C10.5453 22.4735 12.1915 19.0428 14.843 16.4756C16.2938 15.0706 18.0072 13.9652 19.8853 13.2226C21.7635 12.4799 23.7695 12.1146 25.7889 12.1475C27.8083 12.1804 29.8014 12.6108 31.6544 13.4141C33.5073 14.2175 35.1839 15.378 36.5882 16.8295C37.9932 18.2803 39.0986 19.9937 39.8412 21.8718C40.5839 23.7499 40.9492 25.756 40.9163 27.7753C40.8835 29.7947 40.453 31.7878 39.6497 33.6407C38.8463 35.4937 37.6858 37.1702 36.2343 38.5745C35.9882 38.8143 35.6965 39.0024 35.3764 39.1275C35.0564 39.2527 34.7145 39.3124 34.371 39.3032V39.3032ZM20.6202 32.2457C19.6887 31.2824 19.0637 30.0646 18.8243 28.7462C18.5848 27.4278 18.7416 26.068 19.2748 24.8387C19.8079 23.6094 20.6936 22.5657 21.8198 21.8397C22.9461 21.1136 24.2623 20.7377 25.6021 20.7596C26.9418 20.7814 28.2451 21.1999 29.3471 21.9623C30.4491 22.7246 31.3003 23.7966 31.7932 25.0426C32.286 26.2886 32.3984 27.6528 32.1162 28.9627C31.8339 30.2726 31.1696 31.4694 30.2072 32.4018C29.5677 33.0215 28.8123 33.509 27.9843 33.8365C27.1562 34.1641 26.2717 34.3252 25.3813 34.3107C24.491 34.2962 23.6122 34.1063 22.7952 33.752C21.9783 33.3977 21.2392 32.8858 20.6202 32.2457V32.2457ZM25.4918 34.4316C23.7064 34.3623 22.0173 33.6043 20.7786 32.3167C19.54 31.029 18.8481 29.3117 18.8481 27.525C18.8481 25.7384 19.54 24.0211 20.7786 22.7334C22.0173 21.4458 23.7064 20.6878 25.4918 20.6185H25.6063C26.5124 20.6268 27.4079 20.8151 28.2406 21.1725C29.0734 21.5299 29.8268 22.0493 30.4571 22.7003C31.4026 23.6735 32.0403 24.9039 32.2904 26.2376C32.5404 27.5712 32.3918 28.949 31.863 30.1987C31.3343 31.4483 30.4489 32.5144 29.3176 33.2635C28.1862 34.0127 26.8591 34.4118 25.5022 34.4108L25.4918 34.4316ZM25.4918 20.8995C24.1873 20.9027 22.9126 21.2893 21.8262 22.0113C20.7398 22.7333 19.8897 23.7588 19.3816 24.9603C18.8735 26.1617 18.7299 27.486 18.9686 28.7684C19.2073 30.0508 19.8179 31.2347 20.7243 32.1728V32.1728C21.4849 32.9598 22.4279 33.5469 23.4698 33.8822C24.5116 34.2174 25.6201 34.2904 26.6969 34.0946C27.7738 33.8988 28.7856 33.4404 29.6428 32.7599C30.5 32.0794 31.1761 31.1979 31.611 30.1936C32.046 29.1893 32.2264 28.0931 32.1362 27.0024C32.046 25.9117 31.6881 24.86 31.0942 23.9407C30.5003 23.0214 29.6886 22.2629 28.7313 21.7324C27.774 21.2019 26.7006 20.9158 25.6063 20.8995H25.4918Z" fill="#5698FF"/>
</svg>
