<svg width="50" height="50" viewBox="0 0 50 50" fill="none" xmlns="http://www.w3.org/2000/svg">
<path d="M31.1491 29.8328V9.05577C31.1491 7.44969 30.5111 5.90939 29.3754 4.77371C28.2397 3.63804 26.6993 3.00003 25.0932 3.00003C23.4871 3.00003 21.9467 3.63804 20.811 4.77371C19.6753 5.90939 19.0373 7.44969 19.0373 9.05577V29.8328C17.3426 31.1038 16.0907 32.8758 15.4591 34.8977C14.8275 36.9197 14.8481 39.0891 15.518 41.0988C16.1878 43.1084 17.4731 44.8563 19.1916 46.0949C20.9101 47.3335 22.9748 48 25.0932 48C27.2116 48 29.2763 47.3335 30.9948 46.0949C32.7133 44.8563 33.9986 43.1084 34.6685 41.0988C35.3383 39.0891 35.3589 36.9197 34.7273 34.8977C34.0957 32.8758 32.8438 31.1038 31.1491 29.8328ZM25.0932 7.03719C25.6286 7.03719 26.142 7.24986 26.5206 7.62842C26.8992 8.00698 27.1118 8.52041 27.1118 9.05577V19.7399H23.0746V9.05577C23.0746 8.52041 23.2872 8.00698 23.6658 7.62842C24.0444 7.24986 24.5578 7.03719 25.0932 7.03719Z" fill="#5698FF"/>
</svg>
