<svg width="45" height="46" viewBox="0 0 45 46" fill="none" xmlns="http://www.w3.org/2000/svg">
<path d="M28.125 27.2992V8.00003C28.125 6.50818 27.5324 5.07744 26.4775 4.02255C25.4226 2.96766 23.9918 2.37503 22.5 2.37503C21.0082 2.37503 19.5774 2.96766 18.5225 4.02255C17.4676 5.07744 16.875 6.50818 16.875 8.00003V27.2992C15.3009 28.4798 14.1381 30.1257 13.5514 32.0039C12.9647 33.882 12.9839 35.8971 13.6061 37.7638C14.2283 39.6305 15.4221 41.2541 17.0183 42.4046C18.6146 43.5551 20.5324 44.1742 22.5 44.1742C24.4676 44.1742 26.3854 43.5551 27.9817 42.4046C29.5779 41.2541 30.7717 39.6305 31.3939 37.7638C32.0161 35.8971 32.0353 33.882 31.4486 32.0039C30.8619 30.1257 29.6991 28.4798 28.125 27.2992ZM22.5 6.12503C22.9973 6.12503 23.4742 6.32257 23.8258 6.6742C24.1775 7.02583 24.375 7.50275 24.375 8.00003V17.9242H20.625V8.00003C20.625 7.50275 20.8225 7.02583 21.1742 6.6742C21.5258 6.32257 22.0027 6.12503 22.5 6.12503Z" fill="#5698FF"/>
</svg>
