<svg width="219" height="219" viewBox="0 0 219 219" fill="none" xmlns="http://www.w3.org/2000/svg">
<mask id="path-1-inside-1_1034_20688" fill="white">
<path d="M187.803 40.1877C177.058 28.0285 163.635 18.5318 148.593 12.4468C133.55 6.3617 117.3 3.85464 101.123 5.12329C84.9456 6.39194 69.2846 11.4016 55.3745 19.7572C41.4645 28.1128 29.6859 39.5859 20.9677 53.2715L22.85 54.4706C31.3825 41.0766 42.9101 29.848 56.5238 21.6704C70.1374 13.4928 85.4648 8.5899 101.297 7.34828C117.129 6.10666 133.034 8.56031 147.756 14.5157C162.478 20.4711 175.615 29.7654 186.131 41.6656L187.803 40.1877Z"/>
</mask>
<path d="M187.803 40.1877C177.058 28.0285 163.635 18.5318 148.593 12.4468C133.55 6.3617 117.3 3.85464 101.123 5.12329C84.9456 6.39194 69.2846 11.4016 55.3745 19.7572C41.4645 28.1128 29.6859 39.5859 20.9677 53.2715L22.85 54.4706C31.3825 41.0766 42.9101 29.848 56.5238 21.6704C70.1374 13.4928 85.4648 8.5899 101.297 7.34828C117.129 6.10666 133.034 8.56031 147.756 14.5157C162.478 20.4711 175.615 29.7654 186.131 41.6656L187.803 40.1877Z" stroke="url(#paint0_linear_1034_20688)" stroke-width="6" mask="url(#path-1-inside-1_1034_20688)"/>
<ellipse cx="186.881" cy="40.3715" rx="3.2588" ry="3.2588" transform="rotate(30 186.881 40.3715)" fill="#E1F2FF"/>
<ellipse cx="21.6703" cy="54.6494" rx="3.2588" ry="3.2588" transform="rotate(30 21.6703 54.6494)" fill="#71AAFF"/>
<mask id="path-4-inside-2_1034_20688" fill="white">
<path d="M9.99746 76.2557C5.324 90.1963 3.63776 104.965 5.04844 119.6C6.45913 134.235 10.9351 148.41 18.1852 161.201C25.4354 173.992 35.2972 185.114 47.1291 193.843C58.9611 202.571 72.498 208.711 86.8594 211.863C101.221 215.014 116.085 215.107 130.484 212.135C144.884 209.163 158.497 203.193 170.437 194.613C182.377 186.034 192.377 175.036 199.787 162.336C207.196 149.637 211.849 135.519 213.443 120.903L211.224 120.661C209.664 134.966 205.111 148.783 197.859 161.212C190.607 173.641 180.82 184.404 169.135 192.801C157.449 201.198 144.126 207.041 130.033 209.95C115.941 212.858 101.393 212.767 87.3378 209.683C73.2824 206.598 60.0339 200.589 48.454 192.047C36.8742 183.504 27.2225 172.619 20.1269 160.1C13.0312 147.582 8.65061 133.709 7.26998 119.386C5.88936 105.062 7.53966 90.6087 12.1135 76.9651L9.99746 76.2557Z"/>
</mask>
<path d="M9.99746 76.2557C5.324 90.1963 3.63776 104.965 5.04844 119.6C6.45913 134.235 10.9351 148.41 18.1852 161.201C25.4354 173.992 35.2972 185.114 47.1291 193.843C58.9611 202.571 72.498 208.711 86.8594 211.863C101.221 215.014 116.085 215.107 130.484 212.135C144.884 209.163 158.497 203.193 170.437 194.613C182.377 186.034 192.377 175.036 199.787 162.336C207.196 149.637 211.849 135.519 213.443 120.903L211.224 120.661C209.664 134.966 205.111 148.783 197.859 161.212C190.607 173.641 180.82 184.404 169.135 192.801C157.449 201.198 144.126 207.041 130.033 209.95C115.941 212.858 101.393 212.767 87.3378 209.683C73.2824 206.598 60.0339 200.589 48.454 192.047C36.8742 183.504 27.2225 172.619 20.1269 160.1C13.0312 147.582 8.65061 133.709 7.26998 119.386C5.88936 105.062 7.53966 90.6087 12.1135 76.9651L9.99746 76.2557Z" stroke="url(#paint1_linear_1034_20688)" stroke-width="6" mask="url(#path-4-inside-2_1034_20688)"/>
<ellipse cx="10.6182" cy="76.9619" rx="3.2588" ry="3.2588" transform="rotate(-90 10.6182 76.9619)" fill="#CBE5FF"/>
<ellipse cx="211.927" cy="122.651" rx="3.2588" ry="3.2588" transform="rotate(-90 211.927 122.651)" fill="#7CB1FF"/>
<path d="M109.217 20.3721C158.598 20.3721 198.628 60.4027 198.628 109.783C198.628 159.163 158.598 199.194 109.217 199.194C59.8372 199.194 19.8066 159.163 19.8066 109.783C19.8066 60.4027 59.8372 20.3721 109.217 20.3721ZM109.217 190.253C153.66 190.253 189.687 154.225 189.687 109.783C189.687 65.3408 153.66 29.3132 109.217 29.3132C64.7753 29.3132 28.7477 65.3408 28.7477 109.783C28.7477 154.225 64.7753 190.253 109.217 190.253Z" fill="#5698FF"/>
<path opacity="0.7" d="M24.9272 79.9595C29.7591 66.303 37.8368 54.0251 48.4652 44.1822L54.5404 50.7423C44.9748 59.6009 37.7049 70.651 33.3562 82.9418L24.9272 79.9595Z" fill="white"/>
<path opacity="0.7" d="M191.622 75.0868C197.243 88.4377 199.536 102.954 198.304 117.388L189.396 116.627C190.505 103.637 188.441 90.5722 183.381 78.5564L191.622 75.0868Z" fill="white"/>
<path opacity="0.7" d="M45.9945 46.56C49.6002 42.9543 53.5077 39.6636 57.6744 36.7241L62.8287 44.03C59.0787 46.6756 55.5619 49.6371 52.3168 52.8823L45.9945 46.56Z" fill="white"/>
<path opacity="0.7" d="M65.9425 187.785C49.7718 178.821 36.776 165.067 28.7431 148.414C20.7102 131.761 18.035 113.028 21.0854 94.7924L29.9079 96.2682C27.1626 112.68 29.5703 129.54 36.7999 144.528C44.0295 159.515 55.7257 171.894 70.2794 179.962L65.9425 187.785Z" fill="white"/>
<path d="M134.043 145.38C133.099 145.378 132.177 145.095 131.395 144.567C130.613 144.039 130.006 143.29 129.651 142.415C129.296 141.541 129.21 140.581 129.404 139.657C129.597 138.733 130.061 137.888 130.737 137.229C135.086 133.019 138.136 127.649 139.523 121.757C140.91 115.865 140.577 109.698 138.562 103.99C136.548 98.2817 132.937 93.2718 128.159 89.5555C123.38 85.8391 117.636 83.5726 111.607 83.0252C105.579 82.4779 99.52 83.6726 94.1506 86.4675C88.7812 89.2624 84.327 93.54 81.3173 98.7921C78.3076 104.044 76.8688 110.05 77.1721 116.095C77.4753 122.141 79.5077 127.973 83.0278 132.897C83.94 134.177 84.95 135.384 86.0488 136.507C86.9256 137.414 87.4062 138.632 87.3848 139.894C87.3634 141.155 86.8418 142.356 85.9348 143.233C85.0278 144.11 83.8096 144.59 82.5482 144.569C81.2868 144.548 80.0856 144.026 79.2088 143.119C77.7919 141.652 76.4837 140.083 75.2948 138.426C69.614 130.4 66.9811 120.612 67.8691 110.819C68.7572 101.026 73.1079 91.8712 80.1398 84.9981C84.016 81.2382 88.5951 78.279 93.6156 76.2898C98.636 74.3005 103.999 73.3203 109.399 73.405C114.798 73.4897 120.128 74.6377 125.084 76.7834C130.039 78.9291 134.523 82.0304 138.28 85.9101C145.852 93.7505 150.007 104.274 149.832 115.173C149.658 126.071 145.168 136.456 137.349 144.05C136.462 144.907 135.276 145.385 134.043 145.38ZM124.961 136.013C124.014 136.019 123.087 135.741 122.299 135.216C121.511 134.691 120.898 133.942 120.538 133.066C120.179 132.19 120.089 131.226 120.282 130.299C120.474 129.372 120.939 128.523 121.617 127.862C124.176 125.387 125.97 122.229 126.785 118.763C127.601 115.298 127.404 111.671 126.217 108.314C125.031 104.957 122.905 102.012 120.093 99.8286C117.281 97.6452 113.901 96.3157 110.355 95.9981C106.809 95.6806 103.246 96.3884 100.091 98.0374C96.9357 99.6863 94.3205 102.207 92.5566 105.3C90.7927 108.392 89.9543 111.926 90.1412 115.482C90.3281 119.037 91.5324 122.464 93.6108 125.354C94.1297 126.102 94.7147 126.801 95.3588 127.444C96.2356 128.351 96.7162 129.569 96.6948 130.831C96.6734 132.092 96.1518 133.293 95.2448 134.17C94.3378 135.047 93.1196 135.528 91.8582 135.506C90.5968 135.485 89.3956 134.963 88.5188 134.056C87.5731 133.073 86.6969 132.026 85.8968 130.921C82.0098 125.419 80.2181 118.709 80.8453 112.001C81.4725 105.294 84.4771 99.0321 89.3168 94.3461C91.9649 91.7816 95.0924 89.764 98.5205 88.4085C101.949 87.053 105.61 86.3862 109.296 86.4462C112.982 86.5061 116.62 87.2918 120.002 88.7581C123.384 90.2244 126.445 92.3428 129.008 94.9921C131.572 97.6403 133.59 100.768 134.945 104.196C136.301 107.624 136.968 111.286 136.908 114.971C136.848 118.657 136.062 122.295 134.596 125.677C133.129 129.06 131.011 132.12 128.362 134.683C127.913 135.121 127.38 135.464 126.796 135.693C126.212 135.921 125.588 136.03 124.961 136.013ZM99.8618 123.131C98.1616 121.373 97.0209 119.15 96.5838 116.744C96.1467 114.337 96.4328 111.855 97.406 109.611C98.3793 107.367 99.9959 105.462 102.052 104.137C104.107 102.812 106.51 102.126 108.955 102.166C111.401 102.206 113.779 102.969 115.791 104.361C117.802 105.752 119.356 107.709 120.256 109.983C121.155 112.258 121.36 114.748 120.845 117.139C120.33 119.53 119.117 121.714 117.361 123.416C116.193 124.547 114.815 125.437 113.303 126.035C111.792 126.633 110.177 126.927 108.552 126.9C106.927 126.874 105.323 126.527 103.832 125.881C102.341 125.234 100.992 124.3 99.8618 123.131ZM108.754 127.121C105.495 126.995 102.412 125.611 100.151 123.261C97.8902 120.91 96.6273 117.776 96.6273 114.515C96.6273 111.253 97.8902 108.119 100.151 105.769C102.412 103.418 105.495 102.035 108.754 101.908H108.963C110.617 101.923 112.251 102.267 113.771 102.919C115.291 103.572 116.666 104.52 117.817 105.708C119.543 107.485 120.707 109.73 121.163 112.165C121.619 114.599 121.348 117.114 120.383 119.395C119.418 121.676 117.802 123.622 115.737 124.989C113.672 126.357 111.25 127.085 108.773 127.083L108.754 127.121ZM108.754 102.421C106.373 102.427 104.046 103.133 102.063 104.45C100.08 105.768 98.5284 107.64 97.601 109.833C96.6736 112.026 96.4115 114.443 96.8472 116.784C97.283 119.125 98.3974 121.286 100.052 122.998C101.44 124.435 103.161 125.506 105.063 126.118C106.965 126.73 108.988 126.863 110.954 126.506C112.919 126.149 114.766 125.312 116.331 124.07C117.895 122.828 119.129 121.219 119.923 119.386C120.717 117.552 121.046 115.552 120.882 113.561C120.717 111.57 120.064 109.65 118.98 107.972C117.896 106.294 116.414 104.91 114.667 103.941C112.92 102.973 110.96 102.451 108.963 102.421H108.754Z" fill="#5698FF"/>
<defs>
<linearGradient id="paint0_linear_1034_20688" x1="178.619" y1="-17.4631" x2="-19.4864" y2="35.619" gradientUnits="userSpaceOnUse">
<stop stop-color="#E7F6FF"/>
<stop offset="1" stop-color="#5497FF"/>
</linearGradient>
<linearGradient id="paint1_linear_1034_20688" x1="-55.5822" y1="92.7905" x2="184.368" y2="300.48" gradientUnits="userSpaceOnUse">
<stop stop-color="#DEF1FF"/>
<stop offset="1" stop-color="#5396FF"/>
</linearGradient>
</defs>
</svg>
