<svg width="646" height="645" viewBox="0 0 646 645" fill="none" xmlns="http://www.w3.org/2000/svg">
<mask id="path-1-inside-1_1004_21894" fill="white">
<path d="M553.975 118.361C522.28 82.5497 482.684 54.5801 438.313 36.6583C393.941 18.7366 346.005 11.3528 298.287 15.0892C250.568 18.8257 204.372 33.5802 163.34 58.1891C122.309 82.7981 87.5647 116.589 61.8479 156.896L67.4004 160.427C92.5693 120.979 126.573 87.9086 166.73 63.8239C206.887 39.7393 252.1 25.2991 298.801 21.6423C345.503 17.9855 392.417 25.212 435.844 42.7518C479.27 60.2917 518.022 87.6654 549.042 122.714L553.975 118.361Z"/>
</mask>
<path d="M553.975 118.361C522.28 82.5497 482.684 54.5801 438.313 36.6583C393.941 18.7366 346.005 11.3528 298.287 15.0892C250.568 18.8257 204.372 33.5802 163.34 58.1891C122.309 82.7981 87.5647 116.589 61.8479 156.896L67.4004 160.427C92.5693 120.979 126.573 87.9086 166.73 63.8239C206.887 39.7393 252.1 25.2991 298.801 21.6423C345.503 17.9855 392.417 25.212 435.844 42.7518C479.27 60.2917 518.022 87.6654 549.042 122.714L553.975 118.361Z" fill="url(#paint0_linear_1004_21894)" stroke="url(#paint1_linear_1004_21894)" stroke-width="6" mask="url(#path-1-inside-1_1004_21894)"/>
<ellipse cx="9.60901" cy="9.60157" rx="9.60901" ry="9.60157" transform="matrix(0.86636 0.499419 -0.500581 0.86569 547.739 105.791)" fill="#E1F2FF"/>
<ellipse cx="9.60901" cy="9.60157" rx="9.60901" ry="9.60157" transform="matrix(0.86636 0.499419 -0.500581 0.86569 60.4033 147.843)" fill="#71AAFF"/>
<mask id="path-4-inside-2_1004_21894" fill="white">
<path d="M29.4925 224.589C15.7069 265.647 10.7329 309.143 14.8941 352.247C19.0553 395.351 32.2584 437.097 53.6446 474.77C75.0308 512.444 104.121 545.199 139.022 570.907C173.924 596.614 213.855 614.697 256.218 623.979C298.581 633.262 342.426 633.535 384.902 624.783C427.377 616.03 467.532 598.447 502.752 573.177C537.973 547.908 567.471 515.518 589.328 478.115C611.184 440.712 624.909 399.133 629.61 356.085L623.065 355.372C618.464 397.504 605.032 438.196 583.641 474.802C562.251 511.408 533.381 543.108 498.911 567.839C464.44 592.57 425.142 609.779 383.571 618.345C342 626.911 299.089 626.643 257.629 617.559C216.169 608.474 177.089 590.777 142.931 565.617C108.773 540.457 80.3025 508.4 59.372 471.529C38.4415 434.659 25.5196 393.802 21.4471 351.616C17.3746 309.431 22.2426 266.862 35.7345 226.679L29.4925 224.589Z"/>
</mask>
<path d="M29.4925 224.589C15.7069 265.647 10.7329 309.143 14.8941 352.247C19.0553 395.351 32.2584 437.097 53.6446 474.77C75.0308 512.444 104.121 545.199 139.022 570.907C173.924 596.614 213.855 614.697 256.218 623.979C298.581 633.262 342.426 633.535 384.902 624.783C427.377 616.03 467.532 598.447 502.752 573.177C537.973 547.908 567.471 515.518 589.328 478.115C611.184 440.712 624.909 399.133 629.61 356.085L623.065 355.372C618.464 397.504 605.032 438.196 583.641 474.802C562.251 511.408 533.381 543.108 498.911 567.839C464.44 592.57 425.142 609.779 383.571 618.345C342 626.911 299.089 626.643 257.629 617.559C216.169 608.474 177.089 590.777 142.931 565.617C108.773 540.457 80.3025 508.4 59.372 471.529C38.4415 434.659 25.5196 393.802 21.4471 351.616C17.3746 309.431 22.2426 266.862 35.7345 226.679L29.4925 224.589Z" fill="url(#paint2_linear_1004_21894)" stroke="url(#paint3_linear_1004_21894)" stroke-width="6" mask="url(#path-4-inside-2_1004_21894)"/>
<ellipse cx="31.3227" cy="226.669" rx="9.59785" ry="9.61273" transform="rotate(-90 31.3227 226.669)" fill="#CBE5FF"/>
<ellipse cx="625.139" cy="361.234" rx="9.59785" ry="9.61273" transform="rotate(-90 625.139 361.234)" fill="#7CB1FF"/>
<path d="M322.165 60C467.826 60 585.907 177.898 585.907 323.333C585.907 468.768 467.826 586.667 322.165 586.667C176.505 586.667 58.4238 468.768 58.4238 323.333C58.4238 177.898 176.505 60 322.165 60ZM322.165 560.333C453.26 560.333 559.533 454.225 559.533 323.333C559.533 192.442 453.26 86.3333 322.165 86.3333C191.071 86.3333 84.798 192.442 84.798 323.333C84.798 454.225 191.071 560.333 322.165 560.333Z" fill="#5698FF"/>
<path opacity="0.7" d="M73.5282 235.497C87.7812 195.276 111.609 159.115 142.96 130.126L160.881 149.446C132.664 175.537 111.22 208.082 98.3919 244.281L73.5282 235.497Z" fill="white"/>
<path opacity="0.7" d="M565.239 221.146C581.821 260.467 588.586 303.222 584.951 345.732L558.673 343.492C561.944 305.233 555.855 266.754 540.932 231.365L565.239 221.146Z" fill="white"/>
<path opacity="0.7" d="M135.672 137.129C146.308 126.509 157.834 116.817 170.125 108.16L185.329 129.677C174.267 137.469 163.894 146.191 154.321 155.749L135.672 137.129Z" fill="white"/>
<path opacity="0.7" d="M194.515 553.067C146.815 526.666 108.481 486.156 84.7855 437.109C61.0904 388.063 53.1989 332.891 62.1968 279.183L88.2214 283.529C80.1233 331.867 87.2256 381.522 108.551 425.663C129.877 469.805 164.378 506.264 207.308 530.025L194.515 553.067Z" fill="white"/>
<defs>
<linearGradient id="paint0_linear_1004_21894" x1="526.883" y1="-51.4324" x2="-57.3611" y2="105.358" gradientUnits="userSpaceOnUse">
<stop stop-color="#E7F6FF"/>
<stop offset="1" stop-color="#5497FF"/>
</linearGradient>
<linearGradient id="paint1_linear_1004_21894" x1="526.883" y1="-51.4324" x2="-57.3611" y2="105.358" gradientUnits="userSpaceOnUse">
<stop stop-color="#E7F6FF"/>
<stop offset="1" stop-color="#5497FF"/>
</linearGradient>
<linearGradient id="paint2_linear_1004_21894" x1="-163.952" y1="273.287" x2="542.905" y2="886.059" gradientUnits="userSpaceOnUse">
<stop stop-color="#DEF1FF"/>
<stop offset="1" stop-color="#5396FF"/>
</linearGradient>
<linearGradient id="paint3_linear_1004_21894" x1="-163.952" y1="273.287" x2="542.905" y2="886.059" gradientUnits="userSpaceOnUse">
<stop stop-color="#DEF1FF"/>
<stop offset="1" stop-color="#5396FF"/>
</linearGradient>
</defs>
</svg>
