<svg width="386" height="435" viewBox="0 0 386 435" fill="none" xmlns="http://www.w3.org/2000/svg">
<mask id="path-1-inside-1_1043_19081" fill="white">
<path d="M330.951 103.362C312.02 81.9881 288.372 65.295 261.871 54.5987C235.369 43.9025 206.74 39.4956 178.24 41.7256C149.739 43.9556 122.148 52.7616 97.6421 67.449C73.1359 82.1364 52.3848 102.304 37.0253 126.36L40.3415 128.468C55.3738 104.924 75.6827 85.1864 99.6668 70.812C123.651 56.4375 150.654 47.8192 178.547 45.6367C206.44 43.4542 234.459 47.7672 260.396 58.2355C286.333 68.7039 309.477 85.0413 328.004 105.959L330.951 103.362Z"/>
</mask>
<path d="M330.951 103.362C312.02 81.9881 288.372 65.295 261.871 54.5987C235.369 43.9025 206.74 39.4956 178.24 41.7256C149.739 43.9556 122.148 52.7616 97.6421 67.449C73.1359 82.1364 52.3848 102.304 37.0253 126.36L40.3415 128.468C55.3738 104.924 75.6827 85.1864 99.6668 70.812C123.651 56.4375 150.654 47.8192 178.547 45.6367C206.44 43.4542 234.459 47.7672 260.396 58.2355C286.333 68.7039 309.477 85.0413 328.004 105.959L330.951 103.362Z" stroke="url(#paint0_linear_1043_19081)" stroke-width="6" mask="url(#path-1-inside-1_1043_19081)"/>
<ellipse cx="5.73801" cy="5.73153" rx="5.73801" ry="5.73153" transform="matrix(0.866514 0.499153 -0.500848 0.865535 327.227 95.8596)" fill="#E1F2FF"/>
<ellipse cx="5.73801" cy="5.73153" rx="5.73801" ry="5.73153" transform="matrix(0.866514 0.499153 -0.500848 0.865535 36.1621 120.957)" fill="#71AAFF"/>
<mask id="path-4-inside-2_1043_19081" fill="white">
<path d="M17.702 166.763C9.46845 191.268 6.4977 217.227 8.98299 242.953C11.4683 268.679 19.3539 293.594 32.1269 316.079C44.9 338.563 62.2742 358.113 83.1193 373.456C103.964 388.799 127.813 399.591 153.115 405.131C178.416 410.671 204.603 410.835 229.972 405.611C255.341 400.387 279.323 389.893 300.359 374.811C321.395 359.729 339.013 340.398 352.066 318.075C365.12 295.751 373.317 270.936 376.125 245.243L372.216 244.818C369.468 269.964 361.446 294.25 348.67 316.098C335.895 337.945 318.652 356.865 298.064 371.625C277.477 386.385 254.005 396.656 229.177 401.769C204.349 406.881 178.72 406.721 153.958 401.299C129.195 395.877 105.854 385.315 85.4535 370.299C65.0525 355.283 48.0485 336.15 35.5476 314.144C23.0468 292.139 15.3291 267.754 12.8968 242.577C10.4645 217.399 13.3719 191.993 21.43 168.01L17.702 166.763Z"/>
</mask>
<path d="M17.702 166.763C9.46845 191.268 6.4977 217.227 8.98299 242.953C11.4683 268.679 19.3539 293.594 32.1269 316.079C44.9 338.563 62.2742 358.113 83.1193 373.456C103.964 388.799 127.813 399.591 153.115 405.131C178.416 410.671 204.603 410.835 229.972 405.611C255.341 400.387 279.323 389.893 300.359 374.811C321.395 359.729 339.013 340.398 352.066 318.075C365.12 295.751 373.317 270.936 376.125 245.243L372.216 244.818C369.468 269.964 361.446 294.25 348.67 316.098C335.895 337.945 318.652 356.865 298.064 371.625C277.477 386.385 254.005 396.656 229.177 401.769C204.349 406.881 178.72 406.721 153.958 401.299C129.195 395.877 105.854 385.315 85.4535 370.299C65.0525 355.283 48.0485 336.15 35.5476 314.144C23.0468 292.139 15.3291 267.754 12.8968 242.577C10.4645 217.399 13.3719 191.993 21.43 168.01L17.702 166.763Z" stroke="url(#paint1_linear_1043_19081)" stroke-width="6" mask="url(#path-4-inside-2_1043_19081)"/>
<ellipse cx="18.7959" cy="168.004" rx="5.72829" ry="5.74125" transform="rotate(-90 18.7959 168.004)" fill="#CBE5FF"/>
<ellipse cx="373.456" cy="248.317" rx="5.72829" ry="5.74125" transform="rotate(-90 373.456 248.317)" fill="#7CB1FF"/>
<path d="M192.501 68.531C279.498 68.531 350.022 138.896 350.022 225.696C350.022 312.496 279.498 382.862 192.501 382.862C105.505 382.862 34.9805 312.496 34.9805 225.696C34.9805 138.896 105.505 68.531 192.501 68.531ZM192.501 367.145C270.798 367.145 334.27 303.816 334.27 225.696C334.27 147.576 270.798 84.2476 192.501 84.2476C114.205 84.2476 50.7326 147.576 50.7326 225.696C50.7326 303.816 114.205 367.145 192.501 367.145Z" fill="#5698FF"/>
<path opacity="0.7" d="M44.0016 173.273C52.5143 149.268 66.7453 127.686 85.4701 110.384L96.1732 121.915C79.321 137.487 66.513 156.911 58.8516 178.515L44.0016 173.273Z" fill="white"/>
<path opacity="0.7" d="M337.679 164.708C347.582 188.176 351.622 213.693 349.452 239.064L333.757 237.728C335.71 214.894 332.074 191.928 323.161 170.807L337.679 164.708Z" fill="white"/>
<path opacity="0.7" d="M81.1173 114.564C87.4697 108.226 94.3539 102.441 101.695 97.2742L110.775 110.116C104.169 114.767 97.9729 119.973 92.2557 125.677L81.1173 114.564Z" fill="white"/>
<path opacity="0.7" d="M116.263 362.808C87.7734 347.051 64.8779 322.874 50.7259 293.601C36.5738 264.329 31.8606 231.401 37.2346 199.346L52.7779 201.94C47.9413 230.789 52.1832 260.425 64.92 286.77C77.6569 313.115 98.2628 334.875 123.903 349.056L116.263 362.808Z" fill="white"/>
<defs>
<linearGradient id="paint0_linear_1043_19081" x1="314.77" y1="2.02347" x2="-34.1396" y2="95.725" gradientUnits="userSpaceOnUse">
<stop stop-color="#E7F6FF"/>
<stop offset="1" stop-color="#5497FF"/>
</linearGradient>
<linearGradient id="paint1_linear_1043_19081" x1="-97.834" y1="195.828" x2="324.083" y2="561.845" gradientUnits="userSpaceOnUse">
<stop stop-color="#DEF1FF"/>
<stop offset="1" stop-color="#5396FF"/>
</linearGradient>
</defs>
</svg>
