<svg width="228" height="100" viewBox="0 0 228 100" fill="none" xmlns="http://www.w3.org/2000/svg">
<g clip-path="url(#clip0_969_6393)">
<path d="M227.394 0.765625H0.839844V99.7656H227.394V0.765625Z" fill="white"/>
<path d="M101.046 19.6946H11.0195V80.8366H101.046V19.6946Z" fill="#034EA2"/>
<path d="M54.2574 34.5596L56.0424 33.2565L57.8244 34.5596L57.1455 32.4503L58.9669 31.1472H56.7243L56.0424 29.0106L55.3544 31.1472H53.127L54.9392 32.4503L54.2574 34.5596Z" fill="#FFF200"/>
<path d="M45.0202 37.0387L46.8112 35.7325L48.5932 37.0387L47.9174 34.9354L49.7206 33.6323H47.4931L46.8082 31.4957L46.1263 33.6323H43.8867L45.702 34.9354L45.0202 37.0387Z" fill="#FFF200"/>
<path d="M40.0534 38.2721L39.3624 40.4026H37.1289L38.9442 41.7057L38.2654 43.815L40.0534 42.5088L41.8384 43.815L41.1565 41.7057L42.9658 40.4026H40.7353L40.0534 38.2721Z" fill="#FFF200"/>
<path d="M37.5709 51.7339L39.3498 53.0401L38.674 50.9308L40.4863 49.6307H38.2467L37.5709 47.4941L36.886 49.6307H34.6494L36.4647 50.9308L35.7829 53.0401L37.5709 51.7339Z" fill="#FFF200"/>
<path d="M40.7353 58.886L40.0534 56.7465L39.3624 58.8921L37.1289 58.886L38.9442 60.1892L38.2654 62.2864L40.0534 60.9832L41.8384 62.2864L41.1565 60.1892L42.9658 58.886H40.7353Z" fill="#FFF200"/>
<path d="M47.5048 65.6533L46.8169 63.5259L46.132 65.6533H43.8984L45.7168 66.9504L45.0379 69.0658L46.8199 67.7626L48.5989 69.0658L47.9261 66.9504L49.7384 65.6533H47.5048Z" fill="#FFF200"/>
<path d="M56.7273 68.1021L56.0424 65.9746L55.3605 68.1021H53.127L54.9392 69.4052L54.2634 71.5206L56.0454 70.2205L57.8274 71.5206L57.1455 69.4052L58.9669 68.1021H56.7273Z" fill="#FFF200"/>
<path d="M65.9527 65.6533L65.2708 63.5259L64.5889 65.6533H62.3584L64.1646 66.9504L63.4888 69.0658L65.2708 67.7626L67.0558 69.0658L66.3739 66.9504L68.1923 65.6533H65.9527Z" fill="#FFF200"/>
<path d="M72.7254 58.886L72.0405 56.7465L71.3617 58.8921L69.1221 58.886L70.9374 60.1892L70.2585 62.2864L72.0405 60.9832L73.8286 62.2864L73.1437 60.1892L74.962 58.886H72.7254Z" fill="#FFF200"/>
<path d="M77.417 49.6064H75.1804L74.4955 47.4698L73.8106 49.6064H71.5801L73.3924 50.9065L72.7075 53.0098L74.4955 51.7066L76.2866 53.0098L75.6017 50.9065L77.417 49.6064Z" fill="#FFF200"/>
<path d="M70.2585 43.7847L72.0405 42.4816L73.8286 43.7847L73.1437 41.6815L74.962 40.3814H72.7254L72.0405 38.2388L71.3617 40.3814H69.1221L70.9374 41.6815L70.2585 43.7847Z" fill="#FFF200"/>
<path d="M65.2974 31.4957L64.6155 33.6383L62.3789 33.6323L64.1912 34.9354L63.5123 37.0387L65.2974 35.7325L67.0854 37.0387L66.4066 34.9354L68.2188 33.6323H65.9792L65.2974 31.4957Z" fill="#FFF200"/>
<path d="M110.932 31.6594C110.932 31.9776 110.914 32.2716 110.88 32.5443C110.844 32.814 110.753 33.0929 110.602 33.3808C110.45 33.6656 110.205 33.9051 109.865 34.096C109.526 34.2869 109.071 34.3809 108.504 34.3809C107.938 34.3809 107.507 34.296 107.168 34.1263C106.829 33.9566 106.58 33.7384 106.422 33.4717C106.265 33.205 106.165 32.9231 106.119 32.6352C106.077 32.3443 106.053 32.02 106.053 31.6624V28.0742H106.874V31.6503C106.874 32.0231 106.901 32.3443 106.956 32.614C107.01 32.8837 107.15 33.1232 107.38 33.3323C107.607 33.5414 107.962 33.6444 108.438 33.6444C108.914 33.6444 109.283 33.5626 109.526 33.3959C109.768 33.2292 109.926 33.008 109.999 32.7292C110.071 32.4504 110.108 32.0928 110.108 31.6533V28.0772H110.932V31.6655V31.6594Z" fill="black"/>
<path d="M117.187 34.2748H116.344L113.105 29.4046H113.086V34.2748H112.308V28.0742H113.144L116.384 32.9444H116.402V28.0742H117.184V34.2748H117.187Z" fill="black"/>
<path d="M119.502 34.2748H118.678V28.0742H119.502V34.2748Z" fill="black"/>
<path d="M126.076 34.2747H125.148L124.421 32.3867H121.833L121.148 34.2747H120.281L122.663 28.0742H123.548L126.079 34.2747H126.076ZM124.588 26.6013C124.588 26.9165 124.506 27.1559 124.345 27.3195C124.185 27.4832 123.988 27.562 123.754 27.562C123.624 27.562 123.515 27.5468 123.427 27.5165C123.339 27.4862 123.236 27.4317 123.115 27.3529C122.915 27.2256 122.754 27.162 122.636 27.162C122.403 27.162 122.281 27.2953 122.272 27.559H121.751C121.751 27.2468 121.836 27.0074 122.006 26.8437C122.175 26.6801 122.375 26.5983 122.612 26.5983C122.797 26.5983 122.994 26.6649 123.206 26.7983C123.418 26.9316 123.594 26.9983 123.727 26.9983C123.921 26.9983 124.033 26.865 124.066 26.6013H124.588ZM124.173 31.7381C123.666 30.3956 123.379 29.6319 123.315 29.4531C123.251 29.2712 123.178 29.0288 123.1 28.7227H123.078C123 29.1409 122.894 29.5258 122.76 29.8834L122.066 31.7412H124.173V31.7381Z" fill="black"/>
<path d="M129.448 27.9651C130.318 27.9651 131.027 28.2591 131.582 28.85C132.134 29.441 132.412 30.2168 132.412 31.1805C132.412 32.1443 132.134 32.9171 131.579 33.502C131.024 34.0869 130.315 34.3808 129.452 34.3808C128.588 34.3808 127.839 34.0778 127.294 33.4717C126.748 32.8655 126.479 32.1261 126.479 31.2502C126.479 30.232 126.754 29.4319 127.306 28.844C127.857 28.2591 128.573 27.9651 129.452 27.9651H129.448ZM129.439 33.6777C130.07 33.6777 130.579 33.4565 130.97 33.0171C131.361 32.5776 131.558 31.9655 131.558 31.1805C131.558 30.3744 131.358 29.7531 130.961 29.3198C130.561 28.8864 130.061 28.6682 129.458 28.6682C128.854 28.6682 128.327 28.8803 127.927 29.3076C127.527 29.7349 127.327 30.3865 127.327 31.2654C127.327 31.9836 127.524 32.5655 127.915 33.011C128.306 33.4565 128.815 33.6777 129.442 33.6777H129.439Z" fill="black"/>
<path d="M140.531 34.2748H135.897V28.0742H140.386V28.8107H136.719V30.7048H140.149V31.4412H136.719V33.5384H140.531V34.2748Z" fill="black"/>
<path d="M146.556 31.6594C146.556 31.9776 146.538 32.2716 146.504 32.5443C146.468 32.814 146.377 33.0929 146.226 33.3808C146.074 33.6656 145.829 33.9051 145.489 34.096C145.15 34.2869 144.695 34.3809 144.128 34.3809C143.562 34.3809 143.131 34.296 142.792 34.1263C142.453 33.9566 142.204 33.7384 142.046 33.4717C141.889 33.205 141.789 32.9231 141.743 32.6352C141.701 32.3443 141.677 32.02 141.677 31.6624V28.0742H142.498V31.6503C142.498 32.0231 142.525 32.3443 142.58 32.614C142.634 32.8837 142.774 33.1232 143.004 33.3323C143.231 33.5414 143.586 33.6444 144.062 33.6444C144.538 33.6444 144.907 33.5626 145.15 33.3959C145.392 33.2292 145.55 33.008 145.623 32.7292C145.695 32.4504 145.732 32.0928 145.732 31.6533V28.0772H146.556V31.6655V31.6594Z" fill="black"/>
<path d="M153.412 34.2748H152.378C151.76 33.2989 151.378 32.6989 151.227 32.4777C151.078 32.2534 150.92 32.0625 150.757 31.9049C150.593 31.7443 150.436 31.6442 150.29 31.6018C150.145 31.5594 149.951 31.5382 149.711 31.5382H148.763V34.2748H147.941V28.0742H150.687C151.063 28.0742 151.378 28.0985 151.63 28.147C151.884 28.1954 152.105 28.2955 152.296 28.45C152.487 28.6046 152.636 28.7985 152.739 29.0319C152.842 29.2652 152.893 29.5137 152.893 29.7713C152.893 30.2381 152.745 30.6169 152.448 30.9018C152.151 31.1866 151.721 31.3685 151.154 31.4442V31.4624C151.569 31.6442 151.957 32.0231 152.321 32.5928L153.403 34.2808L153.412 34.2748ZM148.766 30.8017H150.526C150.881 30.8017 151.163 30.7714 151.372 30.7108C151.578 30.6502 151.745 30.532 151.869 30.3562C151.993 30.1805 152.054 29.9865 152.054 29.7683C152.054 29.4865 151.951 29.2471 151.745 29.0501C151.539 28.8531 151.199 28.7531 150.727 28.7531H148.769V30.8017H148.766Z" fill="black"/>
<path d="M156.888 27.9651C157.758 27.9651 158.467 28.2591 159.021 28.85C159.573 29.441 159.852 30.2168 159.852 31.1805C159.852 32.1443 159.573 32.9171 159.018 33.502C158.464 34.0869 157.755 34.3808 156.891 34.3808C156.027 34.3808 155.279 34.0778 154.733 33.4717C154.188 32.8655 153.918 32.1261 153.918 31.2502C153.918 30.232 154.194 29.4319 154.745 28.844C155.297 28.2591 156.012 27.9651 156.891 27.9651H156.888ZM156.879 33.6777C157.509 33.6777 158.018 33.4565 158.409 33.0171C158.8 32.5776 158.997 31.9655 158.997 31.1805C158.997 30.3744 158.797 29.7531 158.4 29.3198C158 28.8864 157.5 28.6682 156.897 28.6682C156.294 28.6682 155.767 28.8803 155.367 29.3076C154.967 29.7349 154.767 30.3865 154.767 31.2654C154.767 31.9836 154.964 32.5655 155.354 33.011C155.745 33.4565 156.255 33.6777 156.882 33.6777H156.879Z" fill="black"/>
<path d="M160.915 28.0712H163.255C163.624 28.0712 163.943 28.0894 164.209 28.1257C164.476 28.1621 164.721 28.2591 164.952 28.4106C165.179 28.5652 165.355 28.7743 165.47 29.0379C165.588 29.3016 165.646 29.5774 165.646 29.8653C165.646 30.4381 165.461 30.8957 165.094 31.2412C164.728 31.5866 164.137 31.7594 163.324 31.7594H161.736V34.2717H160.915V28.0712ZM161.736 31.023H163.33C164.306 31.023 164.794 30.6441 164.794 29.8895C164.794 29.641 164.731 29.4228 164.603 29.2319C164.476 29.041 164.321 28.9228 164.137 28.8773C163.952 28.8318 163.676 28.8076 163.312 28.8076H161.733V31.026L161.736 31.023Z" fill="black"/>
<path d="M171.347 34.2748H166.713V28.0742H171.201V28.8107H167.534V30.7048H170.965V31.4412H167.534V33.5384H171.347V34.2748Z" fill="black"/>
<path d="M173.426 34.2748H172.602V28.0742H173.426V34.2748Z" fill="black"/>
<path d="M180.002 34.2748H179.074L178.347 32.3867H175.759L175.074 34.2748H174.207L176.589 28.0742H177.474L180.005 34.2748H180.002ZM178.098 31.7352C177.592 30.3926 177.304 29.6289 177.241 29.4501C177.177 29.2683 177.104 29.0258 177.025 28.7197H177.004C176.925 29.138 176.819 29.5228 176.686 29.8804L175.992 31.7382H178.098V31.7352Z" fill="black"/>
<path d="M110.247 60.0013H106.883V61.9227H109.798V62.6591H106.883V65.4685H106.062V59.2649H110.247V60.0013Z" fill="black"/>
<path d="M114.877 65.4655H114.195V64.8048H114.174C113.829 65.3139 113.359 65.5715 112.765 65.5715C112.453 65.5715 112.162 65.4988 111.895 65.3533C111.629 65.2079 111.45 65.0078 111.362 64.7533C111.274 64.4987 111.229 64.1684 111.229 63.7623V60.9772H111.989V63.4653C111.989 63.8623 112.007 64.1472 112.047 64.3199C112.086 64.4927 112.183 64.6351 112.344 64.7442C112.504 64.8563 112.695 64.9109 112.92 64.9109C113.207 64.9109 113.477 64.8109 113.732 64.6139C113.986 64.4139 114.114 64.0017 114.114 63.3774V60.9802H114.874V65.4685L114.877 65.4655Z" fill="black"/>
<path d="M119.726 65.4655H118.96V62.738C118.96 62.2773 118.878 61.9621 118.711 61.7894C118.548 61.6167 118.317 61.5318 118.023 61.5318C117.796 61.5318 117.584 61.5864 117.381 61.6955C117.178 61.8046 117.035 61.9621 116.95 62.1622C116.866 62.3622 116.823 62.6471 116.823 63.0138V65.4685H116.062V60.9802H116.747V61.6136H116.766C116.926 61.3681 117.123 61.1833 117.36 61.0621C117.596 60.9408 117.869 60.8772 118.178 60.8772C118.414 60.8772 118.648 60.9196 118.881 61.0045C119.111 61.0893 119.293 61.2166 119.423 61.3863C119.554 61.556 119.636 61.7349 119.672 61.9288C119.705 62.1197 119.723 62.3804 119.723 62.7077V65.4716L119.726 65.4655Z" fill="black"/>
<path d="M124.509 65.4654H123.796V64.8957H123.778C123.506 65.3472 123.09 65.5715 122.539 65.5715C121.987 65.5715 121.53 65.3533 121.163 64.9169C120.796 64.4805 120.611 63.9168 120.611 63.2228C120.611 62.5288 120.784 61.9257 121.133 61.5045C121.481 61.0832 121.939 60.8741 122.508 60.8741C123.045 60.8741 123.451 61.0772 123.73 61.4863H123.748V59.2618H124.509V65.4654ZM122.621 64.9442C122.954 64.9442 123.236 64.8078 123.466 64.5351C123.696 64.2623 123.812 63.8471 123.812 63.2925C123.812 62.7379 123.706 62.3106 123.493 61.9863C123.281 61.6621 122.978 61.4984 122.584 61.4984C122.19 61.4984 121.89 61.656 121.69 61.9742C121.49 62.2924 121.387 62.7076 121.387 63.2228C121.387 63.5956 121.442 63.9108 121.551 64.1684C121.66 64.426 121.811 64.6199 122.005 64.7502C122.199 64.8805 122.405 64.9442 122.618 64.9442H122.621Z" fill="black"/>
<path d="M127.524 60.8772C128.13 60.8772 128.633 61.0742 129.033 61.4712C129.433 61.8652 129.63 62.4258 129.63 63.1562C129.63 64.0381 129.415 64.6624 128.982 65.0291C128.552 65.3958 128.064 65.5776 127.521 65.5776C126.979 65.5776 126.46 65.3897 126.045 65.0139C125.627 64.6381 125.418 64.0442 125.418 63.2289C125.418 62.4137 125.621 61.85 126.024 61.4621C126.427 61.0742 126.927 60.8802 127.521 60.8802L127.524 60.8772ZM127.524 64.9473C127.958 64.9473 128.288 64.7866 128.515 64.4654C128.739 64.1442 128.855 63.7199 128.855 63.1956C128.855 62.6349 128.727 62.2107 128.473 61.9258C128.218 61.6409 127.903 61.4985 127.527 61.4985C127.151 61.4985 126.824 61.6439 126.576 61.9318C126.327 62.2197 126.203 62.6531 126.203 63.2229C126.203 63.7926 126.33 64.223 126.582 64.5109C126.833 64.7988 127.148 64.9442 127.527 64.9442L127.524 64.9473Z" fill="black"/>
<path d="M136.397 61.0833C136.364 60.6893 136.222 60.3923 135.97 60.1923C135.719 59.9922 135.358 59.8953 134.891 59.8953C134.467 59.8953 134.125 59.9741 133.858 60.1317C133.594 60.2892 133.461 60.5196 133.461 60.8226C133.461 61.0893 133.564 61.2893 133.767 61.4196C133.97 61.55 134.361 61.6803 134.94 61.8106C135.452 61.9227 135.873 62.0379 136.197 62.1561C136.522 62.2743 136.801 62.4591 137.031 62.7076C137.261 62.9562 137.376 63.2925 137.376 63.7138C137.376 64.2472 137.164 64.6896 136.74 65.0412C136.316 65.3927 135.761 65.5715 135.079 65.5715C134.206 65.5715 133.555 65.3776 133.124 64.9866C132.691 64.5987 132.461 64.0926 132.437 63.4714L133.215 63.4047C133.252 63.9017 133.443 64.2623 133.791 64.4896C134.137 64.7169 134.558 64.8291 135.049 64.8291C135.51 64.8291 135.882 64.7351 136.164 64.5472C136.446 64.3593 136.588 64.1017 136.588 63.7774C136.588 63.4532 136.44 63.1925 136.143 63.038C135.846 62.8834 135.349 62.7289 134.652 62.5804C133.955 62.4288 133.452 62.2167 133.143 61.9439C132.837 61.6712 132.682 61.3136 132.682 60.8772C132.682 60.3802 132.876 59.971 133.267 59.6468C133.655 59.3225 134.185 59.1619 134.858 59.1619C135.531 59.1619 136.1 59.3225 136.519 59.6468C136.937 59.971 137.158 60.4286 137.185 61.0226L136.397 61.0863V61.0833Z" fill="black"/>
<path d="M140.234 60.8772C140.84 60.8772 141.343 61.0742 141.743 61.4712C142.143 61.8652 142.34 62.4258 142.34 63.1562C142.34 64.0381 142.125 64.6624 141.692 65.0291C141.259 65.3958 140.774 65.5776 140.231 65.5776C139.689 65.5776 139.173 65.3897 138.755 65.0139C138.337 64.6381 138.128 64.0442 138.128 63.2289C138.128 62.4137 138.331 61.85 138.734 61.4621C139.137 61.0742 139.637 60.8802 140.231 60.8802L140.234 60.8772ZM140.234 64.9473C140.668 64.9473 140.998 64.7866 141.225 64.4654C141.452 64.1442 141.565 63.7199 141.565 63.1956C141.565 62.6349 141.437 62.2107 141.183 61.9258C140.928 61.6409 140.613 61.4985 140.237 61.4985C139.861 61.4985 139.534 61.6439 139.286 61.9318C139.037 62.2197 138.913 62.6531 138.913 63.2229C138.913 63.7926 139.04 64.223 139.292 64.5109C139.543 64.7988 139.858 64.9442 140.237 64.9442L140.234 64.9473Z" fill="black"/>
<path d="M146.902 63.9138C146.802 64.4866 146.578 64.9048 146.226 65.1715C145.874 65.4382 145.474 65.5715 145.029 65.5715C144.377 65.5715 143.874 65.3564 143.52 64.9291C143.165 64.5018 142.986 63.935 142.986 63.2319C142.986 62.647 143.089 62.1803 143.292 61.8288C143.495 61.4772 143.753 61.2318 144.059 61.0893C144.365 60.9469 144.69 60.8741 145.029 60.8741C145.493 60.8741 145.887 60.9954 146.217 61.2348C146.544 61.4742 146.747 61.8258 146.823 62.2925L146.087 62.4076C146.011 62.1046 145.887 61.8773 145.717 61.7257C145.547 61.5742 145.329 61.4984 145.062 61.4984C144.635 61.4984 144.314 61.65 144.092 61.95C143.871 62.2531 143.762 62.6743 143.762 63.2138C143.762 63.7532 143.871 64.1926 144.086 64.4927C144.302 64.7927 144.614 64.9442 145.02 64.9442C145.347 64.9442 145.605 64.8503 145.793 64.6624C145.981 64.4745 146.096 64.1926 146.144 63.8168L146.902 63.9108V63.9138Z" fill="black"/>
<path d="M148.32 60.1256H147.56V59.2618H148.32V60.1256ZM148.32 65.4654H147.56V60.9771H148.32V65.4654Z" fill="black"/>
<path d="M153.375 65.4655H152.575C152.502 65.323 152.451 65.1382 152.418 64.9109C151.908 65.3503 151.357 65.5715 150.763 65.5715C150.29 65.5715 149.914 65.4533 149.642 65.2169C149.369 64.9806 149.232 64.6684 149.232 64.2775C149.232 63.8865 149.366 63.5986 149.629 63.3562C149.893 63.1168 150.351 62.9561 151.002 62.8773L151.714 62.7713C151.978 62.7288 152.199 62.6773 152.369 62.6137C152.369 62.3864 152.363 62.2227 152.348 62.1288C152.333 62.0348 152.293 61.9348 152.224 61.8348C152.154 61.7318 152.042 61.653 151.89 61.5893C151.739 61.5287 151.533 61.4954 151.278 61.4954C150.951 61.4954 150.693 61.556 150.502 61.6772C150.311 61.7985 150.181 62.0257 150.111 62.353L149.366 62.2561C149.448 61.7954 149.657 61.4499 149.996 61.2196C150.336 60.9893 150.799 60.8711 151.393 60.8711C151.933 60.8711 152.33 60.9499 152.581 61.1105C152.833 61.2711 152.99 61.4621 153.048 61.6893C153.106 61.9166 153.133 62.2046 153.133 62.5622V63.5865C153.133 64.2108 153.145 64.629 153.169 64.8412C153.193 65.0533 153.263 65.2624 153.378 65.4655H153.375ZM152.369 63.4895V63.2137C151.972 63.3471 151.484 63.4501 150.908 63.5289C150.333 63.6077 150.045 63.8502 150.045 64.2593C150.045 64.4654 150.123 64.6351 150.278 64.7684C150.433 64.9018 150.657 64.9684 150.948 64.9684C151.324 64.9684 151.654 64.8563 151.942 64.632C152.227 64.4078 152.369 64.0259 152.369 63.4865V63.4895Z" fill="black"/>
<path d="M155.063 65.4654H154.303V59.2618H155.063V65.4654Z" fill="black"/>
<path d="M163.373 65.4654H158.739V59.2618H163.228V59.9983H159.561V61.8924H162.991V62.6288H159.561V64.726H163.373V65.4624V65.4654Z" fill="black"/>
<path d="M168.052 65.4655H167.37V64.8048H167.349C167.007 65.3139 166.537 65.5715 165.94 65.5715C165.628 65.5715 165.337 65.4988 165.07 65.3533C164.803 65.2079 164.625 65.0078 164.537 64.7533C164.449 64.4987 164.403 64.1684 164.403 63.7623V60.9772H165.164V63.4653C165.164 63.8623 165.185 64.1472 165.222 64.3199C165.261 64.4927 165.358 64.6351 165.519 64.7442C165.679 64.8563 165.87 64.9109 166.094 64.9109C166.382 64.9109 166.652 64.8109 166.907 64.6139C167.161 64.4139 167.288 64.0017 167.288 63.3774V60.9802H168.049V65.4685L168.052 65.4655Z" fill="black"/>
<path d="M171.653 61.1166L171.389 61.8197C171.201 61.7106 171.016 61.6561 170.835 61.6561C170.55 61.6561 170.335 61.7833 170.186 62.0379C170.041 62.2925 169.965 62.6501 169.965 63.1107V65.4685H169.204V60.9802H169.898V61.6561H169.916C170.159 61.1378 170.477 60.8772 170.868 60.8772C171.129 60.8772 171.389 60.959 171.65 61.1196L171.653 61.1166Z" fill="black"/>
<path d="M173.947 60.8772C174.553 60.8772 175.056 61.0742 175.456 61.4712C175.856 61.8652 176.053 62.4258 176.053 63.1562C176.053 64.0381 175.838 64.6624 175.405 65.0291C174.971 65.3958 174.487 65.5776 173.944 65.5776C173.402 65.5776 172.886 65.3897 172.468 65.0139C172.05 64.6381 171.841 64.0442 171.841 63.2289C171.841 62.4137 172.041 61.85 172.447 61.4621C172.85 61.0742 173.35 60.8802 173.944 60.8802L173.947 60.8772ZM173.947 64.9473C174.38 64.9473 174.711 64.7866 174.938 64.4654C175.165 64.1442 175.278 63.7199 175.278 63.1956C175.278 62.6349 175.15 62.2107 174.896 61.9258C174.641 61.6409 174.326 61.4985 173.95 61.4985C173.574 61.4985 173.247 61.6439 172.999 61.9318C172.75 62.2197 172.626 62.6531 172.626 63.2229C172.626 63.7926 172.753 64.223 173.005 64.5109C173.256 64.7988 173.571 64.9442 173.95 64.9442L173.947 64.9473Z" fill="black"/>
<path d="M177.656 61.556C177.941 61.1014 178.369 60.8741 178.938 60.8741C179.508 60.8741 179.993 61.0893 180.335 61.5166C180.678 61.9439 180.848 62.5016 180.848 63.1865C180.848 63.9169 180.66 64.4987 180.281 64.926C179.902 65.3564 179.438 65.5715 178.89 65.5715C178.408 65.5715 178.02 65.3806 177.729 64.9957H177.708V67.1929H176.947V60.9772H177.641V61.556H177.659H177.656ZM178.835 64.9442C179.19 64.9442 179.487 64.7957 179.717 64.5018C179.951 64.2078 180.066 63.7684 180.066 63.1835C180.066 62.6319 179.954 62.2106 179.729 61.9136C179.505 61.6166 179.217 61.4681 178.869 61.4681C178.52 61.4681 178.211 61.6318 177.978 61.9621C177.744 62.2925 177.629 62.7198 177.629 63.2441C177.629 63.7987 177.741 64.2199 177.963 64.5078C178.187 64.7957 178.475 64.9382 178.835 64.9382V64.9442Z" fill="black"/>
<path d="M185.657 63.4138H182.294C182.324 63.9108 182.466 64.2896 182.721 64.5533C182.972 64.8169 183.288 64.9473 183.666 64.9473C183.957 64.9473 184.2 64.8715 184.397 64.7169C184.594 64.5624 184.745 64.3321 184.848 64.0199L185.63 64.1169C185.503 64.5836 185.27 64.9442 184.933 65.1958C184.594 65.4473 184.172 65.5716 183.663 65.5716C182.991 65.5716 182.463 65.3655 182.084 64.9533C181.706 64.5412 181.515 63.9745 181.515 63.2592C181.515 62.544 181.7 61.9773 182.066 61.5379C182.433 61.0984 182.951 60.8772 183.621 60.8772C183.948 60.8772 184.263 60.9499 184.566 61.0924C184.87 61.2378 185.127 61.4803 185.336 61.8258C185.548 62.1713 185.654 62.7016 185.654 63.4138H185.657ZM184.876 62.7865C184.845 62.3288 184.703 62.0015 184.451 61.7985C184.2 61.5954 183.921 61.4954 183.624 61.4954C183.266 61.4954 182.972 61.6167 182.739 61.8561C182.509 62.0955 182.372 62.4046 182.336 62.7865H184.876Z" fill="black"/>
<path d="M190.212 65.4655H189.53V64.8048H189.509C189.164 65.3139 188.697 65.5715 188.1 65.5715C187.788 65.5715 187.497 65.4988 187.23 65.3533C186.964 65.2079 186.785 65.0078 186.697 64.7533C186.609 64.4987 186.563 64.1684 186.563 63.7623V60.9772H187.324V63.4653C187.324 63.8623 187.342 64.1472 187.382 64.3199C187.421 64.4927 187.518 64.6351 187.679 64.7442C187.839 64.8563 188.03 64.9109 188.255 64.9109C188.542 64.9109 188.812 64.8109 189.067 64.6139C189.321 64.4139 189.449 64.0017 189.449 63.3774V60.9802H190.209V65.4685L190.212 65.4655Z" fill="black"/>
</g>
<defs>
<clipPath id="clip0_969_6393">
<rect width="226.554" height="99" fill="white" transform="translate(0.839844 0.765625)"/>
</clipPath>
</defs>
</svg>
