<svg width="203" height="60" viewBox="0 0 203 60" fill="none" xmlns="http://www.w3.org/2000/svg">
<g clip-path="url(#clip0_1534_19329)">
<path d="M195 60H7.5C3.3 60 0 56.7 0 52.5V7.5C0 3.3 3.3 0 7.5 0H195C199.2 0 202.5 3.3 202.5 7.5V52.5C202.5 56.55 199.2 60 195 60Z" fill="black"/>
<path d="M195 1.2C198.45 1.2 201.3 4.05 201.3 7.5V52.5C201.3 55.95 198.45 58.8 195 58.8H7.5C4.05 58.8 1.2 55.95 1.2 52.5V7.5C1.2 4.05 4.05 1.2 7.5 1.2H195ZM195 0H7.5C3.3 0 0 3.3 0 7.5V52.5C0 56.7 3.3 60 7.5 60H195C199.2 60 202.5 56.7 202.5 52.5V7.5C202.5 3.45 199.2 0 195 0Z" fill="#A7A6A6"/>
<path d="M102.148 32.6994C98.5484 32.6994 95.6984 35.3994 95.6984 39.1494C95.6984 42.7494 98.5484 45.5994 102.148 45.5994C105.748 45.5994 108.598 42.8994 108.598 39.1494C108.598 35.2494 105.748 32.6994 102.148 32.6994ZM102.148 42.8994C100.198 42.8994 98.5484 41.2494 98.5484 38.9994C98.5484 36.7494 100.198 35.0994 102.148 35.0994C104.098 35.0994 105.748 36.5994 105.748 38.9994C105.748 41.2494 104.098 42.8994 102.148 42.8994ZM88.1984 32.6994C84.5984 32.6994 81.7484 35.3994 81.7484 39.1494C81.7484 42.7494 84.5984 45.5994 88.1984 45.5994C91.7984 45.5994 94.6484 42.8994 94.6484 39.1494C94.6484 35.2494 91.7984 32.6994 88.1984 32.6994ZM88.1984 42.8994C86.2484 42.8994 84.5984 41.2494 84.5984 38.9994C84.5984 36.7494 86.2484 35.0994 88.1984 35.0994C90.1484 35.0994 91.7984 36.5994 91.7984 38.9994C91.7984 41.2494 90.1484 42.8994 88.1984 42.8994ZM71.5484 34.6494V37.3494H77.9984C77.8484 38.8494 77.2484 40.0494 76.4984 40.7994C75.5984 41.6994 74.0984 42.7494 71.5484 42.7494C67.4984 42.7494 64.4984 39.5994 64.4984 35.5494C64.4984 31.4994 67.6484 28.3494 71.5484 28.3494C73.6484 28.3494 75.2984 29.2494 76.4984 30.2994L78.4484 28.3494C76.7984 26.8494 74.6984 25.6494 71.6984 25.6494C66.2984 25.6494 61.6484 30.1494 61.6484 35.5494C61.6484 40.9494 66.2984 45.4494 71.6984 45.4494C74.6984 45.4494 76.7984 44.5494 78.5984 42.5994C80.3984 40.7994 80.9984 38.2494 80.9984 36.2994C80.9984 35.6994 80.9984 35.0994 80.8484 34.6494H71.5484ZM139.648 36.7494C139.048 35.2494 137.548 32.6994 134.248 32.6994C130.948 32.6994 128.248 35.2494 128.248 39.1494C128.248 42.7494 130.948 45.5994 134.548 45.5994C137.398 45.5994 139.198 43.7994 139.798 42.7494L137.698 41.2494C136.948 42.2994 136.048 43.0494 134.548 43.0494C133.048 43.0494 132.148 42.4494 131.398 41.0994L139.948 37.4994L139.648 36.7494ZM130.948 38.8494C130.948 36.4494 132.898 35.0994 134.248 35.0994C135.298 35.0994 136.348 35.6994 136.648 36.4494L130.948 38.8494ZM123.898 44.9994H126.748V26.2494H123.898V44.9994ZM119.398 34.0494C118.648 33.2994 117.448 32.5494 115.948 32.5494C112.798 32.5494 109.798 35.3994 109.798 38.9994C109.798 42.5994 112.648 45.2994 115.948 45.2994C117.448 45.2994 118.648 44.5494 119.248 43.7994H119.398V44.6994C119.398 47.0994 118.048 48.4494 115.948 48.4494C114.298 48.4494 113.098 47.2494 112.798 46.1994L110.398 47.2494C111.148 48.8994 112.948 50.9994 116.098 50.9994C119.398 50.9994 122.098 49.0494 122.098 44.3994V32.9994H119.398V34.0494ZM116.098 42.8994C114.148 42.8994 112.498 41.2494 112.498 38.9994C112.498 36.7494 114.148 35.0994 116.098 35.0994C118.048 35.0994 119.548 36.7494 119.548 38.9994C119.548 41.2494 118.048 42.8994 116.098 42.8994ZM152.698 26.2494H145.948V44.9994H148.798V37.9494H152.698C155.848 37.9494 158.848 35.6994 158.848 32.0994C158.848 28.4994 155.848 26.2494 152.698 26.2494ZM152.848 35.2494H148.798V28.7994H152.848C154.948 28.7994 156.148 30.5994 156.148 31.9494C155.998 33.5994 154.798 35.2494 152.848 35.2494ZM170.098 32.5494C167.998 32.5494 165.898 33.4494 165.148 35.3994L167.698 36.4494C168.298 35.3994 169.198 35.0994 170.248 35.0994C171.748 35.0994 173.098 35.9994 173.248 37.4994V37.6494C172.798 37.3494 171.598 36.8994 170.398 36.8994C167.698 36.8994 164.998 38.3994 164.998 41.0994C164.998 43.6494 167.248 45.2994 169.648 45.2994C171.598 45.2994 172.498 44.3994 173.248 43.4994H173.398V44.9994H176.098V37.7994C175.798 34.4994 173.248 32.5494 170.098 32.5494ZM169.798 42.8994C168.898 42.8994 167.548 42.4494 167.548 41.2494C167.548 39.7494 169.198 39.2994 170.548 39.2994C171.748 39.2994 172.348 39.5994 173.098 39.8994C172.798 41.6994 171.298 42.8994 169.798 42.8994ZM185.548 32.9994L182.398 41.0994H182.248L178.948 32.9994H175.948L180.898 44.3994L178.048 50.6994H180.898L188.548 32.9994H185.548ZM160.348 44.9994H163.198V26.2494H160.348V44.9994Z" fill="white"/>
<path d="M15.6 11.25C15.15 11.85 15 12.45 15 13.5V46.5C15 47.4 15.3 48.15 15.75 48.6L15.9 48.75L34.5 30.15V30V29.85L15.6 11.25Z" fill="#5BC9F4"/>
<path d="M40.5016 36.4492L34.3516 30.2992V29.9992V29.8492L40.5016 23.6992L40.6516 23.8492L48.0016 28.0492C50.1016 29.2492 50.1016 31.1992 48.0016 32.3992L40.5016 36.4492Z" fill="url(#paint0_linear_1534_19329)"/>
<path d="M40.6516 36.3L34.3516 30L15.6016 48.75C16.3516 49.5 17.4016 49.5 18.7516 48.9L40.6516 36.3Z" fill="url(#paint1_linear_1534_19329)"/>
<path d="M40.6516 23.6989L18.7516 11.2489C17.4016 10.4989 16.3516 10.6489 15.6016 11.3989L34.3516 29.9989L40.6516 23.6989Z" fill="url(#paint2_linear_1534_19329)"/>
<path d="M61.9512 19.5V10.5H64.6512C66.0012 10.5 67.2012 10.95 67.9512 11.7C68.8512 12.6 69.1512 13.65 69.1512 15C69.1512 16.35 68.7012 17.4 67.9512 18.3C67.0512 19.2 66.0012 19.5 64.6512 19.5H61.9512ZM63.1512 18.45H64.8012C65.8512 18.45 66.6012 18.15 67.2012 17.55C67.8012 16.95 68.1012 16.05 68.1012 15C68.1012 13.95 67.8012 13.05 67.2012 12.45C66.6012 11.85 65.7012 11.55 64.8012 11.55H63.1512V18.45Z" fill="white" stroke="white" stroke-width="0.2" stroke-miterlimit="10"/>
<path d="M70.9512 19.5V10.5H72.1512V19.5H70.9512Z" fill="white" stroke="white" stroke-width="0.2" stroke-miterlimit="10"/>
<path d="M76.65 19.6512C76.05 19.6512 75.3 19.5012 74.7 19.0512C74.1 18.6012 73.65 18.0012 73.5 17.2512L74.55 16.8012C74.7 17.2512 75 17.7012 75.3 18.0012C75.75 18.3012 76.2 18.4512 76.65 18.4512C77.1 18.4512 77.55 18.3012 78 18.0012C78.3 17.7012 78.6 17.4012 78.6 16.9512C78.6 16.5012 78.45 16.0512 78 15.7512C77.7 15.4512 77.1 15.1512 76.35 15.0012C75.6 14.7012 75 14.4012 74.55 14.1012C74.1 13.6512 73.95 13.2012 73.95 12.6012C73.95 12.0012 74.25 11.4012 74.7 10.9512C75.15 10.5012 75.9 10.2012 76.65 10.2012C77.4 10.2012 78 10.3512 78.45 10.8012C78.9 11.2512 79.2 11.5512 79.35 12.0012L78.3 12.4512C78.15 12.1512 78 11.8512 77.7 11.7012C77.4 11.4012 76.95 11.4012 76.5 11.4012C76.05 11.4012 75.75 11.5512 75.3 11.7012C75.15 12.0012 75 12.3012 75 12.7512C75 13.0512 75.15 13.3512 75.45 13.6512C75.75 13.9512 76.2 14.1012 76.8 14.2512C77.25 14.4012 77.55 14.5512 77.85 14.7012C78.15 14.8512 78.45 15.0012 78.75 15.3012C79.05 15.4512 79.35 15.7512 79.5 16.2012C79.65 16.5012 79.8 16.9512 79.8 17.4012C79.8 17.8512 79.65 18.3012 79.5 18.6012C79.35 18.9012 79.05 19.2012 78.75 19.3512C78.45 19.5012 78.15 19.6512 77.85 19.8012C77.4 19.6512 77.1 19.6512 76.65 19.6512Z" fill="white" stroke="white" stroke-width="0.2" stroke-miterlimit="10"/>
<path d="M82.5008 19.5H81.3008V10.5H84.3008C85.0508 10.5 85.6508 10.8 86.2508 11.25C86.8508 11.7 87.1508 12.45 87.1508 13.2C87.1508 13.95 86.8508 14.55 86.2508 15.15C85.6508 15.6 85.0508 15.9 84.3008 15.9H82.5008V19.5ZM82.5008 14.7H84.4508C84.9008 14.7 85.3508 14.55 85.6508 14.25C85.9508 13.95 86.1008 13.5 86.1008 13.2C86.1008 12.75 85.9508 12.45 85.6508 12.15C85.3508 11.85 84.9008 11.7 84.4508 11.7H82.5008V14.7Z" fill="white" stroke="white" stroke-width="0.2" stroke-miterlimit="10"/>
<path d="M96.0008 18.3006C95.1008 19.2006 94.0508 19.6506 92.7008 19.6506C91.3508 19.6506 90.3008 19.2006 89.4008 18.3006C88.5008 17.4006 88.0508 16.3506 88.0508 15.0006C88.0508 13.6506 88.5008 12.6006 89.4008 11.7006C90.3008 10.8006 91.3508 10.3506 92.7008 10.3506C94.0508 10.3506 95.1008 10.8006 96.0008 11.7006C96.9008 12.6006 97.3508 13.6506 97.3508 15.0006C97.3508 16.3506 96.9008 17.4006 96.0008 18.3006ZM90.3008 17.5506C90.9008 18.1506 91.8008 18.6006 92.7008 18.6006C93.6008 18.6006 94.5008 18.3006 95.1008 17.5506C95.7008 16.9506 96.1508 16.0506 96.1508 15.0006C96.1508 13.9506 95.8508 13.0506 95.1008 12.4506C94.5008 11.8506 93.6008 11.4006 92.7008 11.4006C91.8008 11.4006 90.9008 11.7006 90.3008 12.4506C89.7008 13.0506 89.2508 13.9506 89.2508 15.0006C89.2508 16.0506 89.7008 16.9506 90.3008 17.5506Z" fill="white" stroke="white" stroke-width="0.2" stroke-miterlimit="10"/>
<path d="M99 19.5V10.5H100.35L104.7 17.55V15.75V10.5H105.9V19.5H104.7L100.05 12.15V13.95V19.5H99Z" fill="white" stroke="white" stroke-width="0.2" stroke-miterlimit="10"/>
<path d="M108 19.5006V10.5006H109.2V19.5006H108ZM109.05 9.75058H108L108.6 8.10059H109.8L109.05 9.75058Z" fill="white" stroke="white" stroke-width="0.2" stroke-miterlimit="10"/>
<path d="M113.4 19.5L110.25 10.5H111.6L114 17.85L116.55 10.5H117.9L114.6 19.5H113.4Z" fill="white" stroke="white" stroke-width="0.2" stroke-miterlimit="10"/>
<path d="M124.5 11.55H120.45V14.4H124.2V15.45H120.45V18.3H124.5V19.5H119.25V10.5H124.5V11.55Z" fill="white" stroke="white" stroke-width="0.2" stroke-miterlimit="10"/>
<path d="M126.301 19.5V10.5H127.501V18.45H131.401V19.5H126.301Z" fill="white" stroke="white" stroke-width="0.2" stroke-miterlimit="10"/>
<path d="M135.902 19.5V10.5H137.252L141.602 17.55V15.75V10.5H142.802V19.5H141.602L136.952 12.15V13.95V19.5H135.902Z" fill="white" stroke="white" stroke-width="0.2" stroke-miterlimit="10"/>
<path d="M152.251 18.3006C151.351 19.2006 150.301 19.6506 148.951 19.6506C147.601 19.6506 146.551 19.2006 145.651 18.3006C144.751 17.4006 144.301 16.3506 144.301 15.0006C144.301 13.6506 144.751 12.6006 145.651 11.7006C146.551 10.8006 147.601 10.3506 148.951 10.3506C150.301 10.3506 151.351 10.8006 152.251 11.7006C153.151 12.6006 153.601 13.6506 153.601 15.0006C153.451 16.3506 153.001 17.4006 152.251 18.3006ZM146.401 17.5506C147.001 18.1506 147.901 18.6006 148.801 18.6006C149.701 18.6006 150.601 18.3006 151.201 17.5506C151.801 16.9506 152.251 16.0506 152.251 15.0006C152.251 13.9506 151.951 13.0506 151.201 12.4506C150.601 11.8506 149.701 11.4006 148.801 11.4006C147.901 11.4006 147.001 11.7006 146.401 12.4506C145.801 13.0506 145.351 13.9506 145.351 15.0006C145.351 16.0506 145.801 16.9506 146.401 17.5506Z" fill="white" stroke="white" stroke-width="0.2" stroke-miterlimit="10"/>
</g>
<defs>
<linearGradient id="paint0_linear_1534_19329" x1="46.6348" y1="29.9997" x2="10.3696" y2="29.9997" gradientUnits="userSpaceOnUse">
<stop stop-color="#FEE000"/>
<stop offset="0.1941" stop-color="#FCCF0B"/>
<stop offset="0.5469" stop-color="#FAB318"/>
<stop offset="0.8279" stop-color="#F9A21B"/>
<stop offset="1" stop-color="#F99B1C"/>
</linearGradient>
<linearGradient id="paint1_linear_1534_19329" x1="37.2235" y1="33.4396" x2="3.11421" y2="67.5489" gradientUnits="userSpaceOnUse">
<stop stop-color="#EF4547"/>
<stop offset="1" stop-color="#C6186D"/>
</linearGradient>
<linearGradient id="paint2_linear_1534_19329" x1="2.96226" y1="-7.7022" x2="30.8116" y2="20.1471" gradientUnits="userSpaceOnUse">
<stop stop-color="#279E6F"/>
<stop offset="0.3168" stop-color="#4DAB6D"/>
<stop offset="0.7398" stop-color="#6ABA6A"/>
<stop offset="1" stop-color="#74C169"/>
</linearGradient>
<clipPath id="clip0_1534_19329">
<rect width="202.5" height="60" fill="white"/>
</clipPath>
</defs>
</svg>
