<svg width="65" height="65" viewBox="0 0 65 65" fill="none" xmlns="http://www.w3.org/2000/svg">
<path d="M11.7896 25.0044H13.2171V50.0732C13.2171 51.2363 13.6792 52.3518 14.5017 53.1743C15.3241 53.9967 16.4396 54.4588 17.6028 54.4588H26.5403C26.4365 54.0804 26.384 53.6899 26.384 53.2976V45.1851C24.8304 44.0354 23.6206 42.483 22.8853 40.6956C22.1501 38.9083 21.9173 36.9539 22.2122 35.0439C22.5071 33.1338 23.3185 31.3407 24.5586 29.8583C25.7987 28.3759 27.4204 27.2607 29.2484 26.6332V8.19568L10.3065 19.7082C7.83838 21.2076 8.90151 25.0044 11.7896 25.0044Z" fill="white"/>
<path d="M55.0805 19.7081L36.1367 8.19812V26.6356C37.9647 27.2632 39.5864 28.3784 40.8265 29.8608C42.0666 31.3431 42.878 33.1363 43.1729 35.0463C43.4678 36.9564 43.235 38.9107 42.4998 40.6981C41.7645 42.4854 40.5547 44.0378 39.0011 45.1875V53.3C39.0011 53.6923 38.9486 54.0829 38.8448 54.4612H47.7823C48.9455 54.4612 50.061 53.9992 50.8834 53.1767C51.7059 52.3543 52.168 51.2388 52.168 50.0756V25.0044H53.5955C56.4855 25.0044 57.5486 21.2075 55.0805 19.7081Z" fill="white"/>
<path d="M32.6932 28.5781C31.0948 28.5781 29.5324 29.0521 28.2034 29.94C26.8743 30.828 25.8385 32.0901 25.2267 33.5668C24.615 35.0434 24.4548 36.6683 24.7665 38.236C25.0782 39.8037 25.8477 41.2437 26.9778 42.3741C28.1079 43.5044 29.5478 44.2743 31.1154 44.5864C32.683 44.8984 34.3079 44.7386 35.7847 44.1272C37.2615 43.5158 38.5239 42.4802 39.4121 41.1514C40.3004 39.8226 40.7747 38.2602 40.7751 36.6619C40.7754 35.6004 40.5666 34.5492 40.1606 33.5684C39.7546 32.5876 39.1593 31.6964 38.4088 30.9457C37.6583 30.195 36.7672 29.5996 35.7865 29.1933C34.8058 28.7871 33.7547 28.578 32.6932 28.5781ZM32.6932 42.8519C31.4686 42.8519 30.2714 42.4887 29.2532 41.8084C28.2349 41.128 27.4413 40.1609 26.9727 39.0295C26.504 37.8981 26.3814 36.6531 26.6203 35.452C26.8592 34.2509 27.4489 33.1476 28.3149 32.2817C29.1808 31.4157 30.2841 30.826 31.4852 30.5871C32.6863 30.3482 33.9313 30.4708 35.0627 30.9395C36.1942 31.4081 37.1612 32.2017 37.8416 33.22C38.5219 34.2382 38.8851 35.4354 38.8851 36.66C38.8852 37.4733 38.7252 38.2786 38.4141 39.03C38.103 39.7814 37.647 40.4642 37.072 41.0393C36.497 41.6145 35.8144 42.0708 35.0631 42.3821C34.3118 42.6934 33.5065 42.8537 32.6932 42.8537V42.8519Z" fill="#5B91E3"/>
</svg>
