<svg width="563" height="415" viewBox="0 0 563 415" fill="none" xmlns="http://www.w3.org/2000/svg">
<mask id="path-1-inside-1_830_3792" fill="white">
<path d="M332.37 98.4543C313.383 76.9673 289.662 60.1856 263.08 49.4325C236.498 38.6795 207.782 34.2492 179.195 36.4911C150.608 38.7329 122.933 47.5856 98.3524 62.351C73.7717 77.1164 52.9575 97.3907 37.5513 121.575L40.8776 123.694C55.9556 100.025 76.3263 80.1827 100.383 65.7319C124.44 51.2811 151.526 42.617 179.503 40.4229C207.481 38.2288 235.586 42.5647 261.601 53.0887C287.617 63.6126 310.832 80.0368 329.415 101.066L332.37 98.4543Z"/>
</mask>
<path d="M332.37 98.4543C313.383 76.9673 289.662 60.1856 263.08 49.4325C236.498 38.6795 207.782 34.2492 179.195 36.4911C150.608 38.7329 122.933 47.5856 98.3524 62.351C73.7717 77.1164 52.9575 97.3907 37.5513 121.575L40.8776 123.694C55.9556 100.025 76.3263 80.1827 100.383 65.7319C124.44 51.2811 151.526 42.617 179.503 40.4229C207.481 38.2288 235.586 42.5647 261.601 53.0887C287.617 63.6126 310.832 80.0368 329.415 101.066L332.37 98.4543Z" stroke="url(#paint0_linear_830_3792)" stroke-width="6" mask="url(#path-1-inside-1_830_3792)"/>
<ellipse cx="330.743" cy="98.7789" rx="5.75871" ry="5.75871" transform="rotate(30 330.743 98.7789)" fill="#E1F2FF"/>
<ellipse cx="38.7934" cy="124.01" rx="5.75871" ry="5.75871" transform="rotate(30 38.7934 124.01)" fill="#71AAFF"/>
<mask id="path-4-inside-2_830_3792" fill="white">
<path d="M18.167 162.191C9.90845 186.826 6.92866 212.923 9.42151 238.786C11.9144 264.648 19.824 289.696 32.6358 312.3C45.4477 334.904 62.8747 354.557 83.7832 369.981C104.692 385.406 128.613 396.256 153.992 401.825C179.37 407.395 205.636 407.559 231.082 402.307C256.528 397.055 280.584 386.506 301.683 371.344C322.783 356.182 340.455 336.748 353.548 314.306C366.642 291.864 374.864 266.917 377.68 241.088L373.759 240.661C371.003 265.94 362.956 290.355 350.142 312.319C337.327 334.282 320.032 353.302 299.382 368.141C278.732 382.98 255.189 393.305 230.285 398.445C205.381 403.584 179.675 403.424 154.837 397.973C129.999 392.522 106.588 381.903 86.1245 366.808C65.6615 351.712 48.6058 332.477 36.067 310.355C23.5281 288.233 15.787 263.719 13.3472 238.407C10.9075 213.096 13.8238 187.555 21.9064 163.445L18.167 162.191Z"/>
</mask>
<path d="M18.167 162.191C9.90845 186.826 6.92866 212.923 9.42151 238.786C11.9144 264.648 19.824 289.696 32.6358 312.3C45.4477 334.904 62.8747 354.557 83.7832 369.981C104.692 385.406 128.613 396.256 153.992 401.825C179.37 407.395 205.636 407.559 231.082 402.307C256.528 397.055 280.584 386.506 301.683 371.344C322.783 356.182 340.455 336.748 353.548 314.306C366.642 291.864 374.864 266.917 377.68 241.088L373.759 240.661C371.003 265.94 362.956 290.355 350.142 312.319C337.327 334.282 320.032 353.302 299.382 368.141C278.732 382.98 255.189 393.305 230.285 398.445C205.381 403.584 179.675 403.424 154.837 397.973C129.999 392.522 106.588 381.903 86.1245 366.808C65.6615 351.712 48.6058 332.477 36.067 310.355C23.5281 288.233 15.787 263.719 13.3472 238.407C10.9075 213.096 13.8238 187.555 21.9064 163.445L18.167 162.191Z" stroke="url(#paint1_linear_830_3792)" stroke-width="6" mask="url(#path-4-inside-2_830_3792)"/>
<ellipse cx="19.2636" cy="163.439" rx="5.75871" ry="5.75871" transform="rotate(-90 19.2636 163.439)" fill="#CBE5FF"/>
<ellipse cx="375.002" cy="244.178" rx="5.75871" ry="5.75871" transform="rotate(-90 375.002 244.178)" fill="#7CB1FF"/>
<path d="M193.5 63.4375C280.761 63.4375 351.5 134.176 351.5 221.437C351.5 308.698 280.761 379.437 193.5 379.437C106.239 379.437 35.5 308.698 35.5 221.438C35.5 134.177 106.239 63.4375 193.5 63.4375ZM193.5 363.637C272.035 363.637 335.7 299.972 335.7 221.437C335.7 142.903 272.035 79.2375 193.5 79.2375C114.965 79.2375 51.3 142.903 51.3 221.437C51.3 299.972 114.965 363.637 193.5 363.637Z" fill="#5698FF"/>
<path opacity="0.7" d="M44.5486 168.736C53.0872 144.603 67.3615 122.906 86.1432 105.513L96.8789 117.105C79.9753 132.76 67.1285 152.287 59.4437 174.006L44.5486 168.736Z" fill="white"/>
<path opacity="0.7" d="M339.119 160.125C349.052 183.718 353.105 209.371 350.927 234.876L335.185 233.533C337.144 210.577 333.497 187.49 324.557 166.256L339.119 160.125Z" fill="white"/>
<path opacity="0.7" d="M81.7771 109.715C88.1488 103.343 95.054 97.528 102.417 92.3333L111.525 105.244C104.899 109.919 98.6839 115.152 92.9494 120.887L81.7771 109.715Z" fill="white"/>
<path opacity="0.7" d="M117.029 359.277C88.4535 343.437 65.4884 319.131 51.2933 289.703C37.0982 260.275 32.3707 227.172 37.7611 194.947L53.3516 197.555C48.5003 226.557 52.7551 256.351 65.5307 282.835C78.3062 309.32 98.9748 331.196 124.693 345.452L117.029 359.277Z" fill="white"/>
<path d="M193 137.438C177.22 137.438 162.085 143.596 150.927 154.558C139.769 165.519 133.5 180.386 133.5 195.887C133.5 215.76 143.615 233.212 159 243.817V262.687C159 264.902 159.896 267.026 161.489 268.592C163.084 270.157 165.246 271.037 167.5 271.037H218.5C220.754 271.037 222.916 270.157 224.511 268.592C226.104 267.026 227 264.902 227 262.687V243.817C242.385 233.212 252.5 215.76 252.5 195.887C252.5 180.386 246.231 165.519 235.073 154.558C223.915 143.596 208.78 137.438 193 137.438ZM167.5 296.087C167.5 298.302 168.395 300.426 169.99 301.992C171.583 303.557 173.745 304.438 176 304.438H210C212.255 304.438 214.417 303.557 216.01 301.992C217.605 300.426 218.5 298.302 218.5 296.087V287.738H167.5V296.087Z" fill="#5698FF"/>
<mask id="path-13-inside-3_830_3792" fill="white">
<path d="M506.398 161.838C515.058 154.185 521.821 144.626 526.155 133.913C530.488 123.2 532.274 111.626 531.37 100.105C530.467 88.5839 526.899 77.4303 520.948 67.5238C514.998 57.6172 506.827 49.2286 497.08 43.0196L496.226 44.3602C505.765 50.4369 513.762 58.6468 519.586 68.3422C525.41 78.0377 528.902 88.9537 529.786 100.229C530.67 111.505 528.923 122.832 524.681 133.317C520.44 143.801 513.821 153.157 505.345 160.647L506.398 161.838Z"/>
</mask>
<path d="M506.398 161.838C515.058 154.185 521.821 144.626 526.155 133.913C530.488 123.2 532.274 111.626 531.37 100.105C530.467 88.5839 526.899 77.4303 520.948 67.5238C514.998 57.6172 506.827 49.2286 497.08 43.0196L496.226 44.3602C505.765 50.4369 513.762 58.6468 519.586 68.3422C525.41 78.0377 528.902 88.9537 529.786 100.229C530.67 111.505 528.923 122.832 524.681 133.317C520.44 143.801 513.821 153.157 505.345 160.647L506.398 161.838Z" stroke="url(#paint2_linear_830_3792)" stroke-width="6" mask="url(#path-13-inside-3_830_3792)"/>
<mask id="path-14-inside-4_830_3792" fill="white">
<path d="M480.712 35.2065C470.784 31.8781 460.266 30.6772 449.843 31.6819C439.419 32.6866 429.325 35.8743 420.215 41.0378C411.105 46.2012 403.184 53.2247 396.968 61.6512C390.752 70.0778 386.379 79.7187 384.134 89.9467C381.89 100.175 381.823 110.761 383.94 121.016C386.057 131.271 390.308 140.966 396.419 149.47C402.529 157.973 410.362 165.095 419.406 170.372C428.451 175.649 438.505 178.963 448.915 180.098L449.087 178.518C438.899 177.407 429.059 174.164 420.207 168.999C411.355 163.835 403.69 156.865 397.71 148.542C391.729 140.22 387.568 130.731 385.497 120.695C383.425 110.658 383.49 100.297 385.687 90.2874C387.884 80.2773 392.163 70.8419 398.247 62.5948C404.331 54.3478 412.083 47.474 420.999 42.4206C429.914 37.3671 439.794 34.2473 449.995 33.264C460.196 32.2808 470.49 33.4561 480.207 36.7136L480.712 35.2065Z"/>
</mask>
<path d="M480.712 35.2065C470.784 31.8781 460.266 30.6772 449.843 31.6819C439.419 32.6866 429.325 35.8743 420.215 41.0378C411.105 46.2012 403.184 53.2247 396.968 61.6512C390.752 70.0778 386.379 79.7187 384.134 89.9467C381.89 100.175 381.823 110.761 383.94 121.016C386.057 131.271 390.308 140.966 396.419 149.47C402.529 157.973 410.362 165.095 419.406 170.372C428.451 175.649 438.505 178.963 448.915 180.098L449.087 178.518C438.899 177.407 429.059 174.164 420.207 168.999C411.355 163.835 403.69 156.865 397.71 148.542C391.729 140.22 387.568 130.731 385.497 120.695C383.425 110.658 383.49 100.297 385.687 90.2874C387.884 80.2773 392.163 70.8419 398.247 62.5948C404.331 54.3478 412.083 47.474 420.999 42.4206C429.914 37.3671 439.794 34.2473 449.995 33.264C460.196 32.2808 470.49 33.4561 480.207 36.7136L480.712 35.2065Z" stroke="url(#paint3_linear_830_3792)" stroke-width="6" mask="url(#path-14-inside-4_830_3792)"/>
<path d="M520.706 105.937C520.706 141.121 492.183 169.644 456.999 169.644C421.815 169.644 393.293 141.121 393.293 105.937C393.293 70.7535 421.815 42.2312 456.999 42.2312C492.183 42.2312 520.706 70.7535 520.706 105.937ZM399.664 105.937C399.664 137.603 425.334 163.273 456.999 163.273C488.665 163.273 514.335 137.603 514.335 105.937C514.335 74.2719 488.665 48.6018 456.999 48.6018C425.334 48.6018 399.664 74.2719 399.664 105.937Z" fill="#5698FF"/>
<path opacity="0.7" d="M478.249 45.8796C487.979 49.3224 496.727 55.0779 503.741 62.6507L499.066 66.9794C492.755 60.1638 484.881 54.9839 476.124 51.8854L478.249 45.8796Z" fill="#F5FBFF"/>
<path opacity="0.7" d="M502.046 60.8903C504.615 63.4594 506.96 66.2436 509.055 69.2124L503.849 72.8849C501.964 70.213 499.854 67.7072 497.542 65.395L502.046 60.8903Z" fill="#F5FBFF"/>
<path opacity="0.7" d="M401.282 75.051C407.666 63.5343 417.462 54.2789 429.322 48.558C441.182 42.8371 454.523 40.9318 467.51 43.1042L466.459 49.3875C454.771 47.4323 442.764 49.1471 432.09 54.2959C421.416 59.4448 412.599 67.7747 406.854 78.1396L401.282 75.051Z" fill="#F5FBFF"/>
<path opacity="0.7" d="M474.558 167.176C461.901 170.805 448.429 170.423 435.998 166.082C423.566 161.741 412.785 153.655 405.138 142.935L410.324 139.236C417.207 148.883 426.91 156.161 438.098 160.068C449.286 163.975 461.411 164.319 472.803 161.052L474.558 167.176Z" fill="#F5FBFF"/>
<path d="M457.5 117.688C454.251 117.688 451.135 116.397 448.838 114.1C446.541 111.802 445.25 108.686 445.25 105.438C445.25 102.189 446.541 99.0728 448.838 96.7754C451.135 94.4781 454.251 93.1875 457.5 93.1875C460.749 93.1875 463.865 94.4781 466.162 96.7754C468.459 99.0728 469.75 102.189 469.75 105.438C469.75 108.686 468.459 111.802 466.162 114.1C463.865 116.397 460.749 117.688 457.5 117.688ZM483.505 108.833C483.645 107.713 483.75 106.592 483.75 105.438C483.75 104.283 483.645 103.127 483.505 101.938L490.89 96.2325C491.555 95.7075 491.73 94.7625 491.31 93.9925L484.31 81.8825C483.89 81.1125 482.945 80.7975 482.175 81.1125L473.46 84.6125C471.64 83.2475 469.75 82.0575 467.545 81.1825L466.25 71.9075C466.11 71.0675 465.375 70.4375 464.5 70.4375H450.5C449.625 70.4375 448.89 71.0675 448.75 71.9075L447.455 81.1825C445.25 82.0575 443.36 83.2475 441.54 84.6125L432.825 81.1125C432.055 80.7975 431.11 81.1125 430.69 81.8825L423.69 93.9925C423.235 94.7625 423.445 95.7075 424.11 96.2325L431.495 101.938C431.355 103.127 431.25 104.283 431.25 105.438C431.25 106.592 431.355 107.713 431.495 108.833L424.11 114.643C423.445 115.167 423.235 116.113 423.69 116.882L430.69 128.993C431.11 129.762 432.055 130.043 432.825 129.763L441.54 126.228C443.36 127.628 445.25 128.818 447.455 129.693L448.75 138.967C448.89 139.808 449.625 140.438 450.5 140.438H464.5C465.375 140.438 466.11 139.808 466.25 138.967L467.545 129.693C469.75 128.783 471.64 127.628 473.46 126.228L482.175 129.763C482.945 130.043 483.89 129.762 484.31 128.993L491.31 116.882C491.73 116.113 491.555 115.167 490.89 114.643L483.505 108.833Z" fill="#5698FF"/>
<ellipse cx="450.175" cy="179.018" rx="2.77231" ry="2.77231" transform="rotate(30 450.175 179.018)" fill="#CCEAFF"/>
<ellipse cx="505.109" cy="161.538" rx="2.77231" ry="2.77231" transform="rotate(30 505.109 161.538)" fill="#C3E6FF"/>
<ellipse cx="481.388" cy="36.686" rx="2.77231" ry="2.77231" transform="rotate(30 481.388 36.686)" fill="#96D2FF"/>
<ellipse cx="496.37" cy="42.9286" rx="2.77231" ry="2.77231" transform="rotate(30 496.37 42.9286)" fill="#E0F3FF"/>
<defs>
<linearGradient id="paint0_linear_830_3792" x1="316.14" y1="-3.42191" x2="-33.9362" y2="90.3808" gradientUnits="userSpaceOnUse">
<stop stop-color="#E7F6FF"/>
<stop offset="1" stop-color="#5497FF"/>
</linearGradient>
<linearGradient id="paint1_linear_830_3792" x1="-97.7203" y1="191.41" x2="326.3" y2="558.422" gradientUnits="userSpaceOnUse">
<stop stop-color="#DEF1FF"/>
<stop offset="1" stop-color="#5396FF"/>
</linearGradient>
<linearGradient id="paint2_linear_830_3792" x1="547.456" y1="155.297" x2="509.652" y2="14.2087" gradientUnits="userSpaceOnUse">
<stop stop-color="#C0E4FF"/>
<stop offset="1" stop-color="#E7F6FF"/>
</linearGradient>
<linearGradient id="paint3_linear_830_3792" x1="468.936" y1="-11.4985" x2="321.022" y2="159.391" gradientUnits="userSpaceOnUse">
<stop stop-color="#89CCFF"/>
<stop offset="1" stop-color="#E7F6FF"/>
</linearGradient>
</defs>
</svg>
