<svg width="50" height="50" viewBox="0 0 50 50" fill="none" xmlns="http://www.w3.org/2000/svg">
<g clip-path="url(#clip0_1402_19265)">
<path d="M25 49.2188C38.3756 49.2188 49.2188 38.3756 49.2188 25C49.2188 11.6244 38.3756 0.78125 25 0.78125C11.6244 0.78125 0.78125 11.6244 0.78125 25C0.78125 38.3756 11.6244 49.2188 25 49.2188Z" fill="url(#paint0_linear_1402_19265)"/>
<path d="M30.0573 16.3854C31.2649 16.389 32.422 16.8703 33.2758 17.7242C34.1297 18.578 34.611 19.7351 34.6146 20.9427V30.0573C34.611 31.2649 34.1297 32.422 33.2758 33.2758C32.422 34.1297 31.2649 34.611 30.0573 34.6146H20.9427C19.7352 34.6107 18.5783 34.1294 17.7245 33.2755C16.8706 32.4217 16.3893 31.2648 16.3854 30.0573V20.9427C16.389 19.7351 16.8703 18.578 17.7242 17.7242C18.578 16.8703 19.7351 16.389 20.9427 16.3854H30.0573ZM30.0573 14.5625H20.9427C17.4333 14.5625 14.5625 17.4333 14.5625 20.9427V30.0573C14.5625 33.5667 17.4333 36.4375 20.9427 36.4375H30.0573C33.5667 36.4375 36.4375 33.5667 36.4375 30.0573V20.9427C36.4375 17.4333 33.5667 14.5625 30.0573 14.5625Z" fill="white"/>
<path d="M31.425 20.9429C31.2423 20.9479 31.0604 20.9163 30.8901 20.8499C30.7198 20.7834 30.5646 20.6835 30.4336 20.5561C30.3025 20.4286 30.1984 20.2762 30.1273 20.1078C30.0562 19.9394 30.0195 19.7585 30.0195 19.5757C30.0195 19.3929 30.0562 19.212 30.1273 19.0436C30.1984 18.8752 30.3025 18.7228 30.4336 18.5953C30.5646 18.4679 30.7198 18.368 30.8901 18.3016C31.0604 18.2351 31.2423 18.2035 31.425 18.2085C31.781 18.2184 32.1192 18.3667 32.3676 18.622C32.616 18.8774 32.7549 19.2195 32.7549 19.5757C32.7549 19.9319 32.616 20.2741 32.3676 20.5294C32.1192 20.7847 31.781 20.9331 31.425 20.9429Z" fill="white"/>
<path d="M25.5 21.8542C25.9788 21.8542 26.4529 21.9485 26.8952 22.1317C27.3375 22.3149 27.7394 22.5835 28.078 22.922C28.4165 23.2606 28.6851 23.6625 28.8683 24.1048C29.0515 24.5471 29.1458 25.0212 29.1458 25.5C29.1458 25.9788 29.0515 26.4529 28.8683 26.8952C28.6851 27.3375 28.4165 27.7394 28.078 28.078C27.7394 28.4165 27.3375 28.6851 26.8952 28.8683C26.4529 29.0515 25.9788 29.1458 25.5 29.1458C24.5331 29.1458 23.6057 28.7617 22.922 28.078C22.2383 27.3943 21.8542 26.4669 21.8542 25.5C21.8542 24.5331 22.2383 23.6057 22.922 22.922C23.6057 22.2383 24.5331 21.8542 25.5 21.8542ZM25.5 20.0312C24.0496 20.0312 22.6586 20.6074 21.633 21.633C20.6074 22.6586 20.0312 24.0496 20.0312 25.5C20.0312 26.9504 20.6074 28.3414 21.633 29.367C22.6586 30.3926 24.0496 30.9687 25.5 30.9687C26.9504 30.9687 28.3414 30.3926 29.367 29.367C30.3926 28.3414 30.9687 26.9504 30.9687 25.5C30.9687 24.0496 30.3926 22.6586 29.367 21.633C28.3414 20.6074 26.9504 20.0312 25.5 20.0312Z" fill="white"/>
</g>
<defs>
<linearGradient id="paint0_linear_1402_19265" x1="6" y1="4.5" x2="42.5" y2="49" gradientUnits="userSpaceOnUse">
<stop stop-color="#4F5BD5"/>
<stop offset="0.239583" stop-color="#800080"/>
<stop offset="0.494792" stop-color="#D62976"/>
<stop offset="0.739583" stop-color="#FA7E1E"/>
<stop offset="1" stop-color="#FEDA75"/>
</linearGradient>
<clipPath id="clip0_1402_19265">
<rect width="50" height="50" fill="white"/>
</clipPath>
</defs>
</svg>
