<svg width="387" height="387" viewBox="0 0 387 387" fill="none" xmlns="http://www.w3.org/2000/svg">
<mask id="path-1-inside-1_952_15456" fill="white">
<path d="M332.37 71.0161C313.383 49.5291 289.662 32.7474 263.08 21.9943C236.498 11.2413 207.782 6.81098 179.195 9.05284C150.608 11.2947 122.933 20.1474 98.3524 34.9128C73.7717 49.6782 52.9575 69.9525 37.5513 94.1367L40.8776 96.2557C55.9556 72.5867 76.3263 52.7444 100.383 38.2937C124.44 23.8429 151.526 15.1788 179.503 12.9847C207.481 10.7906 235.586 15.1265 261.601 25.6504C287.617 36.1744 310.832 52.5985 329.415 73.6277L332.37 71.0161Z"/>
</mask>
<path d="M332.37 71.0161C313.383 49.5291 289.662 32.7474 263.08 21.9943C236.498 11.2413 207.782 6.81098 179.195 9.05284C150.608 11.2947 122.933 20.1474 98.3524 34.9128C73.7717 49.6782 52.9575 69.9525 37.5513 94.1367L40.8776 96.2557C55.9556 72.5867 76.3263 52.7444 100.383 38.2937C124.44 23.8429 151.526 15.1788 179.503 12.9847C207.481 10.7906 235.586 15.1265 261.601 25.6504C287.617 36.1744 310.832 52.5985 329.415 73.6277L332.37 71.0161Z" stroke="url(#paint0_linear_952_15456)" stroke-width="6" mask="url(#path-1-inside-1_952_15456)"/>
<ellipse cx="330.743" cy="71.3411" rx="5.75871" ry="5.75871" transform="rotate(30 330.743 71.3411)" fill="#E1F2FF"/>
<ellipse cx="38.7934" cy="96.5716" rx="5.75871" ry="5.75871" transform="rotate(30 38.7934 96.5716)" fill="#71AAFF"/>
<mask id="path-4-inside-2_952_15456" fill="white">
<path d="M18.167 134.753C9.90845 159.388 6.92866 185.486 9.42151 211.348C11.9144 237.21 19.824 262.258 32.6358 284.862C45.4477 307.466 62.8747 327.119 83.7832 342.544C104.692 357.968 128.613 368.818 153.992 374.387C179.37 379.957 205.636 380.121 231.082 374.869C256.528 369.618 280.584 359.068 301.683 343.906C322.783 328.744 340.455 309.31 353.548 286.869C366.642 264.427 374.864 239.48 377.68 213.65L373.759 213.223C371.003 238.502 362.956 262.917 350.142 284.881C337.327 306.845 320.032 325.865 299.382 340.703C278.732 355.542 255.189 365.867 230.285 371.007C205.381 376.147 179.675 375.986 154.837 370.535C129.999 365.084 106.588 354.466 86.1245 339.37C65.6615 324.274 48.6058 305.04 36.067 282.917C23.5281 260.795 15.787 236.281 13.3472 210.97C10.9075 185.658 13.8238 160.117 21.9064 136.007L18.167 134.753Z"/>
</mask>
<path d="M18.167 134.753C9.90845 159.388 6.92866 185.486 9.42151 211.348C11.9144 237.21 19.824 262.258 32.6358 284.862C45.4477 307.466 62.8747 327.119 83.7832 342.544C104.692 357.968 128.613 368.818 153.992 374.387C179.37 379.957 205.636 380.121 231.082 374.869C256.528 369.618 280.584 359.068 301.683 343.906C322.783 328.744 340.455 309.31 353.548 286.869C366.642 264.427 374.864 239.48 377.68 213.65L373.759 213.223C371.003 238.502 362.956 262.917 350.142 284.881C337.327 306.845 320.032 325.865 299.382 340.703C278.732 355.542 255.189 365.867 230.285 371.007C205.381 376.147 179.675 375.986 154.837 370.535C129.999 365.084 106.588 354.466 86.1245 339.37C65.6615 324.274 48.6058 305.04 36.067 282.917C23.5281 260.795 15.787 236.281 13.3472 210.97C10.9075 185.658 13.8238 160.117 21.9064 136.007L18.167 134.753Z" stroke="url(#paint1_linear_952_15456)" stroke-width="6" mask="url(#path-4-inside-2_952_15456)"/>
<ellipse cx="19.2636" cy="136.001" rx="5.75871" ry="5.75871" transform="rotate(-90 19.2636 136.001)" fill="#CBE5FF"/>
<ellipse cx="375.002" cy="216.739" rx="5.75871" ry="5.75871" transform="rotate(-90 375.002 216.739)" fill="#7CB1FF"/>
<path d="M193.5 36C280.761 36 351.5 106.739 351.5 194C351.5 281.261 280.761 352 193.5 352C106.239 352 35.5 281.261 35.5 194C35.5 106.739 106.239 36 193.5 36ZM193.5 336.2C272.035 336.2 335.7 272.535 335.7 194C335.7 115.465 272.035 51.8 193.5 51.8C114.965 51.8 51.3 115.465 51.3 194C51.3 272.535 114.965 336.2 193.5 336.2Z" fill="#5698FF"/>
<path opacity="0.7" d="M44.5486 141.298C53.0872 117.166 67.3615 95.469 86.1432 78.0754L96.8789 89.6678C79.9753 105.322 67.1285 124.849 59.4437 146.568L44.5486 141.298Z" fill="white"/>
<path opacity="0.7" d="M339.119 132.688C349.052 156.28 353.105 181.933 350.927 207.439L335.185 206.095C337.144 183.14 333.497 160.052 324.557 138.819L339.119 132.688Z" fill="white"/>
<path opacity="0.7" d="M81.7771 82.2771C88.1488 75.9054 95.054 70.0905 102.417 64.8958L111.525 77.8062C104.899 82.4814 98.6839 87.7149 92.9494 93.4494L81.7771 82.2771Z" fill="white"/>
<path opacity="0.7" d="M117.029 331.839C88.4535 315.998 65.4884 291.692 51.2933 262.265C37.0982 232.837 32.3707 199.734 37.7611 167.509L53.3516 170.117C48.5003 199.119 52.7551 228.912 65.5307 255.397C78.3062 281.882 98.9748 303.757 124.693 318.014L117.029 331.839Z" fill="white"/>
<g clip-path="url(#clip0_952_15456)">
<path d="M220.92 118.162C191.703 120.797 162.156 129.682 140.096 142.606C123.882 152.072 110.465 165.898 104.457 179.152C98.4479 192.652 98.5315 208.615 104.87 221.125C112.031 235.364 125.034 247.712 143.061 257.42C150.055 261.207 165.86 267.872 167.751 267.872C168.328 267.872 164.87 265.897 160.097 263.429C148.823 257.75 141.332 252.731 134.087 245.979C124.621 237.256 119.602 230.094 115.405 219.313C113.268 213.797 113.017 212.152 113.017 203.675C113.017 193.14 114.583 186.801 119.435 178.162C135.486 149.275 178.529 127.215 229.889 121.289C239.518 120.221 263.224 119.891 275.567 120.713L284.21 121.289L278.861 120.221C265.858 117.506 238.942 116.6 220.92 118.162Z" fill="#797979"/>
<path d="M214.257 147.212C193.925 151.33 178.947 163.264 175.49 177.995C173.924 184.413 174.091 188.368 175.982 195.771C181.085 215.852 204.953 239.064 235.243 253.633C244.956 258.243 247.837 258.899 239.361 254.456C215.163 241.862 195.988 224.579 187.177 207.129C176.805 186.551 184.626 165.155 206.519 154.453C215.902 149.926 225.122 147.705 237.711 146.962L248 146.302H233.598C225.284 146.218 217.138 146.632 214.257 147.208V147.212Z" fill="#797979"/>
<path d="M234.2 164.27C229.59 166.474 225.183 172.184 223.881 177.797L223.08 181.404L227.29 178.901C232.898 175.593 243.618 174.093 258.649 174.594C270.372 174.894 271.274 174.995 273.077 177.3C275.483 180.203 275.483 182.609 273.077 185.517C271.172 187.822 270.574 187.923 253.238 188.42C234.504 188.921 233.303 189.22 228.693 194.13C225.187 197.838 223.885 201.445 223.885 207.555C223.885 214.065 226.788 219.779 232.102 223.184C236.109 225.889 236.712 225.99 252.438 226.289C270.271 226.69 275.18 225.889 279.988 221.781C286.498 216.37 287.202 213.366 286.801 193.025C286.502 175.593 286.401 174.59 284.096 171.185C282.794 169.281 280.089 166.575 278.184 165.273C274.78 162.968 273.777 162.867 256.542 162.568C240.411 162.366 237.909 162.568 234.2 164.27ZM273.073 203.341C275.479 206.345 275.479 208.949 272.972 211.457C271.168 213.26 269.664 213.462 255.24 213.462C242.017 213.462 239.312 213.163 237.706 211.76C235.3 209.556 235.401 204.946 238.005 202.342C239.91 200.437 241.01 200.336 255.636 200.64C270.565 200.939 271.265 201.04 273.068 203.345L273.073 203.341Z" fill="#5698FF"/>
<path d="M168.183 158.033C173.681 158.033 178.138 156.367 178.138 154.311C178.138 152.256 173.681 150.59 168.183 150.59C162.685 150.59 158.229 152.256 158.229 154.311C158.229 156.367 162.685 158.033 168.183 158.033Z" fill="#797979"/>
<path d="M151.088 178.689C157.155 178.689 162.072 176.562 162.072 173.938C162.072 171.314 157.155 169.188 151.088 169.188C145.022 169.188 140.104 171.314 140.104 173.938C140.104 176.562 145.022 178.689 151.088 178.689Z" fill="#797979"/>
<path d="M146.756 203.327C153.796 203.327 159.503 200.745 159.503 197.56C159.503 194.375 153.796 191.793 146.756 191.793C139.715 191.793 134.008 194.375 134.008 197.56C134.008 200.745 139.715 203.327 146.756 203.327Z" fill="#797979"/>
<path d="M156.768 232.923C164.652 232.923 171.043 229.883 171.043 226.132C171.043 222.381 164.652 219.34 156.768 219.34C148.885 219.34 142.494 222.381 142.494 226.132C142.494 229.883 148.885 232.923 156.768 232.923Z" fill="#797979"/>
</g>
<defs>
<linearGradient id="paint0_linear_952_15456" x1="316.14" y1="-30.8601" x2="-33.9362" y2="62.9426" gradientUnits="userSpaceOnUse">
<stop stop-color="#E7F6FF"/>
<stop offset="1" stop-color="#5497FF"/>
</linearGradient>
<linearGradient id="paint1_linear_952_15456" x1="-97.7203" y1="163.972" x2="326.3" y2="530.985" gradientUnits="userSpaceOnUse">
<stop stop-color="#DEF1FF"/>
<stop offset="1" stop-color="#5396FF"/>
</linearGradient>
<clipPath id="clip0_952_15456">
<rect width="186.95" height="150" fill="white" transform="translate(100 118)"/>
</clipPath>
</defs>
</svg>
