<svg width="37" height="30" viewBox="0 0 37 30" fill="none" xmlns="http://www.w3.org/2000/svg">
<path d="M24.1017 0.152215C18.2767 0.677537 12.3859 2.44908 7.98775 5.0257C4.75513 6.913 2.08029 9.66941 0.882306 12.3118C-0.315675 15.0033 -0.299011 18.1859 0.964744 20.6801C2.3925 23.519 4.98491 25.9807 8.57885 27.9163C9.97328 28.6713 13.1243 30 13.5014 30C13.6163 30 12.927 29.6062 11.9755 29.1142C9.72772 27.982 8.23419 26.9814 6.78977 25.6352C4.90247 23.8961 3.90181 22.4683 3.06516 20.3188C2.63894 19.2191 2.58895 18.8911 2.58895 17.2011C2.58895 15.1007 2.90116 13.8369 3.86849 12.1145C7.06866 6.35523 15.6501 1.95708 25.8899 0.775761C27.8097 0.562651 32.5358 0.496875 34.9967 0.660874L36.72 0.775761L35.6536 0.562651C33.0612 0.0215422 27.6948 -0.15912 24.1017 0.152215Z" fill="#0A121E"/>
<path d="M22.7732 5.94394C18.7198 6.76481 15.7336 9.14411 15.0443 12.0812C14.732 13.3607 14.7654 14.1491 15.1425 15.6251C16.1598 19.6286 20.9184 24.2566 26.9574 27.1612C28.8938 28.0803 29.4683 28.2109 27.7783 27.3252C22.9539 24.8143 19.1311 21.3686 17.3744 17.8895C15.3065 13.7869 16.8658 9.52121 21.2306 7.38748C23.1012 6.48504 24.9394 6.04216 27.4494 5.89395L29.5007 5.7624H26.6294C24.9719 5.74573 23.3477 5.82817 22.7732 5.94306V5.94394Z" fill="#0A121E"/>
<path d="M13.5877 8.10128C14.6838 8.10128 15.5723 7.76911 15.5723 7.35934C15.5723 6.94958 14.6838 6.6174 13.5877 6.6174C12.4916 6.6174 11.603 6.94958 11.603 7.35934C11.603 7.76911 12.4916 8.10128 13.5877 8.10128Z" fill="#0A121E"/>
<path d="M10.1791 12.2198C11.3886 12.2198 12.369 11.7957 12.369 11.2726C12.369 10.7495 11.3886 10.3254 10.1791 10.3254C8.96969 10.3254 7.98926 10.7495 7.98926 11.2726C7.98926 11.7957 8.96969 12.2198 10.1791 12.2198Z" fill="#0A121E"/>
<path d="M9.31547 17.1318C10.7191 17.1318 11.857 16.6171 11.857 15.9821C11.857 15.3471 10.7191 14.8323 9.31547 14.8323C7.91181 14.8323 6.77393 15.3471 6.77393 15.9821C6.77393 16.6171 7.91181 17.1318 9.31547 17.1318Z" fill="#0A121E"/>
<path d="M11.3117 23.0322C12.8834 23.0322 14.1575 22.426 14.1575 21.6782C14.1575 20.9303 12.8834 20.3241 11.3117 20.3241C9.73996 20.3241 8.46582 20.9303 8.46582 21.6782C8.46582 22.426 9.73996 23.0322 11.3117 23.0322Z" fill="#0A121E"/>
</svg>
