<svg width="326" height="100" viewBox="0 0 326 100" fill="none" xmlns="http://www.w3.org/2000/svg">
<g clip-path="url(#clip0_969_6325)">
<path d="M325.346 0.765625H0V99.7656H325.346V0.765625Z" fill="white"/>
<path d="M255.43 42.8884C261.324 38.6452 264.693 28.4855 256.207 28.4855C249.931 28.4855 246.403 30.8042 242.925 35.1092L249.541 40.7358C252.037 38.0732 253.626 36.9989 255.345 36.9989C257.065 36.9989 258.054 37.9496 258.054 39.2364C258.054 40.3958 257.32 41.559 255.43 42.8922V42.8884Z" fill="url(#paint0_linear_969_6325)"/>
<path d="M268.333 51.2395H242.986V59.1385H268.333V51.2395Z" fill="url(#paint1_linear_969_6325)"/>
<path d="M255.43 42.8884L242.959 51.2396L256.589 51.255L261.964 47.835C265.574 45.5124 268.024 43.0198 268.024 38.4211V38.3361C268.024 32.6167 263.081 28.4933 256.206 28.4933C264.697 28.4933 261.323 38.653 255.43 42.8962V42.8884Z" fill="url(#paint2_linear_969_6325)"/>
<path d="M193.961 42.8884C199.855 38.6452 203.228 28.4855 194.734 28.4855C188.458 28.4855 184.934 30.8042 181.448 35.1092L188.068 40.7358C190.561 38.0732 192.153 36.9989 193.873 36.9989C195.592 36.9989 196.585 37.9496 196.585 39.2364C196.585 40.3958 195.851 41.559 193.961 42.8922V42.8884Z" fill="url(#paint3_linear_969_6325)"/>
<path d="M206.861 51.2395H181.518V59.1385H206.861V51.2395Z" fill="url(#paint4_linear_969_6325)"/>
<path d="M225.376 59.78C216.089 59.78 208.994 52.9012 208.994 44.1752V44.0902C208.994 35.3642 216.174 28.3966 225.457 28.3966H225.341C219.007 28.3966 215.027 33.6639 215.027 39.4992V39.6422C215.027 45.5471 219.08 50.8801 225.488 50.8801H225.457C229.286 50.8801 231.694 47.6996 231.694 44.1714V44.0864C231.694 40.5194 229.244 37.2926 225.376 37.2926H225.345C231.748 37.2926 235.806 42.6295 235.806 48.5344V48.6773C235.806 54.5088 231.822 59.7761 225.492 59.7761" fill="url(#paint5_linear_969_6325)"/>
<path d="M225.458 28.4005C234.744 28.4005 241.843 35.2793 241.843 44.0052V44.0903C241.843 52.8162 234.659 59.78 225.376 59.78H225.488C231.818 59.78 235.803 54.5127 235.803 48.6813V48.5383C235.803 42.6334 231.749 37.2965 225.342 37.2965H225.373C221.543 37.2965 219.135 40.4808 219.135 44.0052V44.0903C219.135 47.6572 221.585 50.884 225.454 50.884H225.485C219.077 50.884 215.023 45.5472 215.023 39.6461V39.5031C215.023 33.6678 219.008 28.4005 225.338 28.4005" fill="url(#paint6_linear_969_6325)"/>
<path d="M286.663 59.78C277.376 59.78 270.281 52.9012 270.281 44.1752V44.0902C270.281 35.3642 277.461 28.3966 286.748 28.3966H286.632C280.298 28.3966 276.318 33.6639 276.318 39.4992V39.6422C276.318 45.5471 280.368 50.8801 286.779 50.8801H286.748C290.574 50.8801 292.981 47.6996 292.981 44.1714V44.0864C292.981 40.5194 290.527 37.2926 286.663 37.2926H286.632C293.035 37.2926 297.093 42.6295 297.093 48.5344V48.6773C297.093 54.5088 293.109 59.7761 286.779 59.7761" fill="url(#paint7_linear_969_6325)"/>
<path d="M286.748 28.4005C296.034 28.4005 303.125 35.2793 303.125 44.0052V44.0903C303.125 52.8162 295.945 59.78 286.659 59.78H286.775C293.108 59.78 297.089 54.5127 297.089 48.6813V48.5383C297.089 42.6334 293.035 37.2965 286.628 37.2965H286.655C282.829 37.2965 280.425 40.4808 280.425 44.0052V44.0903C280.425 47.6572 282.871 50.884 286.744 50.884H286.775C280.367 50.884 276.313 45.5472 276.313 39.6461V39.5031C276.313 33.6678 280.294 28.4005 286.628 28.4005" fill="url(#paint8_linear_969_6325)"/>
<path d="M193.962 42.8884L181.495 51.2396L195.121 51.255L200.493 47.835C204.102 45.5124 206.556 43.0198 206.556 38.4211V38.3361C206.556 32.6167 201.614 28.4933 194.731 28.4933C203.225 28.4933 199.851 38.653 193.958 42.8962L193.962 42.8884Z" fill="url(#paint9_linear_969_6325)"/>
<path d="M176.151 28.9802H150.518V36.8908H176.151V28.9802Z" fill="url(#paint10_linear_969_6325)"/>
<path d="M148.187 28.9802H120.366V36.8908H148.187V28.9802Z" fill="url(#paint11_linear_969_6325)"/>
<path d="M170.512 40.0944H150.518V48.0088H170.512V40.0944Z" fill="url(#paint12_linear_969_6325)"/>
<path d="M102.988 50.4975V43.3135H105.523C111.39 43.3135 114.941 40.6972 114.941 36.1912V35.9826C114.941 31.2756 111.281 28.9724 105.628 28.9724L105.485 28.9801C110.822 28.9801 114.218 30.3095 116.328 32.4234C118.137 34.232 119.08 36.4695 119.08 39.5649V39.6499C119.08 44.04 116.676 47.2861 113.144 48.859C109.608 50.4318 102.988 50.4936 102.988 50.4936V50.4975Z" fill="url(#paint13_linear_969_6325)"/>
<path d="M113.144 48.8629C109.608 50.4358 102.988 50.4976 102.988 50.4976L108.673 59.1038H120.158L113.144 48.8629Z" fill="url(#paint14_linear_969_6325)"/>
<path d="M52.3442 59.1038H42.3623L22.2207 28.9802H32.2065L52.3442 59.1038Z" fill="url(#paint15_linear_969_6325)"/>
<path d="M71.5122 59.7491C62.2181 59.7491 55.1152 52.8626 55.1152 44.1251V44.04C55.1152 35.3025 62.3032 28.3348 71.5972 28.3348H71.4774C65.1435 28.3348 61.1515 33.6021 61.1515 39.4452V39.5882C61.1515 45.5008 65.2092 50.8415 71.6165 50.8415H71.5933C75.4192 50.8415 77.8345 47.6572 77.8345 44.1289V44.0439C77.8345 40.4693 75.3805 37.2463 71.5083 37.2463H71.4774C77.8924 37.2463 81.9501 42.587 81.9501 48.4958V48.6426C81.9501 54.4818 77.962 59.753 71.6204 59.753" fill="url(#paint16_linear_969_6325)"/>
<path d="M71.5932 28.3348C80.8911 28.3348 87.9902 35.2174 87.9902 43.955V44.04C87.9902 52.7737 80.8022 59.7491 71.5082 59.7491H71.6203C77.9619 59.7491 81.95 54.4741 81.95 48.6387V48.4919C81.95 42.5792 77.8923 37.2424 71.4773 37.2424H71.5082C67.6824 37.2424 65.2671 40.4267 65.2671 43.955V44.04C65.2671 47.6108 67.721 50.8376 71.5932 50.8376H71.6203C65.213 50.8376 61.1553 45.4969 61.1553 39.5843V39.4413C61.1553 33.5982 65.1434 28.3309 71.4811 28.3309" fill="url(#paint17_linear_969_6325)"/>
<path d="M90.7686 37.0028H105.222C107.544 37.0028 109.051 38.1544 109.051 40.0944V40.1794C109.051 42.0343 107.591 43.3135 105.183 43.3135H105.523C111.389 43.3135 114.941 40.6972 114.941 36.1912V35.9826C114.941 31.2756 111.281 28.9724 105.627 28.9724L90.7686 28.9801V37.0028Z" fill="url(#paint18_linear_969_6325)"/>
<path d="M176.151 51.2318H150.518V59.1424H176.151V51.2318Z" fill="url(#paint19_linear_969_6325)"/>
<path d="M22.2246 28.9879H22.2207V59.1153H32.2065V43.9125L22.2246 28.9879Z" fill="url(#paint20_linear_969_6325)"/>
<path d="M42.3623 28.9802V44.1715L52.3442 59.1038V28.9802H42.3623Z" fill="url(#paint21_linear_969_6325)"/>
<path d="M100.747 37.0028H90.7686V59.1037H100.747V37.0028Z" fill="url(#paint22_linear_969_6325)"/>
<path d="M139.322 36.8907H129.34V59.1037H139.322V36.8907Z" fill="url(#paint23_linear_969_6325)"/>
<path d="M160.5 36.8907H150.518V40.0944H160.5V36.8907Z" fill="url(#paint24_linear_969_6325)"/>
<path d="M160.5 48.0088H150.518V51.2124H160.5V48.0088Z" fill="url(#paint25_linear_969_6325)"/>
<path d="M22.2207 67.424H24.0254C25.0418 67.424 25.606 68.0268 25.606 68.8461C25.606 69.6653 25.0456 70.2605 24.0254 70.2605H23.1018V71.8063H23.5887V72.1386H22.2207V71.8063H22.6458V67.7563H22.2207V67.424ZM23.9829 69.8972C24.7519 69.8972 25.1345 69.4798 25.1345 68.8422C25.1345 68.2046 24.7481 67.7795 23.9829 67.7795H23.1018V69.8933H23.9829V69.8972Z" fill="#575756"/>
<path d="M27.8045 70.2064H26.7727V71.8063H27.2596V72.1386H25.8916V71.8063H26.3128V67.7563H25.8916V67.424H27.7195C28.7397 67.424 29.2923 68.0345 29.2923 68.8306C29.2923 69.4683 28.9368 69.959 28.2605 70.1252L29.3078 71.8024H29.7445V72.1347H29.0025L27.8045 70.1986V70.2064ZM27.6577 69.847C28.4615 69.847 28.8209 69.4528 28.8209 68.8267C28.8209 68.2007 28.4537 67.7872 27.6577 67.7872H26.7688V69.847H27.6577Z" fill="#575756"/>
<path d="M29.9648 69.7812C29.9648 68.3861 31.0469 67.3698 32.384 67.3698C33.7211 67.3698 34.8109 68.39 34.8109 69.7812C34.8109 71.1724 33.7288 72.1926 32.384 72.1926C31.0392 72.1926 29.9648 71.1724 29.9648 69.7812ZM34.3317 69.7812C34.3317 68.6296 33.5047 67.7639 32.384 67.7639C31.2633 67.7639 30.4363 68.6296 30.4363 69.7812C30.4363 70.9328 31.2594 71.7984 32.384 71.7984C33.5086 71.7984 34.3317 70.9328 34.3317 69.7812Z" fill="#575756"/>
<path d="M39.275 71.6168C38.9349 71.9569 38.4209 72.1926 37.7369 72.1926C36.4346 72.1926 35.3525 71.2651 35.3525 69.7812C35.3525 68.3861 36.4269 67.3698 37.7215 67.3698C38.3746 67.3698 38.8731 67.5823 39.1513 67.9649V67.4239H39.5262V68.6373H39.1745C39.0006 68.0615 38.5021 67.7717 37.7524 67.7717C36.6278 67.7717 35.824 68.6296 35.824 69.7812C35.824 70.9328 36.6626 71.7984 37.7756 71.7984C38.5098 71.7984 38.9697 71.5125 39.2518 71.2304V70.2372H37.8297V69.8778H39.6807V72.1385H39.2711V71.6168H39.275Z" fill="#575756"/>
<path d="M42.2615 70.2064H41.2297V71.8063H41.7128V72.1386H40.3486V71.8063H40.7699V67.7563H40.3486V67.424H42.1765C43.1967 67.424 43.7494 68.0345 43.7494 68.8306C43.7494 69.4683 43.3938 69.959 42.7176 70.1252L43.7648 71.8024H44.2015V72.1347H43.4595L42.2615 70.1986V70.2064ZM42.1147 69.847C42.9185 69.847 43.2779 69.4528 43.2779 68.8267C43.2779 68.2007 42.9108 67.7872 42.1147 67.7872H41.2297V69.847H42.1147Z" fill="#575756"/>
<path d="M48.994 72.1386H47.7033V71.8063H48.1554L47.8153 70.8711H45.7015L45.3537 71.8063H45.8097V72.1386H44.5537V71.8063H44.9131L46.3893 67.7563H46.0493V67.424H47.4907V67.7563H47.1468L48.623 71.8063H48.9901V72.1386H48.994ZM45.829 70.4885H47.6917L46.7642 67.8606L45.829 70.4885Z" fill="#575756"/>
<path d="M54.6435 72.1385H53.2987V71.8062H53.774V68.1349L52.1046 70.7125H51.9191L50.2496 68.1079V71.81H50.7327V72.1424H49.4188V71.81H49.84V67.7601H49.4033V67.4277H50.3037L52.0234 70.1097L53.7508 67.4277H54.659V67.7601H54.2223V71.81H54.6435V72.1424V72.1385Z" fill="#575756"/>
<path d="M59.5048 72.1386H58.2179V71.8063H58.6701L58.33 70.8711H56.2162L55.8684 71.8063H56.3244V72.1386H55.0723V71.8063H55.4317L56.9079 67.7563H56.5678V67.424H58.0093V67.7563H57.6615L59.1377 71.8063H59.5048V72.1386ZM56.3398 70.4885H58.2025L57.275 67.8606L56.3398 70.4885Z" fill="#575756"/>
<path d="M61.0898 69.7812C61.0898 68.3861 62.1719 67.3698 63.509 67.3698C64.8461 67.3698 65.9359 68.39 65.9359 69.7812C65.9359 71.1724 64.8538 72.1926 63.509 72.1926C62.1642 72.1926 61.0898 71.1724 61.0898 69.7812ZM65.4567 69.7812C65.4567 68.6296 64.6336 67.7639 63.509 67.7639C62.3844 67.7639 61.5613 68.6296 61.5613 69.7812C61.5613 70.9328 62.3844 71.7984 63.509 71.7984C64.6336 71.7984 65.4567 70.9328 65.4567 69.7812Z" fill="#575756"/>
<path d="M66.3877 67.424H68.1885C69.2049 67.424 69.7691 68.0268 69.7691 68.8461C69.7691 69.6653 69.2087 70.2605 68.1885 70.2605H67.2649V71.8063H67.7518V72.1386H66.3838V71.8063H66.805V67.7563H66.3838V67.424H66.3877ZM68.1499 69.8972C68.9189 69.8972 69.3015 69.4798 69.3015 68.8422C69.3015 68.2046 68.9112 67.7795 68.1499 67.7795H67.2688V69.8933H68.1499V69.8972Z" fill="#575756"/>
<path d="M72.9647 67.7988H70.9397V69.588H72.8333V69.9474H70.9397V71.7637H73.0613V71.1107H73.4285V72.1386H70.0625V71.8063H70.4837V67.7563H70.0625V67.424H73.3318V68.448H72.9647V67.7949V67.7988Z" fill="#575756"/>
<path d="M75.8866 70.2064H74.8548V71.8063H75.3417V72.1386H73.9775V71.8063H74.3988V67.7563H73.9775V67.424H75.8054C76.8257 67.424 77.3783 68.0345 77.3783 68.8306C77.3783 69.4683 77.0266 69.959 76.3465 70.1252L77.3937 71.8024H77.8304V72.1347H77.0884L75.8905 70.1986L75.8866 70.2064ZM75.7397 69.847C76.5436 69.847 76.9029 69.4528 76.9029 68.8267C76.9029 68.2007 76.5358 67.7872 75.7397 67.7872H74.8509V69.847H75.7397Z" fill="#575756"/>
<path d="M82.619 72.1386H81.3283V71.8063H81.7765L81.4365 70.8711H79.3226L78.9748 71.8063H79.4308V72.1386H78.1787V71.8063H78.5381L80.0143 67.7563H79.6743V67.424H81.1157V67.7563H80.7679L82.2441 71.8063H82.6113V72.1386H82.619ZM79.4501 70.4885H81.3167L80.3892 67.8606L79.454 70.4885H79.4501Z" fill="#575756"/>
<path d="M85.0457 67.3621C85.7336 67.3621 86.2321 67.5978 86.5142 68.0074V67.4239H86.889V68.7417H86.549C86.3828 68.077 85.7799 67.764 85.0727 67.764C83.9482 67.764 83.1521 68.6296 83.1521 69.7812C83.1521 70.9328 83.9752 71.7985 85.0882 71.7985C85.7722 71.7985 86.3287 71.5009 86.6958 71.0024L87.0436 71.2536C86.5837 71.8642 85.9268 72.1965 85.0805 72.1965C83.7279 72.1965 82.6768 71.184 82.6768 69.7851C82.6845 68.3784 83.7279 67.3659 85.0457 67.3659V67.3621Z" fill="#575756"/>
<path d="M87.4805 67.424H88.7789V67.7563H88.3577V71.8063H88.7789V72.1386H87.4805V71.8063H87.9017V67.7563H87.4805V67.424Z" fill="#575756"/>
<path d="M89.2188 69.7812C89.2188 68.3861 90.3008 67.3698 91.6379 67.3698C92.975 67.3698 94.0648 68.39 94.0648 69.7812C94.0648 71.1724 92.9827 72.1926 91.6379 72.1926C90.2931 72.1926 89.2188 71.1724 89.2188 69.7812ZM93.5856 69.7812C93.5856 68.6296 92.7625 67.7639 91.6379 67.7639C90.5134 67.7639 89.6902 68.6296 89.6902 69.7812C89.6902 70.9328 90.5172 71.7984 91.6379 71.7984C92.7586 71.7984 93.5856 70.9328 93.5856 69.7812Z" fill="#575756"/>
<path d="M99.0004 67.7563H98.5791V72.1386H98.2816L95.3562 68.077V71.8063H95.8199V72.1386H94.5176V71.8063H94.9388V67.7563H94.5176V67.424H95.3987L98.1656 71.2691V67.7563H97.6942V67.424H99.0042V67.7563H99.0004Z" fill="#575756"/>
<path d="M103.634 72.1386H102.347V71.8063H102.795L102.455 70.8711H100.341L99.9933 71.8063H100.449V72.1386H99.1973V71.8063H99.5567L101.033 67.7563H100.693V67.424H102.134V67.7563H101.786L103.263 71.8063H103.63V72.1386H103.634ZM100.469 70.4885H102.331L101.404 67.8606L100.469 70.4885Z" fill="#575756"/>
<path d="M104.051 67.424H105.353V67.7563H104.932V71.7637H106.791V71.1107H107.162V72.1386H104.051V71.8063H104.472V67.7563H104.051V67.424Z" fill="#575756"/>
<path d="M110.728 70.2064H109.697V71.8063H110.18V72.1386H108.815V71.8063H109.241V67.7563H108.815V67.424H110.643C111.664 67.424 112.216 68.0345 112.216 68.8306C112.216 69.4683 111.861 69.959 111.184 70.1252L112.232 71.8024H112.668V72.1347H111.926L110.728 70.1986V70.2064ZM110.581 69.847C111.385 69.847 111.745 69.4528 111.745 68.8267C111.745 68.2007 111.378 67.7872 110.581 67.7872H109.697V69.847H110.581Z" fill="#575756"/>
<path d="M116.004 67.7988H113.979V69.588H115.869V69.9474H113.979V71.7637H116.1V71.1107H116.468V72.1386H113.102V71.8063H113.523V67.7563H113.102V67.424H116.371V68.448H116.004V67.7949V67.7988Z" fill="#575756"/>
<path d="M120.9 71.6168C120.56 71.9569 120.046 72.1926 119.362 72.1926C118.06 72.1926 116.978 71.2651 116.978 69.7812C116.978 68.3861 118.052 67.3698 119.346 67.3698C120 67.3698 120.498 67.5823 120.776 67.9649V67.4239H121.151V68.6373H120.796C120.622 68.0615 120.127 67.7717 119.374 67.7717C118.253 67.7717 117.445 68.6296 117.445 69.7812C117.445 70.9328 118.284 71.7984 119.401 71.7984C120.131 71.7984 120.591 71.5125 120.877 71.2304V70.2372H119.455V69.8778H121.306V72.1385H120.9V71.6168Z" fill="#575756"/>
<path d="M121.979 67.424H123.273V67.7563H122.852V71.8063H123.273V72.1386H121.979V71.8063H122.4V67.7563H121.979V67.424Z" fill="#575756"/>
<path d="M123.717 69.7812C123.717 68.3861 124.799 67.3698 126.136 67.3698C127.473 67.3698 128.563 68.39 128.563 69.7812C128.563 71.1724 127.481 72.1926 126.136 72.1926C124.791 72.1926 123.717 71.1724 123.717 69.7812ZM128.084 69.7812C128.084 68.6296 127.261 67.7639 126.136 67.7639C125.011 67.7639 124.188 68.6296 124.188 69.7812C124.188 70.9328 125.011 71.7984 126.136 71.7984C127.261 71.7984 128.084 70.9328 128.084 69.7812Z" fill="#575756"/>
<path d="M133.498 67.7563H133.073V72.1386H132.776L129.85 68.077V71.8063H130.314V72.1386H129.012V71.8063H129.437V67.7563H129.012V67.424H129.893L132.656 71.2691V67.7563H132.184V67.424H133.495V67.7563H133.498Z" fill="#575756"/>
<path d="M138.132 72.1386H136.841V71.8063H137.293L136.953 70.8711H134.839L134.491 71.8063H134.947V72.1386H133.691V71.8063H134.051L135.527 67.7563H135.187V67.424H136.628V67.7563H136.281L137.757 71.8063H138.124V72.1386H138.132ZM134.963 70.4885H136.829L135.902 67.8606L134.963 70.4885Z" fill="#575756"/>
<path d="M138.545 67.424H139.847V67.7563H139.426V71.7637H141.285V71.1107H141.66V72.1386H138.545V71.8063H138.97V67.7563H138.545V67.424Z" fill="#575756"/>
<path d="M143.31 67.424H144.909C146.471 67.424 147.398 68.3862 147.398 69.7813C147.398 71.1763 146.475 72.1386 144.909 72.1386H143.31V71.8063H143.735V67.7563H143.31V67.424ZM144.871 71.7637C146.266 71.7637 146.931 70.9368 146.931 69.7813C146.931 68.6258 146.266 67.7988 144.871 67.7988H144.191V71.7637H144.871Z" fill="#575756"/>
<path d="M147.951 69.7812C147.951 68.3861 149.033 67.3698 150.37 67.3698C151.707 67.3698 152.797 68.39 152.797 69.7812C152.797 71.1724 151.715 72.1926 150.37 72.1926C149.025 72.1926 147.951 71.1724 147.951 69.7812ZM152.318 69.7812C152.318 68.6296 151.495 67.7639 150.37 67.7639C149.246 67.7639 148.423 68.6296 148.423 69.7812C148.423 70.9328 149.246 71.7984 150.37 71.7984C151.495 71.7984 152.318 70.9328 152.318 69.7812Z" fill="#575756"/>
<path d="M159.015 67.7563H158.594V72.1386H158.296L155.371 68.077V71.8063H155.838V72.1386H154.532V71.8063H154.953V67.7563H154.532V67.424H155.413L158.18 71.2691V67.7563H157.709V67.424H159.019V67.7563H159.015Z" fill="#575756"/>
<path d="M159.437 69.7812C159.437 68.3861 160.515 67.3698 161.856 67.3698C163.197 67.3698 164.283 68.39 164.283 69.7812C164.283 71.1724 163.201 72.1926 161.856 72.1926C160.511 72.1926 159.437 71.1724 159.437 69.7812ZM163.803 69.7812C163.803 68.6296 162.98 67.7639 161.856 67.7639C160.731 67.7639 159.908 68.6296 159.908 69.7812C159.908 70.9328 160.735 71.7984 161.856 71.7984C162.976 71.7984 163.803 70.9328 163.803 69.7812Z" fill="#575756"/>
<path d="M166.647 70.2064H165.615V71.8063H166.099V72.1386H164.734V71.8063H165.156V67.7563H164.734V67.424H166.566C167.582 67.424 168.139 68.0345 168.139 68.8306C168.139 69.4683 167.783 69.959 167.107 70.1252L168.154 71.8024H168.591V72.1347H167.849L166.651 70.1986L166.647 70.2064ZM166.5 69.847C167.304 69.847 167.664 69.4528 167.664 68.8267C167.664 68.2007 167.297 67.7872 166.5 67.7872H165.612V69.847H166.5Z" fill="#575756"/>
<path d="M171.942 67.7987H170.764V71.8062H171.223V72.1385H169.859V71.8062H170.315V67.7987H169.137V68.4518H168.762V67.4277H172.309V68.4518H171.942V67.7987Z" fill="#575756"/>
<path d="M175.682 67.7988H173.658V69.588H175.551V69.9474H173.658V71.7637H175.779V71.1107H176.146V72.1386H172.78V71.8063H173.201V67.7563H172.78V67.424H176.05V68.448H175.682V67.7949V67.7988Z" fill="#575756"/>
</g>
<defs>
<linearGradient id="paint0_linear_969_6325" x1="243.454" y1="35.685" x2="264.23" y2="35.685" gradientUnits="userSpaceOnUse">
<stop stop-color="#E8B5D5"/>
<stop offset="1" stop-color="#AB3A8D"/>
</linearGradient>
<linearGradient id="paint1_linear_969_6325" x1="242.986" y1="55.189" x2="268.333" y2="55.189" gradientUnits="userSpaceOnUse">
<stop stop-color="#008BCB"/>
<stop offset="1" stop-color="#243588"/>
</linearGradient>
<linearGradient id="paint2_linear_969_6325" x1="255.491" y1="58.7212" x2="255.491" y2="28.2189" gradientUnits="userSpaceOnUse">
<stop stop-color="#008BCB"/>
<stop offset="1" stop-color="#80C2E8"/>
</linearGradient>
<linearGradient id="paint3_linear_969_6325" x1="184.235" y1="35.685" x2="206.424" y2="35.685" gradientUnits="userSpaceOnUse">
<stop stop-color="#008BCB"/>
<stop offset="1" stop-color="#243588"/>
</linearGradient>
<linearGradient id="paint4_linear_969_6325" x1="181.518" y1="55.189" x2="206.861" y2="55.189" gradientUnits="userSpaceOnUse">
<stop stop-color="#ABCC59"/>
<stop offset="1" stop-color="#56AF31"/>
</linearGradient>
<linearGradient id="paint5_linear_969_6325" x1="222.57" y1="29.0497" x2="222.269" y2="59.467" gradientUnits="userSpaceOnUse">
<stop stop-color="#FFE700"/>
<stop offset="1" stop-color="#F28C00"/>
</linearGradient>
<linearGradient id="paint6_linear_969_6325" x1="235.084" y1="59.7414" x2="224.692" y2="31.3259" gradientUnits="userSpaceOnUse">
<stop stop-color="#E63329"/>
<stop offset="1" stop-color="#F28C00"/>
</linearGradient>
<linearGradient id="paint7_linear_969_6325" x1="283.687" y1="59.266" x2="283.687" y2="28.8487" gradientUnits="userSpaceOnUse">
<stop stop-color="#009984"/>
<stop offset="1" stop-color="#006944"/>
</linearGradient>
<linearGradient id="paint8_linear_969_6325" x1="289.719" y1="28.5705" x2="289.719" y2="60.7152" gradientUnits="userSpaceOnUse">
<stop stop-color="#ABCC59"/>
<stop offset="1" stop-color="#56AF31"/>
</linearGradient>
<linearGradient id="paint9_linear_969_6325" x1="193.877" y1="35.5459" x2="194.248" y2="58.5627" gradientUnits="userSpaceOnUse">
<stop stop-color="#009984"/>
<stop offset="1" stop-color="#006944"/>
</linearGradient>
<linearGradient id="paint10_linear_969_6325" x1="150.518" y1="32.9336" x2="176.151" y2="32.9336" gradientUnits="userSpaceOnUse">
<stop stop-color="#CBD3DA"/>
<stop offset="1" stop-color="#4B5C66"/>
</linearGradient>
<linearGradient id="paint11_linear_969_6325" x1="120.366" y1="0.765726" x2="148.187" y2="0.765726" gradientUnits="userSpaceOnUse">
<stop stop-color="#CBD3DA"/>
<stop offset="1" stop-color="#4B5C66"/>
</linearGradient>
<linearGradient id="paint12_linear_969_6325" x1="0.000246615" y1="44.0516" x2="170.512" y2="44.0516" gradientUnits="userSpaceOnUse">
<stop stop-color="#CBD3DA"/>
<stop offset="1" stop-color="#4B5C66"/>
</linearGradient>
<linearGradient id="paint13_linear_969_6325" x1="102.988" y1="39.735" x2="119.08" y2="39.735" gradientUnits="userSpaceOnUse">
<stop stop-color="#4B5C66"/>
<stop offset="1" stop-color="#CBD3DA"/>
</linearGradient>
<linearGradient id="paint14_linear_969_6325" x1="109.291" y1="49.8368" x2="115.501" y2="63.3585" gradientUnits="userSpaceOnUse">
<stop stop-color="#4B5C66"/>
<stop offset="1" stop-color="#CBD3DA"/>
</linearGradient>
<linearGradient id="paint15_linear_969_6325" x1="22.2207" y1="44.0401" x2="52.3442" y2="44.0401" gradientUnits="userSpaceOnUse">
<stop stop-color="#CBD3DA"/>
<stop offset="1" stop-color="#4B5C66"/>
</linearGradient>
<linearGradient id="paint16_linear_969_6325" x1="68.5327" y1="59.2351" x2="68.5327" y2="28.787" gradientUnits="userSpaceOnUse">
<stop stop-color="#4B5C66"/>
<stop offset="1" stop-color="#CAD2D9"/>
</linearGradient>
<linearGradient id="paint17_linear_969_6325" x1="74.5727" y1="28.5087" x2="74.5727" y2="60.6843" gradientUnits="userSpaceOnUse">
<stop stop-color="#4B5C66"/>
<stop offset="1" stop-color="#CBD3DA"/>
</linearGradient>
<linearGradient id="paint18_linear_969_6325" x1="116.317" y1="36.141" x2="92.1404" y2="36.141" gradientUnits="userSpaceOnUse">
<stop stop-color="#4B5C66"/>
<stop offset="1" stop-color="#CDD5DB"/>
</linearGradient>
<linearGradient id="paint19_linear_969_6325" x1="0.000285512" y1="55.189" x2="0.386733" y2="55.189" gradientUnits="userSpaceOnUse">
<stop stop-color="#CBD3DA"/>
<stop offset="1" stop-color="#4B5C66"/>
</linearGradient>
<linearGradient id="paint20_linear_969_6325" x1="27.2136" y1="29.5521" x2="27.2136" y2="58.9723" gradientUnits="userSpaceOnUse">
<stop stop-color="#4B5C66"/>
<stop offset="1" stop-color="#CBD3DA"/>
</linearGradient>
<linearGradient id="paint21_linear_969_6325" x1="47.3513" y1="28.8488" x2="47.3513" y2="58.6091" gradientUnits="userSpaceOnUse">
<stop stop-color="#CBD3DA"/>
<stop offset="1" stop-color="#4B5C66"/>
</linearGradient>
<linearGradient id="paint22_linear_969_6325" x1="95.7576" y1="29.2198" x2="95.7576" y2="59.0032" gradientUnits="userSpaceOnUse">
<stop stop-color="#4B5C66"/>
<stop offset="1" stop-color="#CAD2D9"/>
</linearGradient>
<linearGradient id="paint23_linear_969_6325" x1="134.329" y1="29.0691" x2="134.329" y2="59.0032" gradientUnits="userSpaceOnUse">
<stop stop-color="#4B5C66"/>
<stop offset="1" stop-color="#CBD3DA"/>
</linearGradient>
<linearGradient id="paint24_linear_969_6325" x1="155.51" y1="36.9023" x2="155.51" y2="59.1578" gradientUnits="userSpaceOnUse">
<stop offset="0.01" stop-color="#4B5C66"/>
<stop offset="0.5" stop-color="#CBD3DA"/>
<stop offset="1" stop-color="#4B5C66"/>
</linearGradient>
<linearGradient id="paint25_linear_969_6325" x1="155.507" y1="51.197" x2="155.507" y2="28.9454" gradientUnits="userSpaceOnUse">
<stop offset="0.01" stop-color="#4B5C66"/>
<stop offset="0.5" stop-color="#CBD3DA"/>
<stop offset="1" stop-color="#4B5C66"/>
</linearGradient>
<clipPath id="clip0_969_6325">
<rect width="325.346" height="99" fill="white" transform="translate(0 0.765625)"/>
</clipPath>
</defs>
</svg>
