<svg width="24" height="24" viewBox="0 0 24 24" fill="none" xmlns="http://www.w3.org/2000/svg">
<path d="M7.965 11.0925C9.045 13.215 10.785 14.955 12.9075 16.035L14.5575 14.385C14.7675 14.175 15.06 14.115 15.3225 14.1975C16.1625 14.475 17.0625 14.625 18 14.625C18.1989 14.625 18.3897 14.704 18.5303 14.8447C18.671 14.9853 18.75 15.1761 18.75 15.375V18C18.75 18.1989 18.671 18.3897 18.5303 18.5303C18.3897 18.671 18.1989 18.75 18 18.75C14.6185 18.75 11.3755 17.4067 8.98439 15.0156C6.5933 12.6245 5.25 9.38151 5.25 6C5.25 5.80109 5.32902 5.61032 5.46967 5.46967C5.61032 5.32902 5.80109 5.25 6 5.25H8.625C8.82391 5.25 9.01468 5.32902 9.15533 5.46967C9.29598 5.61032 9.375 5.80109 9.375 6C9.375 6.9375 9.525 7.8375 9.8025 8.6775C9.885 8.94 9.825 9.2325 9.615 9.4425L7.965 11.0925Z" fill="white"/>
</svg>
