<svg width="180" height="60" viewBox="0 0 180 60" fill="none" xmlns="http://www.w3.org/2000/svg">
<g clip-path="url(#clip0_1534_19290)">
<path d="M165.307 0.000194999H14.3111C13.7607 0.000194999 13.2169 0.000194999 12.6679 0.00319499C12.2084 0.00619498 11.7526 0.01491 11.2886 0.0222449C10.2808 0.0340976 9.27528 0.122709 8.28089 0.287309C7.2879 0.455492 6.32601 0.772566 5.42777 1.22781C4.53062 1.6869 3.71087 2.28344 2.99825 2.99579C2.2819 3.70614 1.68476 4.5272 1.2298 5.42742C0.77359 6.32584 0.45725 7.28858 0.29171 8.28239C0.124595 9.27494 0.0346695 10.2789 0.0227394 11.2854C0.00881058 11.7453 0.00733965 12.2067 0 12.6667V47.3379C0.00733965 47.8037 0.00881058 48.2549 0.0227394 48.7208C0.0346732 49.7272 0.124599 50.7311 0.29171 51.7236C0.456793 52.718 0.773152 53.6813 1.2298 54.5801C1.68455 55.4774 2.28178 56.2951 2.99825 57.0015C3.70816 57.717 4.52844 58.314 5.42777 58.7696C6.32601 59.226 7.28779 59.545 8.28089 59.7158C9.27545 59.879 10.2808 59.9677 11.2886 59.981C11.7526 59.9912 12.2084 59.997 12.6679 59.997C13.2169 60 13.7607 60 14.3111 60H165.307C165.846 60 166.394 60 166.934 59.997C167.391 59.997 167.86 59.9912 168.318 59.981C169.323 59.9684 170.327 59.8797 171.319 59.7158C172.316 59.5438 173.281 59.2249 174.184 58.7696C175.082 58.3137 175.902 57.7168 176.611 57.0015C177.326 56.2923 177.924 55.4752 178.384 54.5801C178.838 53.6807 179.151 52.7174 179.314 51.7236C179.481 50.731 179.574 49.7273 179.592 48.7208C179.598 48.2549 179.598 47.8037 179.598 47.3379C179.61 46.793 179.61 46.251 179.61 45.6972V14.3043C179.61 13.755 179.61 13.2101 179.598 12.6667C179.598 12.2067 179.598 11.7453 179.592 11.2853C179.574 10.2788 179.481 9.27502 179.314 8.28233C179.151 7.28909 178.837 6.32643 178.384 5.42736C177.458 3.62298 175.989 2.15423 174.184 1.22767C173.281 0.773544 172.316 0.456554 171.319 0.287174C170.327 0.121849 169.324 0.0332065 168.318 0.0220349C167.86 0.014715 167.391 0.00592498 166.934 0.00299999C166.394 0 165.846 0.000194999 165.307 0.000194999Z" fill="#A6A6A6"/>
<path d="M12.6735 58.6873C12.2162 58.6873 11.7699 58.6815 11.3162 58.6713C10.3763 58.659 9.43857 58.5773 8.51074 58.4266C7.64557 58.2777 6.80747 58.0007 6.02405 57.6048C5.24782 57.2121 4.53984 56.6972 3.92723 56.0799C3.30574 55.4698 2.78833 54.7622 2.39549 53.9851C1.99832 53.203 1.72346 52.3647 1.58048 51.4993C1.42606 50.5695 1.34252 49.6293 1.33057 48.6868C1.32105 48.3705 1.30859 47.3172 1.30859 47.3172V12.6665C1.30859 12.6665 1.32186 11.6294 1.33064 11.3247C1.34209 10.3837 1.42515 9.44495 1.5791 8.51657C1.72234 7.64886 1.99742 6.80811 2.3948 6.02343C2.7862 5.2469 3.30074 4.53878 3.91848 3.92651C4.53552 3.30843 5.24577 2.7909 6.02332 2.39281C6.80493 1.99814 7.64145 1.7231 8.50487 1.5769C9.43575 1.42475 10.3767 1.34249 11.3199 1.33081L12.6743 1.3125H166.925L168.295 1.33155C169.23 1.34265 170.162 1.42417 171.085 1.57543C171.957 1.72346 172.802 2.00042 173.593 2.39721C175.15 3.19947 176.418 4.46873 177.217 6.02709C177.608 6.80635 177.879 7.64024 178.021 8.50046C178.176 9.43646 178.264 10.3826 178.282 11.3313C178.286 11.7561 178.286 12.2124 178.286 12.6665C178.298 13.229 178.298 13.7644 178.298 14.3042V45.6971C178.298 46.242 178.298 46.7738 178.286 47.3099C178.286 47.7977 178.286 48.2445 178.28 48.7044C178.262 49.6362 178.177 50.5654 178.023 51.4846C177.883 52.3562 177.61 53.2011 177.213 53.9896C176.817 54.7583 176.303 55.4597 175.689 56.0682C175.075 56.6888 174.366 57.2067 173.588 57.6019C172.8 58.0009 171.956 58.2789 171.085 58.4266C170.157 58.5781 169.219 58.6598 168.279 58.6713C167.839 58.6815 167.379 58.6873 166.932 58.6873L165.305 58.6903L12.6735 58.6873Z" fill="black"/>
<path d="M37.1749 30.4534C37.191 29.2014 37.5238 27.9738 38.1422 26.8849C38.7606 25.796 39.6446 24.8811 40.712 24.2253C40.0339 23.2576 39.1394 22.4612 38.0995 21.8994C37.0596 21.3375 35.903 21.0258 34.7214 20.9888C32.201 20.7244 29.7575 22.4961 28.4731 22.4961C27.1639 22.4961 25.1864 21.0151 23.0569 21.0588C21.6796 21.1033 20.3372 21.5036 19.1606 22.2207C17.9841 22.9378 17.0134 23.9472 16.3433 25.1506C13.4405 30.1733 15.6057 37.5548 18.3864 41.6147C19.7776 43.6027 21.4036 45.8234 23.5311 45.7446C25.613 45.6583 26.3906 44.4179 28.9036 44.4179C31.3933 44.4179 32.1228 45.7446 34.2935 45.6946C36.5275 45.6583 37.935 43.6977 39.2774 41.6909C40.277 40.2743 41.0462 38.7088 41.5565 37.0521C40.2586 36.5035 39.151 35.5853 38.3719 34.4118C37.5927 33.2384 37.1764 31.8617 37.1749 30.4534Z" fill="white"/>
<path d="M33.0741 18.3189C34.2922 16.8576 34.8922 14.9794 34.7469 13.083C32.886 13.2783 31.167 14.1672 29.9325 15.5724C29.3289 16.2589 28.8666 17.0576 28.5721 17.9227C28.2775 18.7879 28.1565 19.7026 28.2159 20.6145C29.1467 20.6241 30.0675 20.4224 30.909 20.0248C31.7506 19.6272 32.4908 19.0439 33.0741 18.3189Z" fill="white"/>
<path d="M63.4919 40.7114H56.3873L54.6811 45.7461H51.6719L58.4012 27.1191H61.5277L68.2571 45.7461H65.1965L63.4919 40.7114ZM57.1231 38.3882H62.7546L59.9785 30.2173H59.9008L57.1231 38.3882Z" fill="white"/>
<path d="M82.7928 38.9561C82.7928 43.1763 80.5326 45.8877 77.1217 45.8877C76.2577 45.9329 75.3984 45.734 74.6423 45.3138C73.8861 44.8936 73.2636 44.2691 72.8461 43.5117H72.7816V50.2383H69.9922V32.1651H72.6922V34.4239H72.7435C73.1802 33.6702 73.8132 33.0489 74.5751 32.6261C75.337 32.2034 76.1994 31.9949 77.0704 32.023C80.5193 32.023 82.7928 34.7476 82.7928 38.9561ZM79.9258 38.9561C79.9258 36.2066 78.504 34.399 76.3346 34.399C74.2034 34.399 72.7699 36.2447 72.7699 38.9561C72.7699 41.6924 74.2034 43.5249 76.3346 43.5249C78.504 43.5249 79.9258 41.7305 79.9258 38.9561Z" fill="white"/>
<path d="M97.7479 38.9561C97.7479 43.1763 95.4877 45.8877 92.0768 45.8877C91.2128 45.9329 90.3535 45.734 89.5973 45.3138C88.8412 44.8936 88.2187 44.269 87.8012 43.5117H87.7366V50.2383H84.9473V32.1651H87.6472V34.4239H87.6985C88.1352 33.6702 88.7682 33.0489 89.5301 32.6261C90.2921 32.2034 91.1544 31.9949 92.0255 32.023C95.4745 32.023 97.7479 34.7476 97.7479 38.9561ZM94.8808 38.9561C94.8808 36.2066 93.459 34.399 91.2897 34.399C89.1585 34.399 87.7249 36.2447 87.7249 38.9561C87.7249 41.6924 89.1585 43.5249 91.2897 43.5249C93.459 43.5249 94.8808 41.7305 94.8808 38.9561Z" fill="white"/>
<path d="M107.631 40.5562C107.837 42.4034 109.633 43.6162 112.087 43.6162C114.438 43.6162 116.129 42.4033 116.129 40.7378C116.129 39.292 115.109 38.4263 112.694 37.833L110.278 37.2514C106.855 36.4253 105.266 34.8257 105.266 32.23C105.266 29.0161 108.069 26.8086 112.049 26.8086C115.987 26.8086 118.687 29.0161 118.778 32.23H115.962C115.794 30.3711 114.256 29.249 112.009 29.249C109.762 29.249 108.224 30.3843 108.224 32.0366C108.224 33.3535 109.206 34.1284 111.609 34.7216L113.662 35.2255C117.487 36.1293 119.075 37.6645 119.075 40.3891C119.075 43.8739 116.298 46.0565 111.88 46.0565C107.747 46.0565 104.956 43.9252 104.775 40.556L107.631 40.5562Z" fill="white"/>
<path d="M125.095 28.9512V32.165H127.679V34.3725H125.095V41.8593C125.095 43.0224 125.612 43.5644 126.748 43.5644C127.055 43.5591 127.361 43.5375 127.666 43.4999V45.6942C127.155 45.7896 126.636 45.8328 126.116 45.8231C123.365 45.8231 122.292 44.7904 122.292 42.1566V34.3725H120.316V32.165H122.292V28.9512H125.095Z" fill="white"/>
<path d="M129.176 38.9551C129.176 34.6821 131.694 31.9971 135.621 31.9971C139.561 31.9971 142.067 34.6821 142.067 38.9551C142.067 43.2397 139.574 45.913 135.621 45.913C131.669 45.913 129.176 43.2397 129.176 38.9551ZM139.225 38.9551C139.225 36.0239 137.881 34.2939 135.621 34.2939C133.361 34.2939 132.018 36.0371 132.018 38.9551C132.018 41.8979 133.361 43.6147 135.621 43.6147C137.881 43.6147 139.225 41.8979 139.225 38.9551Z" fill="white"/>
<path d="M144.371 32.165H147.031V34.4765H147.096C147.276 33.7545 147.699 33.1165 148.294 32.6697C148.89 32.2229 149.621 31.9945 150.365 32.0229C150.686 32.0217 151.007 32.0566 151.32 32.1269V34.7343C150.915 34.6104 150.491 34.5535 150.067 34.5658C149.662 34.5494 149.258 34.6208 148.883 34.7751C148.508 34.9295 148.171 35.1631 147.895 35.4599C147.618 35.7567 147.41 36.1098 147.283 36.4948C147.156 36.8798 147.115 37.2876 147.16 37.6903V45.7455H144.371L144.371 32.165Z" fill="white"/>
<path d="M164.178 41.7558C163.803 44.2211 161.401 45.913 158.327 45.913C154.374 45.913 151.92 43.2661 151.92 39.0195C151.92 34.7598 154.387 31.9971 158.21 31.9971C161.969 31.9971 164.334 34.5781 164.334 38.6958V39.6509H154.736V39.8193C154.691 40.3191 154.754 40.8226 154.919 41.2964C155.085 41.7701 155.349 42.2033 155.695 42.5671C156.041 42.9309 156.46 43.2171 156.925 43.4065C157.39 43.596 157.89 43.6844 158.391 43.666C159.05 43.7277 159.712 43.5751 160.277 43.231C160.843 42.8868 161.282 42.3694 161.53 41.7558L164.178 41.7558ZM154.749 37.7026H161.543C161.568 37.2532 161.5 36.8035 161.342 36.3817C161.185 35.9599 160.943 35.5751 160.63 35.2514C160.317 34.9278 159.94 34.6723 159.524 34.501C159.107 34.3296 158.66 34.2462 158.21 34.2559C157.755 34.2531 157.305 34.3404 156.885 34.5125C156.464 34.6846 156.082 34.9382 155.761 35.2586C155.439 35.5791 155.184 35.96 155.01 36.3795C154.836 36.799 154.748 37.2487 154.749 37.7026Z" fill="white"/>
<path d="M56.7779 13.0941C57.3627 13.0522 57.9495 13.1405 58.496 13.3526C59.0426 13.5648 59.5351 13.8955 59.9383 14.3209C60.3414 14.7464 60.645 15.2559 60.8273 15.8128C61.0095 16.3697 61.0657 16.9601 60.992 17.5414C60.992 20.4008 59.4456 22.0444 56.7779 22.0444H53.543V13.0941H56.7779ZM54.934 20.7786H56.6225C57.0404 20.8036 57.4586 20.7351 57.8467 20.5782C58.2347 20.4213 58.5829 20.1798 58.8658 19.8715C59.1487 19.5631 59.3593 19.1956 59.4821 18.7957C59.605 18.3958 59.6371 17.9735 59.5761 17.5596C59.6327 17.1474 59.5973 16.7277 59.4726 16.3307C59.3478 15.9337 59.1367 15.5692 58.8545 15.2633C58.5722 14.9574 58.2257 14.7177 57.8398 14.5614C57.454 14.405 57.0383 14.3359 56.6225 14.359H54.934V20.7786Z" fill="white"/>
<path d="M68.6166 20.2213C68.4354 20.8386 68.0428 21.3726 67.5074 21.7298C66.972 22.087 66.328 22.2448 65.688 22.1754C65.2428 22.1871 64.8003 22.1019 64.3912 21.9256C63.9822 21.7493 63.6165 21.4862 63.3194 21.1545C63.0224 20.8228 62.8011 20.4304 62.671 20.0047C62.5409 19.579 62.505 19.13 62.5659 18.6891C62.5066 18.2467 62.5431 17.7968 62.6729 17.3698C62.8028 16.9428 63.0229 16.5487 63.3184 16.2141C63.6138 15.8795 63.9778 15.6122 64.3856 15.4304C64.7935 15.2486 65.2356 15.1565 65.6822 15.1603C67.5628 15.1603 68.6973 16.4443 68.6973 18.5653V19.0304H63.9248V19.1051C63.9039 19.353 63.9351 19.6025 64.0163 19.8376C64.0975 20.0727 64.227 20.2883 64.3965 20.4705C64.566 20.6526 64.7717 20.7974 65.0004 20.8955C65.2291 20.9936 65.4759 21.0429 65.7247 21.0401C66.0438 21.0784 66.3671 21.021 66.6534 20.8752C66.9397 20.7293 67.1762 20.5017 67.3327 20.2213L68.6166 20.2213ZM63.9247 18.0446H67.3384C67.3553 17.8179 67.3244 17.5902 67.248 17.3761C67.1715 17.162 67.051 16.9663 66.8943 16.8015C66.7377 16.6367 66.5482 16.5065 66.3382 16.4192C66.1282 16.332 65.9022 16.2896 65.6748 16.2948C65.4441 16.2919 65.2152 16.3352 65.0015 16.4221C64.7878 16.5091 64.5937 16.6378 64.4306 16.8009C64.2675 16.964 64.1387 17.158 64.0519 17.3716C63.965 17.5852 63.9217 17.814 63.9247 18.0446Z" fill="white"/>
<path d="M72.9539 15.1602C74.4739 15.1602 75.4677 15.8669 75.5982 17.0579H74.3185C74.1955 16.562 73.7103 16.2456 72.9539 16.2456C72.2093 16.2456 71.6436 16.5986 71.6436 17.126C71.6436 17.5295 71.9851 17.7837 72.718 17.9514L73.8407 18.2114C75.1262 18.5095 75.7286 19.0617 75.7286 20.0542C75.7286 21.3257 74.5429 22.1753 72.929 22.1753C71.321 22.1753 70.273 21.4494 70.1543 20.2527H71.4896C71.6047 20.5375 71.8122 20.7755 72.0788 20.9283C72.3454 21.0812 72.6556 21.1401 72.9598 21.0957C73.7909 21.0957 74.3816 20.7237 74.3816 20.1838C74.3816 19.781 74.065 19.5202 73.3878 19.3591L72.2093 19.0859C70.9238 18.782 70.3287 18.2056 70.3287 17.2007C70.3287 16.0032 71.4266 15.1602 72.9539 15.1602Z" fill="white"/>
<path d="M81.9528 17.4985C81.8677 17.1482 81.66 16.84 81.3672 16.6296C81.0744 16.4192 80.7159 16.3206 80.3566 16.3515C79.2396 16.3515 78.5566 17.207 78.5566 18.6462C78.5566 20.1103 79.2455 20.9848 80.3566 20.9848C80.7123 21.026 81.0709 20.9359 81.3648 20.7314C81.6588 20.5269 81.8679 20.2222 81.9528 19.8745H83.25C83.1642 20.5584 82.8144 21.1818 82.2753 21.6117C81.7361 22.0416 81.0502 22.244 80.3639 22.1757C79.912 22.19 79.4624 22.1054 79.0466 21.9279C78.6308 21.7504 78.2588 21.4842 77.9567 21.1481C77.6546 20.8119 77.4296 20.4138 77.2975 19.9817C77.1654 19.5495 77.1294 19.0938 77.192 18.6462C77.1326 18.202 77.1709 17.7502 77.3042 17.3223C77.4376 16.8944 77.6628 16.5008 77.9642 16.1689C78.2655 15.837 78.6357 15.5748 79.0489 15.4007C79.4621 15.2265 79.9084 15.1446 80.3566 15.1607C81.0485 15.097 81.7381 15.3056 82.2785 15.7422C82.8188 16.1789 83.1674 16.809 83.25 17.4985L81.9528 17.4985Z" fill="white"/>
<path d="M84.5742 20.1338C84.5742 18.9179 85.4801 18.217 87.088 18.1174L88.9188 18.0119V17.4289C88.9188 16.7156 88.4468 16.3127 87.5351 16.3127C86.7905 16.3127 86.2745 16.5859 86.1265 17.0635H84.8351C84.9714 15.9033 86.0634 15.1592 87.5966 15.1592C89.2911 15.1592 90.2468 16.0022 90.2468 17.4289V22.0439H88.9627V21.0947H88.8572C88.643 21.4352 88.3422 21.7128 87.9855 21.8991C87.6289 22.0854 87.2291 22.1738 86.8271 22.1552C86.5434 22.1847 86.2566 22.1544 85.9853 22.0664C85.714 21.9784 85.4642 21.8345 85.2519 21.644C85.0396 21.4536 84.8697 21.2208 84.7529 20.9606C84.6362 20.7005 84.5753 20.4188 84.5742 20.1338ZM88.9188 19.5566V18.9919L87.2683 19.0974C86.3375 19.1596 85.9154 19.476 85.9154 20.0715C85.9154 20.6794 86.4431 21.0332 87.1687 21.0332C87.3813 21.0547 87.5961 21.0332 87.8002 20.9701C88.0043 20.9069 88.1937 20.8034 88.3569 20.6657C88.5202 20.5279 88.6541 20.3587 88.7506 20.1682C88.8471 19.9777 88.9043 19.7697 88.9188 19.5566Z" fill="white"/>
<path d="M92.3359 15.2891H93.62V16.3247H93.7196C93.8634 15.9652 94.1174 15.6604 94.4453 15.4542C94.7732 15.248 95.158 15.151 95.5445 15.177C95.7443 15.1743 95.9438 15.193 96.1396 15.2327V16.5482C95.8948 16.4959 95.6453 16.4689 95.395 16.4676C95.175 16.4478 94.9533 16.4743 94.7442 16.5453C94.535 16.6163 94.343 16.7302 94.1805 16.8797C94.0181 17.0293 93.8887 17.2111 93.8007 17.4136C93.7128 17.6161 93.6682 17.8347 93.6698 18.0555V22.0435H92.3359L92.3359 15.2891Z" fill="white"/>
<path d="M97.7149 15.2891H98.9989V16.3247H99.0985C99.2423 15.9652 99.4963 15.6604 99.8242 15.4542C100.152 15.248 100.537 15.151 100.923 15.177C101.123 15.1743 101.323 15.193 101.519 15.2327V16.5482C101.274 16.4959 101.024 16.4689 100.774 16.4676C100.554 16.4478 100.332 16.4743 100.123 16.5453C99.9139 16.6163 99.7219 16.7302 99.5594 16.8797C99.397 17.0293 99.2676 17.2111 99.1796 17.4136C99.0917 17.6161 99.0471 17.8347 99.0487 18.0555V22.0435H97.7148L97.7149 15.2891Z" fill="white"/>
<path d="M108.531 20.2213C108.349 20.8386 107.957 21.3726 107.421 21.7298C106.886 22.087 106.242 22.2447 105.602 22.1754C105.157 22.1871 104.714 22.1019 104.305 21.9256C103.896 21.7493 103.531 21.4862 103.234 21.1545C102.936 20.8228 102.715 20.4304 102.585 20.0047C102.455 19.579 102.419 19.13 102.48 18.6891C102.421 18.2467 102.457 17.7968 102.587 17.3698C102.717 16.9428 102.937 16.5487 103.232 16.2141C103.528 15.8795 103.892 15.6122 104.3 15.4304C104.708 15.2486 105.15 15.1565 105.596 15.1603C107.477 15.1603 108.611 16.4443 108.611 18.5653V19.0304H103.839V19.1051C103.818 19.353 103.849 19.6025 103.93 19.8376C104.011 20.0727 104.141 20.2883 104.31 20.4704C104.48 20.6526 104.686 20.7974 104.914 20.8955C105.143 20.9936 105.39 21.0428 105.639 21.0401C105.958 21.0784 106.281 21.0209 106.567 20.8751C106.854 20.7293 107.09 20.5017 107.247 20.2212L108.531 20.2213ZM103.839 18.0445H107.252C107.269 17.8178 107.238 17.5901 107.162 17.3761C107.086 17.162 106.965 16.9663 106.808 16.8015C106.652 16.6367 106.462 16.5065 106.252 16.4192C106.042 16.332 105.816 16.2896 105.589 16.2948C105.358 16.2919 105.129 16.3352 104.916 16.4221C104.702 16.509 104.508 16.6378 104.345 16.8009C104.181 16.9639 104.053 17.158 103.966 17.3716C103.879 17.5852 103.836 17.814 103.839 18.0445Z" fill="white"/>
<path d="M110.325 22.7216H111.69C111.803 23.2116 112.367 23.528 113.267 23.528C114.378 23.528 115.036 23.0007 115.036 22.1078V20.8115H114.937C114.727 21.1743 114.422 21.4724 114.054 21.6726C113.686 21.8728 113.269 21.9674 112.851 21.946C111.126 21.946 110.059 20.613 110.059 18.5908C110.059 16.5313 111.137 15.1792 112.864 15.1792C113.293 15.1642 113.718 15.2674 114.092 15.4774C114.467 15.6875 114.776 15.9963 114.987 16.3701H115.092V15.2912H116.37V22.1012C116.37 23.6459 115.159 24.6259 113.248 24.6259C111.56 24.6259 110.468 23.8693 110.325 22.7216ZM115.061 18.5842C115.061 17.2387 114.365 16.3767 113.229 16.3767C112.081 16.3767 111.436 17.2387 111.436 18.5842C111.436 19.9304 112.081 20.7924 113.229 20.7924C114.372 20.7924 115.061 19.937 115.061 18.5842Z" fill="white"/>
<path d="M118.113 20.1338C118.113 18.9179 119.019 18.217 120.627 18.1174L122.458 18.0119V17.4289C122.458 16.7156 121.986 16.3127 121.074 16.3127C120.33 16.3127 119.814 16.5859 119.666 17.0635H118.374C118.511 15.9033 119.603 15.1592 121.136 15.1592C122.83 15.1592 123.786 16.0022 123.786 17.4289V22.0439H122.502V21.0947H122.396C122.182 21.4352 121.881 21.7128 121.525 21.8991C121.168 22.0854 120.768 22.1738 120.366 22.1552C120.082 22.1847 119.796 22.1544 119.524 22.0664C119.253 21.9784 119.003 21.8345 118.791 21.644C118.579 21.4536 118.409 21.2208 118.292 20.9606C118.175 20.7005 118.114 20.4188 118.113 20.1338ZM122.458 19.5566V18.9919L120.807 19.0974C119.877 19.1596 119.454 19.476 119.454 20.0715C119.454 20.6794 119.982 21.0332 120.708 21.0332C120.92 21.0547 121.135 21.0332 121.339 20.9701C121.543 20.9069 121.733 20.8034 121.896 20.6657C122.059 20.5279 122.193 20.3587 122.29 20.1682C122.386 19.9777 122.443 19.7697 122.458 19.5566Z" fill="white"/>
<path d="M125.877 15.2891H127.161V16.3247H127.261C127.404 15.9652 127.658 15.6604 127.986 15.4542C128.314 15.248 128.699 15.151 129.086 15.177C129.285 15.1743 129.485 15.193 129.681 15.2327V16.5482C129.436 16.4959 129.186 16.4689 128.936 16.4676C128.716 16.4478 128.494 16.4743 128.285 16.5453C128.076 16.6163 127.884 16.7302 127.722 16.8797C127.559 17.0293 127.43 17.2111 127.342 17.4136C127.254 17.6161 127.209 17.8347 127.211 18.0555V22.0435H125.877L125.877 15.2891Z" fill="white"/>
<path d="M134.818 15.2894H136.102V16.3624H136.202C136.371 15.977 136.656 15.6539 137.018 15.4382C137.379 15.2225 137.799 15.1249 138.219 15.159C138.548 15.1343 138.878 15.1838 139.185 15.304C139.492 15.4241 139.768 15.6118 139.993 15.853C140.218 16.0943 140.385 16.383 140.483 16.6977C140.581 17.0125 140.607 17.3452 140.558 17.6712V22.0437H139.224V18.0059C139.224 16.9205 138.752 16.3807 137.766 16.3807C137.543 16.3703 137.32 16.4083 137.113 16.492C136.905 16.5758 136.719 16.7033 136.566 16.8659C136.412 17.0284 136.296 17.2222 136.225 17.4339C136.153 17.6456 136.129 17.8702 136.152 18.0923V22.0437H134.818V15.2894Z" fill="white"/>
<path d="M142.236 20.1347C142.236 18.9189 143.142 18.218 144.75 18.1184L146.581 18.0129V17.4299C146.581 16.7165 146.109 16.3137 145.197 16.3137C144.453 16.3137 143.937 16.5869 143.789 17.0644H142.497C142.634 15.9043 143.726 15.1602 145.259 15.1602C146.953 15.1602 147.909 16.0032 147.909 17.4299V22.0449H146.625V21.0957H146.519C146.305 21.4362 146.004 21.7137 145.648 21.9001C145.291 22.0864 144.891 22.1748 144.489 22.1562C144.205 22.1857 143.919 22.1554 143.647 22.0674C143.376 21.9793 143.126 21.8354 142.914 21.645C142.702 21.4545 142.532 21.2217 142.415 20.9616C142.298 20.7015 142.237 20.4198 142.236 20.1347ZM146.581 19.5576V18.9929L144.93 19.0984C144 19.1606 143.577 19.477 143.577 20.0725C143.577 20.6804 144.105 21.0341 144.831 21.0341C145.043 21.0556 145.258 21.0342 145.462 20.9711C145.666 20.9079 145.856 20.8044 146.019 20.6666C146.182 20.5289 146.316 20.3597 146.413 20.1692C146.509 19.9786 146.566 19.7707 146.581 19.5576Z" fill="white"/>
</g>
<defs>
<clipPath id="clip0_1534_19290">
<rect width="180" height="60" fill="white"/>
</clipPath>
</defs>
</svg>
