<svg width="220" height="219" viewBox="0 0 220 219" fill="none" xmlns="http://www.w3.org/2000/svg">
<mask id="path-1-inside-1_1034_20579" fill="white">
<path d="M188.303 40.1877C177.558 28.0285 164.135 18.5318 149.093 12.4468C134.05 6.3617 117.8 3.85464 101.623 5.12329C85.4456 6.39194 69.7846 11.4016 55.8745 19.7572C41.9645 28.1128 30.1859 39.5859 21.4677 53.2715L23.35 54.4706C31.8825 41.0766 43.4101 29.848 57.0238 21.6704C70.6374 13.4928 85.9648 8.5899 101.797 7.34828C117.629 6.10666 133.534 8.56031 148.256 14.5157C162.978 20.4711 176.115 29.7654 186.631 41.6656L188.303 40.1877Z"/>
</mask>
<path d="M188.303 40.1877C177.558 28.0285 164.135 18.5318 149.093 12.4468C134.05 6.3617 117.8 3.85464 101.623 5.12329C85.4456 6.39194 69.7846 11.4016 55.8745 19.7572C41.9645 28.1128 30.1859 39.5859 21.4677 53.2715L23.35 54.4706C31.8825 41.0766 43.4101 29.848 57.0238 21.6704C70.6374 13.4928 85.9648 8.5899 101.797 7.34828C117.629 6.10666 133.534 8.56031 148.256 14.5157C162.978 20.4711 176.115 29.7654 186.631 41.6656L188.303 40.1877Z" stroke="url(#paint0_linear_1034_20579)" stroke-width="6" mask="url(#path-1-inside-1_1034_20579)"/>
<ellipse cx="187.381" cy="40.3715" rx="3.2588" ry="3.2588" transform="rotate(30 187.381 40.3715)" fill="#E1F2FF"/>
<ellipse cx="22.1703" cy="54.6494" rx="3.2588" ry="3.2588" transform="rotate(30 22.1703 54.6494)" fill="#71AAFF"/>
<mask id="path-4-inside-2_1034_20579" fill="white">
<path d="M10.4975 76.2557C5.824 90.1963 4.13776 104.965 5.54844 119.6C6.95913 134.235 11.4351 148.41 18.6852 161.201C25.9354 173.992 35.7972 185.114 47.6291 193.843C59.4611 202.571 72.998 208.711 87.3594 211.863C101.721 215.014 116.585 215.107 130.984 212.135C145.384 209.163 158.997 203.193 170.937 194.613C182.877 186.034 192.877 175.036 200.287 162.336C207.696 149.637 212.349 135.519 213.943 120.903L211.724 120.661C210.164 134.966 205.611 148.783 198.359 161.212C191.107 173.641 181.32 184.404 169.635 192.801C157.949 201.198 144.626 207.041 130.533 209.95C116.441 212.858 101.893 212.767 87.8378 209.683C73.7824 206.598 60.5339 200.589 48.954 192.047C37.3742 183.504 27.7225 172.619 20.6269 160.1C13.5312 147.582 9.15061 133.709 7.76998 119.386C6.38936 105.062 8.03966 90.6087 12.6135 76.9651L10.4975 76.2557Z"/>
</mask>
<path d="M10.4975 76.2557C5.824 90.1963 4.13776 104.965 5.54844 119.6C6.95913 134.235 11.4351 148.41 18.6852 161.201C25.9354 173.992 35.7972 185.114 47.6291 193.843C59.4611 202.571 72.998 208.711 87.3594 211.863C101.721 215.014 116.585 215.107 130.984 212.135C145.384 209.163 158.997 203.193 170.937 194.613C182.877 186.034 192.877 175.036 200.287 162.336C207.696 149.637 212.349 135.519 213.943 120.903L211.724 120.661C210.164 134.966 205.611 148.783 198.359 161.212C191.107 173.641 181.32 184.404 169.635 192.801C157.949 201.198 144.626 207.041 130.533 209.95C116.441 212.858 101.893 212.767 87.8378 209.683C73.7824 206.598 60.5339 200.589 48.954 192.047C37.3742 183.504 27.7225 172.619 20.6269 160.1C13.5312 147.582 9.15061 133.709 7.76998 119.386C6.38936 105.062 8.03966 90.6087 12.6135 76.9651L10.4975 76.2557Z" stroke="url(#paint1_linear_1034_20579)" stroke-width="6" mask="url(#path-4-inside-2_1034_20579)"/>
<ellipse cx="11.1182" cy="76.9619" rx="3.2588" ry="3.2588" transform="rotate(-90 11.1182 76.9619)" fill="#CBE5FF"/>
<ellipse cx="212.427" cy="122.651" rx="3.2588" ry="3.2588" transform="rotate(-90 212.427 122.651)" fill="#7CB1FF"/>
<path d="M109.717 20.3721C159.098 20.3721 199.128 60.4027 199.128 109.783C199.128 159.163 159.098 199.194 109.717 199.194C60.3372 199.194 20.3066 159.163 20.3066 109.783C20.3066 60.4027 60.3372 20.3721 109.717 20.3721ZM109.717 190.253C154.16 190.253 190.187 154.225 190.187 109.783C190.187 65.3408 154.16 29.3132 109.717 29.3132C65.2753 29.3132 29.2477 65.3408 29.2477 109.783C29.2477 154.225 65.2753 190.253 109.717 190.253Z" fill="#5698FF"/>
<path opacity="0.7" d="M25.4272 79.9595C30.2591 66.303 38.3368 54.0251 48.9652 44.1822L55.0404 50.7423C45.4748 59.6009 38.2049 70.651 33.8562 82.9418L25.4272 79.9595Z" fill="white"/>
<path opacity="0.7" d="M192.122 75.0868C197.743 88.4377 200.036 102.954 198.804 117.388L189.896 116.627C191.005 103.637 188.941 90.5722 183.881 78.5564L192.122 75.0868Z" fill="white"/>
<path opacity="0.7" d="M46.4945 46.56C50.1002 42.9543 54.0077 39.6636 58.1744 36.7241L63.3287 44.03C59.5787 46.6756 56.0619 49.6371 52.8168 52.8823L46.4945 46.56Z" fill="white"/>
<path opacity="0.7" d="M66.4425 187.785C50.2718 178.821 37.276 165.067 29.2431 148.414C21.2102 131.761 18.535 113.028 21.5854 94.7924L30.4079 96.2682C27.6626 112.68 30.0703 129.54 37.2999 144.528C44.5295 159.515 56.2257 171.894 70.7794 179.962L66.4425 187.785Z" fill="white"/>
<path d="M146.125 73.875V123.354C146.125 127.029 144.666 130.552 142.068 133.151C139.469 135.749 135.946 137.208 132.271 137.208C128.597 137.208 125.073 135.749 122.475 133.151C119.877 130.552 118.417 127.029 118.417 123.354C118.417 119.68 119.877 116.156 122.475 113.558C125.073 110.96 128.597 109.5 132.271 109.5C134.409 109.5 136.427 109.975 138.209 110.846V87.6104L98.6253 96.0417V131.271C98.6253 134.945 97.1657 138.469 94.5675 141.067C91.9694 143.665 88.4455 145.125 84.7712 145.125C81.0968 145.125 77.5729 143.665 74.9748 141.067C72.3766 138.469 70.917 134.945 70.917 131.271C70.917 127.596 72.3766 124.073 74.9748 121.474C77.5729 118.876 81.0968 117.417 84.7712 117.417C86.9087 117.417 88.9274 117.892 90.7087 118.763V85.75L146.125 73.875Z" fill="#5698FF"/>
<defs>
<linearGradient id="paint0_linear_1034_20579" x1="179.119" y1="-17.4631" x2="-18.9864" y2="35.619" gradientUnits="userSpaceOnUse">
<stop stop-color="#E7F6FF"/>
<stop offset="1" stop-color="#5497FF"/>
</linearGradient>
<linearGradient id="paint1_linear_1034_20579" x1="-55.0822" y1="92.7905" x2="184.868" y2="300.48" gradientUnits="userSpaceOnUse">
<stop stop-color="#DEF1FF"/>
<stop offset="1" stop-color="#5396FF"/>
</linearGradient>
</defs>
</svg>
