<svg width="50" height="50" viewBox="0 0 50 50" fill="none" xmlns="http://www.w3.org/2000/svg">
<path fill-rule="evenodd" clip-rule="evenodd" d="M3 18.6257C3 15.5207 5.52069 13 8.62567 13H37.6006C40.7052 13 43.2263 15.5183 43.2263 18.6257V31.0761C43.2263 34.1807 40.708 36.7018 37.6006 36.7018H8.62567C5.52109 36.7018 3 34.1835 3 31.0761V18.6257ZM8.62567 15.6706C6.99563 15.6706 5.67062 16.9956 5.67062 18.6257V31.0761C5.67062 32.7077 6.99523 34.0312 8.62567 34.0312H37.6006C39.2322 34.0312 40.5556 32.7066 40.5556 31.0761V18.6257C40.5556 16.994 39.231 15.6706 37.6006 15.6706H8.62567Z" fill="#5698FF"/>
<path d="M37.256 18.4414H9.2018C9.14999 18.4414 9.09869 18.4531 9.05084 18.4757C9.003 18.4984 8.95956 18.5316 8.92302 18.5735C8.88648 18.6154 8.85756 18.665 8.83792 18.7197C8.81829 18.7743 8.80832 18.8328 8.8086 18.8919V30.8123C8.8086 31.0615 8.98523 31.2604 9.2018 31.2604H37.256C37.3078 31.2607 37.3592 31.2494 37.4071 31.227C37.4551 31.2046 37.4987 31.1716 37.5354 31.13C37.5721 31.0884 37.6013 31.0389 37.6212 30.9843C37.6411 30.9298 37.6513 30.8714 37.6513 30.8123V18.8919C37.6516 18.8326 37.6416 18.7739 37.6218 18.7191C37.602 18.6643 37.5729 18.6145 37.5362 18.5726C37.4994 18.5307 37.4557 18.4976 37.4076 18.4751C37.3595 18.4525 37.308 18.4411 37.256 18.4414Z" fill="#5698FF" stroke="#5698FF" stroke-width="3.07122" stroke-linecap="round"/>
<path fill-rule="evenodd" clip-rule="evenodd" d="M46.3973 19.7437C47.2823 19.7437 47.9997 20.4611 47.9997 21.346V28.3564C47.9997 29.2414 47.2823 29.9588 46.3973 29.9588C45.5123 29.9588 44.7949 29.2414 44.7949 28.3564V21.346C44.7949 20.4611 45.5123 19.7437 46.3973 19.7437Z" fill="#5698FF"/>
</svg>
