<svg width="45" height="46" viewBox="0 0 45 46" fill="none" xmlns="http://www.w3.org/2000/svg">
<path d="M33.9525 13.1562H6.82875C4.6125 13.1562 2.8125 14.9563 2.8125 17.1725V28.8275C2.8125 31.0456 4.6125 32.8438 6.82875 32.8438H33.9525C36.1706 32.8438 37.9688 31.0437 37.9688 28.8275V17.1725C37.9688 14.9544 36.1687 13.1562 33.9525 13.1562Z" stroke="#5698FF" stroke-width="2.5" stroke-linecap="round"/>
<path d="M33.6299 17H7.36809C7.31958 17 7.27156 17.0109 7.22677 17.0321C7.18199 17.0534 7.14132 17.0845 7.10712 17.1236C7.07291 17.1628 7.04584 17.2093 7.02746 17.2605C7.00908 17.3116 6.99975 17.3664 7.00001 17.4217V28.5806C7.00001 28.8138 7.16535 29 7.36809 29H33.6299C33.6784 29.0003 33.7265 28.9897 33.7714 28.9687C33.8163 28.9478 33.8571 28.9169 33.8915 28.8779C33.9259 28.839 33.9532 28.7926 33.9718 28.7416C33.9904 28.6906 34 28.6358 34 28.5806V17.4217C34.0003 17.3662 33.9909 17.3113 33.9724 17.26C33.9538 17.2087 33.9266 17.1621 33.8922 17.1229C33.8578 17.0836 33.8169 17.0526 33.7719 17.0315C33.7268 17.0104 33.6786 16.9997 33.6299 17Z" fill="#5698FF" stroke="#5698FF" stroke-width="2.875" stroke-linecap="round"/>
<path d="M42.1875 19.7188V26.2812" stroke="#5698FF" stroke-width="3" stroke-linecap="round"/>
</svg>
