<svg width="50" height="50" viewBox="0 0 50 50" fill="none" xmlns="http://www.w3.org/2000/svg">
<path d="M35.6252 30.3137C32.6993 27.7127 28.9205 26.2759 25.0057 26.2759C21.0908 26.2759 17.3121 27.7127 14.3862 30.3137C14.1259 30.5236 13.9109 30.7842 13.7543 31.0797C13.5977 31.3752 13.5028 31.6994 13.4752 32.0327C13.4476 32.366 13.488 32.7014 13.594 33.0186C13.6999 33.3358 13.8691 33.6281 14.0914 33.878C14.3137 34.1278 14.5844 34.3299 14.8872 34.472C15.1899 34.614 15.5183 34.6932 15.8525 34.7045C16.1868 34.7159 16.5198 34.6593 16.8315 34.5381C17.1431 34.4169 17.427 34.2336 17.6657 33.9995C19.6878 32.2022 22.2991 31.2095 25.0044 31.2095C27.7098 31.2095 30.3211 32.2022 32.3432 33.9995C32.8355 34.4115 33.4689 34.6156 34.1092 34.5685C34.7495 34.5215 35.3463 34.2269 35.7731 33.7473C36.1999 33.2677 36.4231 32.6407 36.3955 31.9993C36.3679 31.3578 36.0916 30.7524 35.6252 30.3112V30.3137Z" fill="#5698FF"/>
<path d="M25.0032 16.1305C18.3766 16.1202 11.9956 18.6382 7.16163 23.171C6.90147 23.3859 6.68805 23.6517 6.5345 23.9521C6.38095 24.2526 6.29053 24.5813 6.2688 24.918C6.24708 25.2547 6.2945 25.5923 6.40817 25.91C6.52183 26.2277 6.69932 26.5188 6.92971 26.7653C7.1601 27.0118 7.43852 27.2085 7.7478 27.3434C8.05709 27.4782 8.39071 27.5483 8.72812 27.5494C9.06553 27.5505 9.39958 27.4824 9.7097 27.3495C10.0198 27.2166 10.2995 27.0216 10.5314 26.7765C14.4561 23.1063 19.6287 21.0646 25.002 21.0646C30.3753 21.0646 35.5479 23.1063 39.4726 26.7765C39.7062 27.0138 39.9854 27.2014 40.2933 27.328C40.6012 27.4547 40.9316 27.5177 41.2646 27.5134C41.5975 27.5091 41.9261 27.4375 42.2307 27.3029C42.5353 27.1683 42.8095 26.9736 43.0368 26.7303C43.2642 26.487 43.44 26.2003 43.5537 25.8873C43.6674 25.5744 43.7167 25.2417 43.6985 24.9092C43.6804 24.5767 43.5951 24.2513 43.448 23.9526C43.3009 23.6539 43.0949 23.388 42.8423 23.171C38.0085 18.6378 31.6276 16.1189 25.0007 16.128L25.0032 16.1305Z" fill="#5698FF"/>
<path d="M49.1795 15.2196C42.5254 9.28172 33.919 6 25.0008 6C16.0826 6 7.4762 9.28172 0.822091 15.2196C0.580581 15.4358 0.384012 15.6974 0.243605 15.9895C0.103199 16.2817 0.0217055 16.5986 0.00377836 16.9222C-0.0141488 17.2459 0.0318411 17.5698 0.139123 17.8757C0.246404 18.1816 0.412876 18.4633 0.629033 18.7048C0.84519 18.9463 1.1068 19.1429 1.39893 19.2833C1.69105 19.4237 2.00797 19.5052 2.33159 19.5231C2.65521 19.5411 2.97919 19.4951 3.28504 19.3878C3.59088 19.2805 3.8726 19.114 4.11411 18.8979C9.86309 13.7712 17.2968 10.9381 24.9995 10.9381C32.7023 10.9381 40.136 13.7712 45.8849 18.8979C46.373 19.3344 47.0145 19.5592 47.6684 19.5228C48.3222 19.4863 48.9347 19.1916 49.3713 18.7035C49.8078 18.2154 50.0326 17.5739 49.9962 16.9201C49.9597 16.2663 49.6651 15.6537 49.177 15.2171L49.1795 15.2196Z" fill="#5698FF"/>
<path d="M24.9992 44.5332C25.9966 44.5332 26.9532 44.1369 27.6585 43.4316C28.3638 42.7263 28.76 41.7697 28.76 40.7722C28.76 39.7747 28.3638 38.8181 27.6585 38.1128C26.9532 37.4075 25.9966 37.0112 24.9992 37.0112C24.0017 37.0112 23.0451 37.4075 22.3398 38.1128C21.6345 38.8181 21.2383 39.7747 21.2383 40.7722C21.2383 41.7697 21.6345 42.7263 22.3398 43.4316C23.0451 44.1369 24.0017 44.5332 24.9992 44.5332Z" fill="#5698FF"/>
</svg>
