<svg width="45" height="45" viewBox="0 0 45 45" fill="none" xmlns="http://www.w3.org/2000/svg">
<path d="M30.4691 26.7505C28.2811 24.8054 25.4552 23.731 22.5276 23.731C19.5999 23.731 16.7741 24.8054 14.586 26.7505C14.3913 26.9075 14.2306 27.1024 14.1135 27.3233C13.9963 27.5443 13.9253 27.7867 13.9047 28.036C13.8841 28.2852 13.9143 28.536 13.9935 28.7732C14.0728 29.0104 14.1993 29.2291 14.3656 29.4159C14.5318 29.6027 14.7343 29.7538 14.9606 29.8601C15.187 29.9663 15.4326 30.0255 15.6826 30.034C15.9325 30.0425 16.1816 30.0002 16.4146 29.9095C16.6477 29.8189 16.86 29.6819 17.0385 29.5068C18.5507 28.1627 20.5035 27.4204 22.5266 27.4204C24.5498 27.4204 26.5026 28.1627 28.0148 29.5068C28.3829 29.8149 28.8567 29.9675 29.3355 29.9323C29.8143 29.8971 30.2606 29.6768 30.5798 29.3182C30.8989 28.9595 31.0659 28.4906 31.0452 28.011C31.0246 27.5313 30.8179 27.0785 30.4691 26.7486V26.7505Z" fill="#5698FF"/>
<path d="M22.5257 16.144C17.5701 16.1363 12.7982 18.0193 9.18324 21.409C8.98868 21.5697 8.82908 21.7685 8.71425 21.9931C8.59942 22.2178 8.5318 22.4636 8.51556 22.7154C8.49931 22.9672 8.53478 23.2197 8.61978 23.4573C8.70478 23.6948 8.83751 23.9125 9.00981 24.0968C9.1821 24.2812 9.3903 24.4283 9.6216 24.5291C9.85289 24.63 10.1024 24.6824 10.3547 24.6832C10.607 24.684 10.8568 24.6331 11.0888 24.5337C11.3207 24.4343 11.5298 24.2885 11.7032 24.1052C14.6382 21.3606 18.5065 19.8338 22.5248 19.8338C26.5431 19.8338 30.4114 21.3606 33.3464 24.1052C33.521 24.2827 33.7298 24.423 33.9601 24.5177C34.1904 24.6124 34.4375 24.6595 34.6865 24.6563C34.9354 24.6531 35.1812 24.5995 35.409 24.4989C35.6367 24.3983 35.8418 24.2526 36.0118 24.0707C36.1818 23.8888 36.3133 23.6743 36.3984 23.4403C36.4834 23.2063 36.5202 22.9575 36.5066 22.7088C36.493 22.4602 36.4293 22.2169 36.3193 21.9935C36.2093 21.7701 36.0552 21.5713 35.8664 21.409C32.2514 18.019 27.4797 16.1353 22.5239 16.1421L22.5257 16.144Z" fill="#5698FF"/>
<path d="M40.606 15.4629C35.6299 11.0225 29.1938 8.56836 22.5245 8.56836C15.8552 8.56836 9.41905 11.0225 4.44291 15.4629C4.2623 15.6246 4.1153 15.8202 4.0103 16.0387C3.9053 16.2571 3.84436 16.4941 3.83095 16.7361C3.81754 16.9782 3.85194 17.2204 3.93217 17.4492C4.01239 17.6779 4.13689 17.8886 4.29854 18.0692C4.46018 18.2498 4.65582 18.3968 4.87428 18.5018C5.09274 18.6068 5.32975 18.6677 5.57176 18.6811C5.81377 18.6945 6.05606 18.6601 6.28478 18.5799C6.5135 18.4997 6.72418 18.3752 6.90479 18.2135C11.204 14.3798 16.7632 12.2611 22.5235 12.2611C28.2839 12.2611 33.843 14.3798 38.1423 18.2135C38.5073 18.54 38.987 18.7081 39.476 18.6809C39.9649 18.6536 40.423 18.4332 40.7495 18.0682C41.0759 17.7032 41.244 17.2235 41.2168 16.7345C41.1895 16.2456 40.9692 15.7875 40.6042 15.461L40.606 15.4629Z" fill="#5698FF"/>
<path d="M22.5234 37.3838C23.2694 37.3838 23.9847 37.0875 24.5122 36.56C25.0396 36.0326 25.3359 35.3172 25.3359 34.5713C25.3359 33.8254 25.0396 33.11 24.5122 32.5826C23.9847 32.0551 23.2694 31.7588 22.5234 31.7588C21.7775 31.7588 21.0621 32.0551 20.5347 32.5826C20.0073 33.11 19.7109 33.8254 19.7109 34.5713C19.7109 35.3172 20.0073 36.0326 20.5347 36.56C21.0621 37.0875 21.7775 37.3838 22.5234 37.3838Z" fill="#5698FF"/>
</svg>
