<svg width="470" height="466" viewBox="0 0 470 466" fill="none" xmlns="http://www.w3.org/2000/svg">
<mask id="path-1-inside-1_891_11554" fill="white">
<path d="M86.2485 66.3831C60.1532 89.2471 39.7723 117.809 26.713 149.818C13.6538 181.826 8.27334 216.405 10.996 250.827C13.7187 285.249 24.4701 318.574 42.4022 348.172C60.3343 377.771 84.9568 402.834 114.328 421.385L116.901 417.38C88.1561 399.224 64.0582 374.695 46.5081 345.727C28.9581 316.759 18.4358 284.145 15.7711 250.456C13.1065 216.767 18.3723 182.925 31.1533 151.599C43.9343 120.272 63.8809 92.3185 89.4202 69.9418L86.2485 66.3831Z"/>
</mask>
<path d="M86.2485 66.3831C60.1532 89.2471 39.7723 117.809 26.713 149.818C13.6538 181.826 8.27334 216.405 10.996 250.827C13.7187 285.249 24.4701 318.574 42.4022 348.172C60.3343 377.771 84.9568 402.834 114.328 421.385L116.901 417.38C88.1561 399.224 64.0582 374.695 46.5081 345.727C28.9581 316.759 18.4358 284.145 15.7711 250.456C13.1065 216.767 18.3723 182.925 31.1533 151.599C43.9343 120.272 63.8809 92.3185 89.4202 69.9418L86.2485 66.3831Z" stroke="url(#paint0_linear_891_11554)" stroke-width="6" mask="url(#path-1-inside-1_891_11554)"/>
<ellipse cx="6.94919" cy="6.97895" rx="6.94919" ry="6.97895" transform="matrix(0.503208 -0.864165 0.867866 0.496798 77.0889 70.8821)" fill="#E1F2FF"/>
<ellipse cx="6.94919" cy="6.97895" rx="6.94919" ry="6.97895" transform="matrix(0.503208 -0.864165 0.867866 0.496798 107.731 422.427)" fill="#71AAFF"/>
<mask id="path-4-inside-2_891_11554" fill="white">
<path d="M163.655 444.726C193.573 454.671 225.267 458.259 256.676 455.257C288.086 452.255 318.505 442.731 345.957 427.304C373.409 411.877 397.277 390.892 416.01 365.716C434.742 340.539 447.919 311.734 454.683 281.175C461.447 250.616 461.646 218.988 455.268 188.348C448.89 157.707 436.078 128.741 417.664 103.334C399.251 77.9276 375.649 56.6488 348.394 40.8824C321.139 25.1161 290.842 15.2154 259.473 11.8245L258.954 16.5456C289.654 19.8642 319.306 29.5539 345.98 44.9843C372.654 60.4147 395.754 81.2401 413.775 106.106C431.796 130.971 444.335 159.32 450.577 189.307C456.819 219.295 456.624 250.25 450.004 280.157C443.385 310.065 430.489 338.256 412.155 362.896C393.822 387.537 370.462 408.074 343.595 423.172C316.729 438.271 286.957 447.592 256.217 450.53C225.477 453.468 194.458 449.956 165.177 440.224L163.655 444.726Z"/>
</mask>
<path d="M163.655 444.726C193.573 454.671 225.267 458.259 256.676 455.257C288.086 452.255 318.505 442.731 345.957 427.304C373.409 411.877 397.277 390.892 416.01 365.716C434.742 340.539 447.919 311.734 454.683 281.175C461.447 250.616 461.646 218.988 455.268 188.348C448.89 157.707 436.078 128.741 417.664 103.334C399.251 77.9276 375.649 56.6488 348.394 40.8824C321.139 25.1161 290.842 15.2154 259.473 11.8245L258.954 16.5456C289.654 19.8642 319.306 29.5539 345.98 44.9843C372.654 60.4147 395.754 81.2401 413.775 106.106C431.796 130.971 444.335 159.32 450.577 189.307C456.819 219.295 456.624 250.25 450.004 280.157C443.385 310.065 430.489 338.256 412.155 362.896C393.822 387.537 370.462 408.074 343.595 423.172C316.729 438.271 286.957 447.592 256.217 450.53C225.477 453.468 194.458 449.956 165.177 440.224L163.655 444.726Z" stroke="url(#paint1_linear_891_11554)" stroke-width="6" mask="url(#path-4-inside-2_891_11554)"/>
<ellipse cx="165.169" cy="443.406" rx="6.99378" ry="6.93426" transform="rotate(180 165.169 443.406)" fill="#CBE5FF"/>
<ellipse cx="263.225" cy="15.0494" rx="6.99378" ry="6.93426" transform="rotate(180 263.225 15.0494)" fill="#7CB1FF"/>
<path d="M43.7215 233.602C43.7215 128.528 129.632 43.3488 235.608 43.3488C341.584 43.3488 427.494 128.528 427.494 233.602C427.494 338.676 341.584 423.855 235.608 423.855C129.632 423.855 43.7215 338.676 43.7215 233.602ZM408.305 233.602C408.305 139.035 330.986 62.3741 235.608 62.3741C140.23 62.3741 62.9101 139.035 62.9101 233.602C62.9101 328.169 140.23 404.83 235.608 404.83C330.986 404.83 408.306 328.169 408.305 233.602Z" fill="#5698FF"/>
<path opacity="0.7" d="M171.603 412.959C142.295 402.678 115.945 385.49 94.8209 362.874L108.9 349.947C127.911 370.301 151.626 385.77 178.003 395.024L171.603 412.959Z" fill="white"/>
<path opacity="0.7" d="M161.146 58.2576C189.798 46.2962 220.953 41.4165 251.929 44.0383L250.297 62.9946C222.418 60.635 194.379 65.0268 168.592 75.7921L161.146 58.2576Z" fill="white"/>
<path opacity="0.7" d="M99.9237 368.131C92.1854 360.459 85.1233 352.144 78.8147 343.278L94.494 332.311C100.172 340.29 106.528 347.773 113.492 354.678L99.9237 368.131Z" fill="white"/>
<path opacity="0.7" d="M403.009 325.683C383.771 360.092 354.252 387.745 318.513 404.838C282.774 421.931 242.571 427.623 203.435 421.133L206.602 402.359C241.825 408.201 278.008 403.078 310.173 387.694C342.338 372.311 368.905 347.423 386.219 316.455L403.009 325.683Z" fill="white"/>
<path d="M142.239 200.669H148.574V311.911C148.574 317.073 150.624 322.023 154.274 325.673C157.924 329.322 162.874 331.373 168.035 331.373H207.695C207.235 329.694 207.002 327.961 207.002 326.22V290.22C200.108 285.119 194.739 278.23 191.477 270.299C188.214 262.367 187.181 253.695 188.49 245.219C189.798 236.743 193.399 228.786 198.902 222.208C204.405 215.63 211.601 210.681 219.712 207.896V126.08L135.658 177.167C124.706 183.82 129.423 200.669 142.239 200.669Z" fill="#0A121E"/>
<path d="M334.342 177.167L250.279 126.091V207.907C258.391 210.692 265.587 215.641 271.09 222.219C276.593 228.797 280.194 236.754 281.502 245.23C282.811 253.706 281.778 262.378 278.515 270.31C275.253 278.241 269.884 285.13 262.99 290.231V326.231C262.99 327.972 262.757 329.705 262.297 331.384H301.957C307.118 331.384 312.068 329.333 315.718 325.684C319.368 322.034 321.418 317.084 321.418 311.922V200.669H327.753C340.577 200.669 345.294 183.82 334.342 177.167Z" fill="#0A121E"/>
<path d="M235 216.527C227.907 216.527 220.974 218.63 215.076 222.571C209.179 226.511 204.582 232.112 201.867 238.664C199.153 245.217 198.442 252.428 199.825 259.384C201.208 266.341 204.623 272.731 209.638 277.747C214.653 282.763 221.042 286.179 227.998 287.564C234.955 288.949 242.165 288.24 248.719 285.526C255.272 282.813 260.874 278.218 264.815 272.321C268.757 266.425 270.862 259.492 270.863 252.399C270.865 247.689 269.938 243.024 268.137 238.672C266.335 234.319 263.693 230.365 260.363 227.034C257.033 223.702 253.079 221.06 248.727 219.257C244.375 217.455 239.71 216.527 235 216.527ZM235 279.867C229.566 279.867 224.253 278.256 219.735 275.236C215.216 272.217 211.695 267.926 209.615 262.905C207.536 257.885 206.991 252.36 208.052 247.03C209.112 241.7 211.729 236.805 215.571 232.962C219.414 229.119 224.31 226.502 229.64 225.442C234.97 224.382 240.494 224.926 245.515 227.006C250.536 229.085 254.827 232.607 257.846 237.126C260.865 241.644 262.477 246.956 262.477 252.391C262.477 256 261.767 259.573 260.387 262.908C259.006 266.242 256.982 269.272 254.431 271.824C251.88 274.376 248.85 276.401 245.516 277.782C242.182 279.164 238.609 279.875 235 279.875V279.867Z" fill="#5B91E3"/>
<defs>
<linearGradient id="paint0_linear_891_11554" x1="-37.4771" y1="85.9263" x2="74.6401" y2="507.945" gradientUnits="userSpaceOnUse">
<stop stop-color="#E7F6FF"/>
<stop offset="1" stop-color="#5497FF"/>
</linearGradient>
<linearGradient id="paint1_linear_891_11554" x1="199.14" y1="584.27" x2="640.515" y2="69.9588" gradientUnits="userSpaceOnUse">
<stop stop-color="#DEF1FF"/>
<stop offset="1" stop-color="#5396FF"/>
</linearGradient>
</defs>
</svg>
