<svg width="470" height="466" viewBox="0 0 470 466" fill="none" xmlns="http://www.w3.org/2000/svg">
<mask id="path-1-inside-1_1587_20064" fill="white">
<path d="M86.2485 66.3831C60.1532 89.2471 39.7723 117.809 26.713 149.818C13.6538 181.826 8.27334 216.405 10.996 250.827C13.7187 285.249 24.4701 318.574 42.4022 348.172C60.3343 377.771 84.9568 402.834 114.328 421.385L116.901 417.38C88.1561 399.224 64.0582 374.695 46.5081 345.727C28.9581 316.759 18.4358 284.145 15.7711 250.456C13.1065 216.767 18.3723 182.925 31.1533 151.599C43.9343 120.272 63.8809 92.3185 89.4202 69.9418L86.2485 66.3831Z"/>
</mask>
<path d="M86.2485 66.3831C60.1532 89.2471 39.7723 117.809 26.713 149.818C13.6538 181.826 8.27334 216.405 10.996 250.827C13.7187 285.249 24.4701 318.574 42.4022 348.172C60.3343 377.771 84.9568 402.834 114.328 421.385L116.901 417.38C88.1561 399.224 64.0582 374.695 46.5081 345.727C28.9581 316.759 18.4358 284.145 15.7711 250.456C13.1065 216.767 18.3723 182.925 31.1533 151.599C43.9343 120.272 63.8809 92.3185 89.4202 69.9418L86.2485 66.3831Z" stroke="url(#paint0_linear_1587_20064)" stroke-width="6" mask="url(#path-1-inside-1_1587_20064)"/>
<ellipse cx="6.94919" cy="6.97895" rx="6.94919" ry="6.97895" transform="matrix(0.503208 -0.864165 0.867866 0.496798 77.0889 70.8821)" fill="#E1F2FF"/>
<ellipse cx="6.94919" cy="6.97895" rx="6.94919" ry="6.97895" transform="matrix(0.503208 -0.864165 0.867866 0.496798 107.731 422.427)" fill="#71AAFF"/>
<mask id="path-4-inside-2_1587_20064" fill="white">
<path d="M163.655 444.726C193.573 454.671 225.267 458.259 256.676 455.257C288.086 452.255 318.505 442.731 345.957 427.304C373.409 411.877 397.277 390.892 416.01 365.716C434.742 340.539 447.919 311.734 454.683 281.175C461.447 250.616 461.646 218.988 455.268 188.348C448.89 157.707 436.078 128.741 417.664 103.334C399.251 77.9276 375.649 56.6488 348.394 40.8824C321.139 25.1161 290.842 15.2154 259.473 11.8246L258.954 16.5456C289.654 19.8642 319.306 29.554 345.98 44.9844C372.654 60.4148 395.754 81.2401 413.775 106.106C431.796 130.971 444.335 159.32 450.577 189.307C456.819 219.295 456.624 250.25 450.004 280.157C443.385 310.065 430.489 338.256 412.155 362.896C393.822 387.537 370.462 408.074 343.595 423.172C316.729 438.271 286.957 447.592 256.217 450.53C225.477 453.468 194.458 449.956 165.177 440.224L163.655 444.726Z"/>
</mask>
<path d="M163.655 444.726C193.573 454.671 225.267 458.259 256.676 455.257C288.086 452.255 318.505 442.731 345.957 427.304C373.409 411.877 397.277 390.892 416.01 365.716C434.742 340.539 447.919 311.734 454.683 281.175C461.447 250.616 461.646 218.988 455.268 188.348C448.89 157.707 436.078 128.741 417.664 103.334C399.251 77.9276 375.649 56.6488 348.394 40.8824C321.139 25.1161 290.842 15.2154 259.473 11.8246L258.954 16.5456C289.654 19.8642 319.306 29.554 345.98 44.9844C372.654 60.4148 395.754 81.2401 413.775 106.106C431.796 130.971 444.335 159.32 450.577 189.307C456.819 219.295 456.624 250.25 450.004 280.157C443.385 310.065 430.489 338.256 412.155 362.896C393.822 387.537 370.462 408.074 343.595 423.172C316.729 438.271 286.957 447.592 256.217 450.53C225.477 453.468 194.458 449.956 165.177 440.224L163.655 444.726Z" stroke="url(#paint1_linear_1587_20064)" stroke-width="6" mask="url(#path-4-inside-2_1587_20064)"/>
<ellipse cx="165.169" cy="443.406" rx="6.99378" ry="6.93426" transform="rotate(180 165.169 443.406)" fill="#CBE5FF"/>
<ellipse cx="263.225" cy="15.0494" rx="6.99378" ry="6.93426" transform="rotate(180 263.225 15.0494)" fill="#7CB1FF"/>
<path d="M43.7215 233.602C43.7215 128.528 129.632 43.3488 235.608 43.3488C341.584 43.3488 427.494 128.528 427.494 233.602C427.494 338.676 341.584 423.855 235.608 423.855C129.632 423.855 43.7215 338.676 43.7215 233.602ZM408.305 233.602C408.305 139.035 330.986 62.3741 235.608 62.3741C140.23 62.3741 62.9101 139.035 62.9101 233.602C62.9101 328.169 140.23 404.83 235.608 404.83C330.986 404.83 408.306 328.169 408.305 233.602Z" fill="#5698FF"/>
<path opacity="0.7" d="M171.603 412.959C142.295 402.678 115.945 385.49 94.8208 362.874L108.9 349.947C127.911 370.301 151.626 385.77 178.003 395.024L171.603 412.959Z" fill="white"/>
<path opacity="0.7" d="M161.146 58.2576C189.798 46.2962 220.953 41.4165 251.929 44.0383L250.297 62.9946C222.418 60.635 194.379 65.0268 168.592 75.7921L161.146 58.2576Z" fill="white"/>
<path opacity="0.7" d="M99.9237 368.131C92.1855 360.459 85.1234 352.144 78.8147 343.278L94.494 332.311C100.172 340.29 106.528 347.773 113.492 354.678L99.9237 368.131Z" fill="white"/>
<path opacity="0.7" d="M403.009 325.683C383.771 360.092 354.252 387.745 318.513 404.838C282.774 421.931 242.571 427.623 203.435 421.133L206.602 402.359C241.825 408.201 278.008 403.078 310.173 387.694C342.338 372.311 368.905 347.423 386.219 316.455L403.009 325.683Z" fill="white"/>
<path d="M141.72 199.811H148.142V311.66C148.142 316.849 150.22 321.826 153.92 325.496C157.62 329.165 162.638 331.227 167.871 331.227H208.077C207.61 329.539 207.374 327.796 207.374 326.046V289.851C200.385 284.721 194.943 277.795 191.635 269.82C188.327 261.846 187.28 253.126 188.607 244.604C189.934 236.082 193.584 228.081 199.162 221.468C204.741 214.854 212.036 209.878 220.26 207.078V124.816L135.048 176.181C123.945 182.871 128.727 199.811 141.72 199.811Z" fill="white"/>
<path d="M334.958 176.17L249.745 124.816V207.078C257.968 209.878 265.262 214.854 270.841 221.468C276.419 228.081 280.069 236.082 281.395 244.604C282.722 253.126 281.675 261.846 278.368 269.82C275.06 277.795 269.618 284.721 262.63 289.851V326.046C262.63 327.796 262.393 329.539 261.927 331.227H302.129C307.361 331.227 312.38 329.165 316.079 325.496C319.779 321.826 321.858 316.849 321.858 311.66V199.8H328.279C341.278 199.8 346.061 182.86 334.958 176.17Z" fill="white"/>
<path d="M235 215.527C227.907 215.527 220.974 217.63 215.076 221.571C209.179 225.511 204.582 231.112 201.867 237.664C199.153 244.217 198.442 251.428 199.825 258.384C201.208 265.341 204.623 271.731 209.638 276.747C214.653 281.763 221.042 285.179 227.998 286.564C234.955 287.949 242.165 287.24 248.719 284.526C255.272 281.813 260.874 277.218 264.815 271.321C268.757 265.425 270.862 258.492 270.863 251.399C270.865 246.689 269.938 242.024 268.137 237.672C266.335 233.319 263.693 229.365 260.363 226.034C257.033 222.702 253.079 220.06 248.727 218.257C244.375 216.455 239.71 215.527 235 215.527ZM235 278.867C229.566 278.867 224.253 277.256 219.735 274.236C215.216 271.217 211.695 266.926 209.615 261.905C207.536 256.885 206.991 251.36 208.052 246.03C209.112 240.7 211.729 235.805 215.571 231.962C219.414 228.119 224.31 225.502 229.64 224.442C234.97 223.382 240.494 223.926 245.515 226.006C250.536 228.085 254.827 231.607 257.846 236.126C260.865 240.644 262.477 245.956 262.477 251.391C262.477 255 261.767 258.573 260.387 261.908C259.006 265.242 256.982 268.272 254.431 270.824C251.88 273.376 248.85 275.401 245.516 276.782C242.182 278.164 238.609 278.875 235 278.875V278.867Z" fill="#5698FF"/>
<defs>
<linearGradient id="paint0_linear_1587_20064" x1="-37.4771" y1="85.9263" x2="74.6401" y2="507.945" gradientUnits="userSpaceOnUse">
<stop stop-color="#E7F6FF"/>
<stop offset="1" stop-color="#5497FF"/>
</linearGradient>
<linearGradient id="paint1_linear_1587_20064" x1="199.14" y1="584.27" x2="640.515" y2="69.9588" gradientUnits="userSpaceOnUse">
<stop stop-color="#DEF1FF"/>
<stop offset="1" stop-color="#5396FF"/>
</linearGradient>
</defs>
</svg>
