<svg width="50" height="51" viewBox="0 0 50 51" fill="none" xmlns="http://www.w3.org/2000/svg">
<path d="M8.85619 19.4287H9.97142V39.0137C9.97142 39.9224 10.3324 40.7939 10.975 41.4364C11.6175 42.079 12.489 42.4399 13.3977 42.4399H20.3801C20.2991 42.1443 20.258 41.8392 20.258 41.5327V35.1948C19.0443 34.2967 18.0991 33.0838 17.5247 31.6875C16.9503 30.2911 16.7684 28.7643 16.9988 27.272C17.2292 25.7798 17.8631 24.3789 18.832 23.2208C19.8008 22.0627 21.0677 21.1914 22.4958 20.7012V6.29688L7.6975 15.291C5.76927 16.4624 6.59984 19.4287 8.85619 19.4287Z" fill="#0A121E"/>
<path d="M42.6768 15.291L27.877 6.29883V20.7031C29.3051 21.1934 30.572 22.0647 31.5408 23.2228C32.5097 24.3809 33.1435 25.7817 33.3739 27.274C33.6043 28.7662 33.4225 30.293 32.8481 31.6894C32.2736 33.0858 31.3285 34.2986 30.1147 35.1968V41.5347C30.1148 41.8412 30.0737 42.1463 29.9927 42.4419H36.9751C37.8838 42.4419 38.7553 42.0809 39.3978 41.4384C40.0404 40.7958 40.4014 39.9243 40.4014 39.0156V19.4287H41.5166C43.7744 19.4287 44.605 16.4624 42.6768 15.291Z" fill="#0A121E"/>
<path d="M25.187 22.2207C23.9383 22.2207 22.7176 22.591 21.6793 23.2847C20.641 23.9784 19.8317 24.9644 19.3538 26.1181C18.8759 27.2717 18.7508 28.5412 18.9943 29.7659C19.2378 30.9907 19.839 32.1157 20.7218 32.9988C21.6047 33.8819 22.7296 34.4833 23.9543 34.7271C25.179 34.9709 26.4485 34.8461 27.6022 34.3684C28.756 33.8908 29.7422 33.0817 30.4362 32.0436C31.1301 31.0055 31.5007 29.7849 31.501 28.5361C31.5012 27.7068 31.3381 26.8856 31.0209 26.1194C30.7037 25.3531 30.2387 24.6569 29.6523 24.0704C29.066 23.4839 28.3698 23.0187 27.6037 22.7013C26.8375 22.384 26.0163 22.2206 25.187 22.2207ZM25.187 33.3721C24.2303 33.3721 23.295 33.0884 22.4995 32.5568C21.704 32.0253 21.084 31.2698 20.7178 30.3859C20.3517 29.5019 20.2559 28.5293 20.4426 27.5909C20.6292 26.6526 21.0899 25.7906 21.7665 25.1141C22.443 24.4376 23.3049 23.9769 24.2433 23.7902C25.1816 23.6036 26.1543 23.6994 27.0382 24.0655C27.9221 24.4316 28.6776 25.0516 29.2092 25.8472C29.7407 26.6427 30.0244 27.5779 30.0244 28.5347C30.0245 29.17 29.8995 29.7992 29.6565 30.3862C29.4134 30.9733 29.0571 31.5067 28.6079 31.956C28.1587 32.4054 27.6254 32.7618 27.0385 33.005C26.4515 33.2483 25.8224 33.3735 25.187 33.3735V33.3721Z" fill="#5B91E3"/>
</svg>
