<svg width="220" height="219" viewBox="0 0 220 219" fill="none" xmlns="http://www.w3.org/2000/svg">
<mask id="path-1-inside-1_1034_20154" fill="white">
<path d="M188.303 40.1877C177.558 28.0285 164.135 18.5318 149.093 12.4468C134.05 6.3617 117.8 3.85464 101.623 5.12329C85.4456 6.39194 69.7846 11.4016 55.8745 19.7572C41.9645 28.1128 30.1859 39.5859 21.4677 53.2715L23.35 54.4706C31.8825 41.0766 43.4101 29.848 57.0238 21.6704C70.6374 13.4928 85.9648 8.5899 101.797 7.34828C117.629 6.10666 133.534 8.56031 148.256 14.5157C162.978 20.4711 176.115 29.7654 186.631 41.6656L188.303 40.1877Z"/>
</mask>
<path d="M188.303 40.1877C177.558 28.0285 164.135 18.5318 149.093 12.4468C134.05 6.3617 117.8 3.85464 101.623 5.12329C85.4456 6.39194 69.7846 11.4016 55.8745 19.7572C41.9645 28.1128 30.1859 39.5859 21.4677 53.2715L23.35 54.4706C31.8825 41.0766 43.4101 29.848 57.0238 21.6704C70.6374 13.4928 85.9648 8.5899 101.797 7.34828C117.629 6.10666 133.534 8.56031 148.256 14.5157C162.978 20.4711 176.115 29.7654 186.631 41.6656L188.303 40.1877Z" stroke="url(#paint0_linear_1034_20154)" stroke-width="6" mask="url(#path-1-inside-1_1034_20154)"/>
<ellipse cx="187.381" cy="40.3715" rx="3.2588" ry="3.2588" transform="rotate(30 187.381 40.3715)" fill="#E1F2FF"/>
<ellipse cx="22.1703" cy="54.6489" rx="3.2588" ry="3.2588" transform="rotate(30 22.1703 54.6489)" fill="#71AAFF"/>
<mask id="path-4-inside-2_1034_20154" fill="white">
<path d="M10.4975 76.2562C5.824 90.1968 4.13776 104.965 5.54844 119.6C6.95913 134.236 11.4351 148.41 18.6852 161.201C25.9354 173.993 35.7972 185.114 47.6291 193.843C59.4611 202.572 72.998 208.711 87.3594 211.863C101.721 215.015 116.585 215.108 130.984 212.136C145.384 209.164 158.997 203.194 170.937 194.614C182.877 186.034 192.877 175.037 200.287 162.337C207.696 149.637 212.349 135.52 213.943 120.903L211.724 120.662C210.164 134.967 205.611 148.783 198.359 161.212C191.107 173.641 181.32 184.404 169.635 192.802C157.949 201.199 144.626 207.042 130.533 209.95C116.441 212.859 101.893 212.768 87.8378 209.683C73.7824 206.599 60.5339 200.59 48.954 192.047C37.3742 183.504 27.7225 172.62 20.6269 160.101C13.5312 147.582 9.15061 133.71 7.76998 119.386C6.38936 105.063 8.03966 90.6092 12.6135 76.9656L10.4975 76.2562Z"/>
</mask>
<path d="M10.4975 76.2562C5.824 90.1968 4.13776 104.965 5.54844 119.6C6.95913 134.236 11.4351 148.41 18.6852 161.201C25.9354 173.993 35.7972 185.114 47.6291 193.843C59.4611 202.572 72.998 208.711 87.3594 211.863C101.721 215.015 116.585 215.108 130.984 212.136C145.384 209.164 158.997 203.194 170.937 194.614C182.877 186.034 192.877 175.037 200.287 162.337C207.696 149.637 212.349 135.52 213.943 120.903L211.724 120.662C210.164 134.967 205.611 148.783 198.359 161.212C191.107 173.641 181.32 184.404 169.635 192.802C157.949 201.199 144.626 207.042 130.533 209.95C116.441 212.859 101.893 212.768 87.8378 209.683C73.7824 206.599 60.5339 200.59 48.954 192.047C37.3742 183.504 27.7225 172.62 20.6269 160.101C13.5312 147.582 9.15061 133.71 7.76998 119.386C6.38936 105.063 8.03966 90.6092 12.6135 76.9656L10.4975 76.2562Z" stroke="url(#paint1_linear_1034_20154)" stroke-width="6" mask="url(#path-4-inside-2_1034_20154)"/>
<ellipse cx="11.1182" cy="76.9619" rx="3.2588" ry="3.2588" transform="rotate(-90 11.1182 76.9619)" fill="#CBE5FF"/>
<ellipse cx="212.427" cy="122.651" rx="3.2588" ry="3.2588" transform="rotate(-90 212.427 122.651)" fill="#7CB1FF"/>
<path d="M109.717 20.3717C159.098 20.3717 199.128 60.4022 199.128 109.783C199.128 159.163 159.098 199.193 109.717 199.193C60.3372 199.193 20.3066 159.163 20.3066 109.783C20.3066 60.4023 60.3372 20.3717 109.717 20.3717ZM109.717 190.252C154.16 190.252 190.187 154.225 190.187 109.783C190.187 65.3403 154.16 29.3127 109.717 29.3127C65.2753 29.3127 29.2477 65.3403 29.2477 109.783C29.2477 154.225 65.2753 190.252 109.717 190.252Z" fill="#5698FF"/>
<path opacity="0.7" d="M25.4272 79.959C30.2591 66.3026 38.3368 54.0246 48.9652 44.1818L55.0404 50.7418C45.4748 59.6004 38.2049 70.6506 33.8562 82.9413L25.4272 79.959Z" fill="white"/>
<path opacity="0.7" d="M192.122 75.0863C197.743 88.4372 200.036 102.954 198.804 117.387L189.896 116.627C191.005 103.637 188.941 90.5717 183.881 78.556L192.122 75.0863Z" fill="white"/>
<path opacity="0.7" d="M46.4945 46.5595C50.1002 42.9538 54.0077 39.6631 58.1744 36.7236L63.3287 44.0295C59.5787 46.6751 56.0619 49.6367 52.8168 52.8818L46.4945 46.5595Z" fill="white"/>
<path opacity="0.7" d="M66.4425 187.785C50.2718 178.821 37.276 165.066 29.2431 148.413C21.2102 131.761 18.535 113.028 21.5854 94.7919L30.4079 96.2677C27.6626 112.68 30.0703 129.539 37.2999 144.527C44.5295 159.515 56.2257 171.894 70.7794 179.961L66.4425 187.785Z" fill="white"/>
<path d="M134.677 88.7188H77.4162C72.7375 88.7188 68.9375 92.5188 68.9375 97.1975V121.802C68.9375 126.485 72.7375 130.281 77.4162 130.281H134.677C139.36 130.281 143.156 126.481 143.156 121.802V97.1975C143.156 92.5148 139.356 88.7188 134.677 88.7188Z" stroke="#5698FF" stroke-width="2.875" stroke-linecap="round"/>
<path d="M136.15 96H75.8452C75.7339 96 75.6236 96.0246 75.5207 96.0723C75.4179 96.1201 75.3245 96.19 75.246 96.2782C75.1674 96.3664 75.1053 96.471 75.063 96.5861C75.0208 96.7012 74.9994 96.8244 75 96.9488V122.056C75 122.581 75.3797 123 75.8452 123H136.15C136.262 123.001 136.372 122.977 136.475 122.93C136.578 122.882 136.672 122.813 136.751 122.725C136.83 122.638 136.892 122.533 136.935 122.419C136.978 122.304 137 122.181 137 122.056V96.9488C137.001 96.824 136.979 96.7003 136.937 96.5849C136.894 96.4695 136.831 96.3647 136.752 96.2764C136.673 96.1882 136.579 96.1183 136.476 96.0709C136.373 96.0234 136.262 95.9993 136.15 96Z" fill="#5698FF" stroke="#5698FF" stroke-width="2.875" stroke-linecap="round"/>
<path d="M152.062 102.573V116.427" stroke="#5698FF" stroke-width="4" stroke-linecap="round"/>
<defs>
<linearGradient id="paint0_linear_1034_20154" x1="179.119" y1="-17.4631" x2="-18.9864" y2="35.619" gradientUnits="userSpaceOnUse">
<stop stop-color="#E7F6FF"/>
<stop offset="1" stop-color="#5497FF"/>
</linearGradient>
<linearGradient id="paint1_linear_1034_20154" x1="-55.0822" y1="92.791" x2="184.868" y2="300.48" gradientUnits="userSpaceOnUse">
<stop stop-color="#DEF1FF"/>
<stop offset="1" stop-color="#5396FF"/>
</linearGradient>
</defs>
</svg>
