<svg width="219" height="220" viewBox="0 0 219 220" fill="none" xmlns="http://www.w3.org/2000/svg">
<mask id="path-1-inside-1_1034_20174" fill="white">
<path d="M187.803 40.6877C177.058 28.5285 163.635 19.0318 148.593 12.9468C133.55 6.8617 117.3 4.35464 101.123 5.62329C84.9456 6.89194 69.2846 11.9016 55.3745 20.2572C41.4645 28.6128 29.6859 40.0859 20.9677 53.7715L22.85 54.9706C31.3825 41.5766 42.9101 30.348 56.5238 22.1704C70.1374 13.9928 85.4648 9.0899 101.297 7.84828C117.129 6.60666 133.034 9.06031 147.756 15.0157C162.478 20.9711 175.615 30.2654 186.131 42.1656L187.803 40.6877Z"/>
</mask>
<path d="M187.803 40.6877C177.058 28.5285 163.635 19.0318 148.593 12.9468C133.55 6.8617 117.3 4.35464 101.123 5.62329C84.9456 6.89194 69.2846 11.9016 55.3745 20.2572C41.4645 28.6128 29.6859 40.0859 20.9677 53.7715L22.85 54.9706C31.3825 41.5766 42.9101 30.348 56.5238 22.1704C70.1374 13.9928 85.4648 9.0899 101.297 7.84828C117.129 6.60666 133.034 9.06031 147.756 15.0157C162.478 20.9711 175.615 30.2654 186.131 42.1656L187.803 40.6877Z" stroke="url(#paint0_linear_1034_20174)" stroke-width="6" mask="url(#path-1-inside-1_1034_20174)"/>
<ellipse cx="186.881" cy="40.8715" rx="3.2588" ry="3.2588" transform="rotate(30 186.881 40.8715)" fill="#E1F2FF"/>
<ellipse cx="21.6703" cy="55.1489" rx="3.2588" ry="3.2588" transform="rotate(30 21.6703 55.1489)" fill="#71AAFF"/>
<mask id="path-4-inside-2_1034_20174" fill="white">
<path d="M9.99746 76.7562C5.324 90.6968 3.63776 105.465 5.04844 120.1C6.45913 134.736 10.9351 148.91 18.1852 161.701C25.4354 174.493 35.2972 185.614 47.1291 194.343C58.9611 203.072 72.498 209.211 86.8594 212.363C101.221 215.515 116.085 215.608 130.484 212.636C144.884 209.664 158.497 203.694 170.437 195.114C182.377 186.534 192.377 175.537 199.787 162.837C207.196 150.137 211.849 136.02 213.443 121.403L211.224 121.162C209.664 135.467 205.111 149.283 197.859 161.712C190.607 174.141 180.82 184.904 169.135 193.302C157.449 201.699 144.126 207.542 130.033 210.45C115.941 213.359 101.393 213.268 87.3378 210.183C73.2824 207.099 60.0339 201.09 48.454 192.547C36.8742 184.004 27.2225 173.12 20.1269 160.601C13.0312 148.082 8.65061 134.21 7.26998 119.886C5.88936 105.563 7.53966 91.1092 12.1135 77.4656L9.99746 76.7562Z"/>
</mask>
<path d="M9.99746 76.7562C5.324 90.6968 3.63776 105.465 5.04844 120.1C6.45913 134.736 10.9351 148.91 18.1852 161.701C25.4354 174.493 35.2972 185.614 47.1291 194.343C58.9611 203.072 72.498 209.211 86.8594 212.363C101.221 215.515 116.085 215.608 130.484 212.636C144.884 209.664 158.497 203.694 170.437 195.114C182.377 186.534 192.377 175.537 199.787 162.837C207.196 150.137 211.849 136.02 213.443 121.403L211.224 121.162C209.664 135.467 205.111 149.283 197.859 161.712C190.607 174.141 180.82 184.904 169.135 193.302C157.449 201.699 144.126 207.542 130.033 210.45C115.941 213.359 101.393 213.268 87.3378 210.183C73.2824 207.099 60.0339 201.09 48.454 192.547C36.8742 184.004 27.2225 173.12 20.1269 160.601C13.0312 148.082 8.65061 134.21 7.26998 119.886C5.88936 105.563 7.53966 91.1092 12.1135 77.4656L9.99746 76.7562Z" stroke="url(#paint1_linear_1034_20174)" stroke-width="6" mask="url(#path-4-inside-2_1034_20174)"/>
<ellipse cx="10.6182" cy="77.4619" rx="3.2588" ry="3.2588" transform="rotate(-90 10.6182 77.4619)" fill="#CBE5FF"/>
<ellipse cx="211.927" cy="123.151" rx="3.2588" ry="3.2588" transform="rotate(-90 211.927 123.151)" fill="#7CB1FF"/>
<path d="M109.217 20.8717C158.598 20.8717 198.628 60.9022 198.628 110.283C198.628 159.663 158.598 199.693 109.217 199.693C59.8372 199.693 19.8066 159.663 19.8066 110.283C19.8066 60.9023 59.8372 20.8717 109.217 20.8717ZM109.217 190.752C153.66 190.752 189.687 154.725 189.687 110.283C189.687 65.8403 153.66 29.8127 109.217 29.8127C64.7753 29.8127 28.7477 65.8403 28.7477 110.283C28.7477 154.725 64.7753 190.752 109.217 190.752Z" fill="#5698FF"/>
<path opacity="0.7" d="M24.9272 80.459C29.7591 66.8026 37.8368 54.5246 48.4652 44.6818L54.5404 51.2418C44.9748 60.1004 37.7049 71.1506 33.3562 83.4413L24.9272 80.459Z" fill="white"/>
<path opacity="0.7" d="M191.622 75.5863C197.243 88.9372 199.536 103.454 198.304 117.887L189.396 117.127C190.505 104.137 188.441 91.0717 183.381 79.056L191.622 75.5863Z" fill="white"/>
<path opacity="0.7" d="M45.9945 47.0595C49.6002 43.4538 53.5077 40.1631 57.6744 37.2236L62.8287 44.5295C59.0787 47.1751 55.5619 50.1367 52.3168 53.3818L45.9945 47.0595Z" fill="white"/>
<path opacity="0.7" d="M65.9425 188.285C49.7718 179.321 36.776 165.566 28.7431 148.913C20.7102 132.261 18.035 113.528 21.0854 95.2919L29.9079 96.7677C27.1626 113.18 29.5703 130.039 36.7999 145.027C44.0295 160.015 55.7257 172.394 70.2794 180.461L65.9425 188.285Z" fill="white"/>
<path d="M126.323 119.473C121.704 115.367 115.738 113.099 109.557 113.099C103.377 113.099 97.4111 115.367 92.7919 119.473C92.3809 119.805 92.0415 120.216 91.7943 120.683C91.547 121.149 91.3971 121.661 91.3536 122.187C91.3101 122.713 91.3739 123.243 91.5411 123.743C91.7083 124.244 91.9755 124.706 92.3265 125.1C92.6774 125.495 93.1048 125.814 93.5828 126.038C94.0607 126.262 94.5792 126.387 95.1068 126.405C95.6345 126.423 96.1603 126.334 96.6523 126.142C97.1444 125.951 97.5924 125.662 97.9694 125.292C101.162 122.455 105.284 120.887 109.555 120.887C113.826 120.887 117.949 122.455 121.141 125.292C121.919 125.942 122.919 126.265 123.93 126.19C124.94 126.116 125.883 125.651 126.556 124.894C127.23 124.137 127.583 123.147 127.539 122.134C127.495 121.122 127.059 120.166 126.323 119.469V119.473Z" fill="#5698FF"/>
<path d="M109.555 97.0811C99.0935 97.065 89.0196 101.04 81.3879 108.196C80.9771 108.535 80.6402 108.955 80.3978 109.429C80.1554 109.904 80.0126 110.423 79.9783 110.954C79.944 111.486 80.0189 112.019 80.1983 112.52C80.3778 113.022 80.658 113.481 81.0217 113.871C81.3855 114.26 81.825 114.57 82.3133 114.783C82.8016 114.996 83.3283 115.107 83.861 115.108C84.3937 115.11 84.921 115.003 85.4106 114.793C85.9003 114.583 86.3417 114.275 86.7079 113.888C92.904 108.094 101.07 104.871 109.553 104.871C118.037 104.871 126.203 108.094 132.399 113.888C132.768 114.263 133.208 114.559 133.695 114.759C134.181 114.959 134.702 115.058 135.228 115.052C135.754 115.045 136.272 114.932 136.753 114.719C137.234 114.507 137.667 114.199 138.026 113.815C138.385 113.431 138.662 112.979 138.842 112.484C139.022 111.99 139.099 111.465 139.071 110.94C139.042 110.415 138.907 109.902 138.675 109.43C138.443 108.959 138.118 108.539 137.719 108.196C130.087 101.039 120.014 97.0629 109.551 97.0772L109.555 97.0811Z" fill="#5698FF"/>
<path d="M147.726 95.644C137.221 86.2698 123.633 81.0889 109.554 81.0889C95.4739 81.0889 81.8866 86.2698 71.3814 95.644C71.0001 95.9853 70.6898 96.3983 70.4681 96.8595C70.2464 97.3207 70.1178 97.821 70.0895 98.332C70.0612 98.8429 70.1338 99.3544 70.3031 99.8372C70.4725 100.32 70.7353 100.765 71.0766 101.146C71.4178 101.527 71.8309 101.838 72.2921 102.059C72.7532 102.281 73.2536 102.41 73.7645 102.438C74.2754 102.466 74.7869 102.394 75.2698 102.224C75.7526 102.055 76.1974 101.792 76.5787 101.451C85.6549 93.3574 97.3909 88.8847 109.552 88.8847C121.712 88.8847 133.448 93.3574 142.525 101.451C143.295 102.14 144.308 102.495 145.34 102.437C146.372 102.38 147.339 101.915 148.029 101.144C148.718 100.374 149.073 99.3608 149.015 98.3286C148.958 97.2964 148.492 96.3293 147.722 95.6401L147.726 95.644Z" fill="#5698FF"/>
<path d="M109.551 141.921C111.126 141.921 112.636 141.295 113.75 140.182C114.863 139.068 115.489 137.558 115.489 135.983C115.489 134.409 114.863 132.898 113.75 131.785C112.636 130.671 111.126 130.046 109.551 130.046C107.977 130.046 106.466 130.671 105.353 131.785C104.239 132.898 103.614 134.409 103.614 135.983C103.614 137.558 104.239 139.068 105.353 140.182C106.466 141.295 107.977 141.921 109.551 141.921Z" fill="#5698FF"/>
<defs>
<linearGradient id="paint0_linear_1034_20174" x1="178.619" y1="-16.9631" x2="-19.4864" y2="36.119" gradientUnits="userSpaceOnUse">
<stop stop-color="#E7F6FF"/>
<stop offset="1" stop-color="#5497FF"/>
</linearGradient>
<linearGradient id="paint1_linear_1034_20174" x1="-55.5822" y1="93.291" x2="184.368" y2="300.98" gradientUnits="userSpaceOnUse">
<stop stop-color="#DEF1FF"/>
<stop offset="1" stop-color="#5396FF"/>
</linearGradient>
</defs>
</svg>
