<svg width="45" height="45" viewBox="0 0 45 45" fill="none" xmlns="http://www.w3.org/2000/svg">
<g clip-path="url(#clip0_933_7326)">
<path d="M29.8837 42.1875H9.31312C6.72187 42.1875 4.48688 41.4994 2.85188 40.1981C0.98625 38.7112 0 36.5044 0 33.8212C0 31.4775 0.885 29.4431 2.56125 27.9394C3.9 26.7375 5.73937 25.8994 7.7475 25.5806C7.75125 25.5806 7.75312 25.5806 7.755 25.5769C8.32125 22.1475 9.84937 19.2394 12.1762 17.1675C14.4403 15.1592 17.3642 14.054 20.3906 14.0625C23.0475 14.0625 25.53 14.8875 27.5719 16.4512C29.3566 17.8366 30.7338 19.6784 31.5581 21.7819C34.1437 22.2056 36.3675 23.2856 37.9912 24.9056C39.8137 26.7281 40.7812 29.1544 40.7812 31.9219C40.7812 34.8094 39.6263 37.4475 37.53 39.3506C35.5181 41.1806 32.8013 42.1875 29.8837 42.1875Z" fill="#5698FF"/>
<path d="M33.5306 19.3294C34.9369 19.6856 36.2812 20.25 37.5244 20.9981C38.1134 19.2647 38.1226 17.3867 37.5507 15.6476C36.9787 13.9085 35.8566 12.4026 34.3537 11.3571C32.8509 10.3116 31.0487 9.78335 29.2192 9.85197C27.3897 9.92059 25.6322 10.5824 24.2119 11.7375C26.0509 12.2192 27.7752 13.0631 29.2837 14.22C31.0557 15.5924 32.5053 17.3364 33.5306 19.3294Z" fill="#5698FF"/>
<path d="M45 16.875H39.375V19.6875H45V16.875Z" fill="#5698FF"/>
<path d="M30.9375 2.8125H28.125V8.4375H30.9375V2.8125Z" fill="#5698FF"/>
<path d="M22.4437 11.3887L23.5369 10.2937L19.6144 6.37125L17.6269 8.36062L20.5406 11.2762H20.5931C21.2119 11.2762 21.8306 11.3137 22.4419 11.3887H22.4437Z" fill="#5698FF"/>
<path d="M39.45 6.375L35.5256 10.2975L37.5131 12.285L41.4375 8.36625L39.45 6.37875V6.375Z" fill="#5698FF"/>
</g>
<defs>
<clipPath id="clip0_933_7326">
<rect width="45" height="45" fill="white"/>
</clipPath>
</defs>
</svg>
