<svg width="50" height="50" viewBox="0 0 50 50" fill="none" xmlns="http://www.w3.org/2000/svg">
<path d="M32.8837 44.375H12.3131C9.72187 44.375 7.48687 43.6869 5.85187 42.3856C3.98625 40.8987 3 38.6919 3 36.0087C3 33.665 3.885 31.6306 5.56125 30.1269C6.9 28.925 8.73937 28.0869 10.7475 27.7681C10.7512 27.7681 10.7531 27.7681 10.755 27.7644C11.3212 24.335 12.8494 21.4269 15.1762 19.355C17.4403 17.3467 20.3642 16.2415 23.3906 16.25C26.0475 16.25 28.53 17.075 30.5719 18.6388C32.3566 20.0241 33.7338 21.8659 34.5581 23.9694C37.1437 24.3931 39.3675 25.4731 40.9912 27.0931C42.8137 28.9156 43.7812 31.3419 43.7812 34.1094C43.7812 36.9969 42.6262 39.635 40.53 41.5381C38.5181 43.3681 35.8012 44.375 32.8837 44.375Z" fill="#5698FF"/>
<path d="M36.5306 21.5169C37.9369 21.8731 39.2812 22.4375 40.5244 23.1856C41.1134 21.4522 41.1226 19.5742 40.5507 17.8351C39.9787 16.096 38.8566 14.5901 37.3537 13.5446C35.8509 12.4991 34.0487 11.9708 32.2192 12.0395C30.3897 12.1081 28.6322 12.7699 27.2119 13.925C29.0509 14.4067 30.7752 15.2507 32.2837 16.4075C34.0557 17.7799 35.5053 19.5239 36.5306 21.5169Z" fill="#5698FF"/>
<path d="M48 19.0625H42.375V21.875H48V19.0625Z" fill="#5698FF"/>
<path d="M33.9375 5H31.125V10.625H33.9375V5Z" fill="#5698FF"/>
<path d="M25.4437 13.5763L26.5369 12.4812L22.6144 8.55875L20.6269 10.5481L23.5406 13.4638H23.5931C24.2119 13.4638 24.8306 13.5013 25.4419 13.5763H25.4437Z" fill="#5698FF"/>
<path d="M42.45 8.5625L38.5256 12.485L40.5131 14.4725L44.4375 10.5538L42.45 8.56625V8.5625Z" fill="#5698FF"/>
</svg>
