<svg width="50" height="50" viewBox="0 0 50 50" fill="none" xmlns="http://www.w3.org/2000/svg">
<g clip-path="url(#clip0_1576_19986)">
<path d="M19.875 25.0312C19.2534 25.0312 18.6573 25.2782 18.2177 25.7177C17.7782 26.1573 17.5312 26.7534 17.5312 27.375C17.5312 27.9966 17.7782 28.5927 18.2177 29.0323C18.6573 29.4718 19.2534 29.7188 19.875 29.7188C20.1828 29.7188 20.4876 29.6581 20.7719 29.5403C21.0563 29.4226 21.3146 29.2499 21.5323 29.0323C21.7499 28.8146 21.9226 28.5563 22.0403 28.2719C22.1581 27.9876 22.2188 27.6828 22.2188 27.375C22.2188 27.0672 22.1581 26.7624 22.0403 26.4781C21.9226 26.1937 21.7499 25.9354 21.5323 25.7177C21.3146 25.5001 21.0563 25.3274 20.7719 25.2097C20.4876 25.0919 20.1828 25.0312 19.875 25.0312ZM31.125 25.0312C30.5034 25.0312 29.9073 25.2782 29.4677 25.7177C29.0282 26.1573 28.7812 26.7534 28.7812 27.375C28.7812 27.9966 29.0282 28.5927 29.4677 29.0323C29.9073 29.4718 30.5034 29.7188 31.125 29.7188C31.7466 29.7188 32.3427 29.4718 32.7823 29.0323C33.2218 28.5927 33.4688 27.9966 33.4688 27.375C33.4688 26.7534 33.2218 26.1573 32.7823 25.7177C32.3427 25.2782 31.7466 25.0312 31.125 25.0312ZM25.5 6.75C23.0377 6.75 20.5995 7.23498 18.3247 8.17726C16.0498 9.11953 13.9828 10.5006 12.2417 12.2417C8.72544 15.7581 6.75 20.5272 6.75 25.5C6.75 30.4728 8.72544 35.2419 12.2417 38.7583C13.9828 40.4994 16.0498 41.8805 18.3247 42.8227C20.5995 43.765 23.0377 44.25 25.5 44.25C30.4728 44.25 35.2419 42.2746 38.7583 38.7583C42.2746 35.2419 44.25 30.4728 44.25 25.5C44.25 23.0377 43.765 20.5995 42.8227 18.3247C41.8805 16.0498 40.4994 13.9828 38.7583 12.2417C37.0172 10.5006 34.9502 9.11953 32.6753 8.17726C30.4005 7.23498 27.9623 6.75 25.5 6.75ZM25.5 40.5C21.5218 40.5 17.7064 38.9196 14.8934 36.1066C12.0804 33.2936 10.5 29.4782 10.5 25.5C10.4438 24.9563 10.4438 24.4313 10.5 23.8875C14.9625 21.9375 18.5063 18.3188 20.3625 13.8187C23.8688 18.7875 29.5688 21.75 35.6625 21.75C37.0875 21.75 38.4938 21.5812 39.8813 21.2625C42.225 29.25 37.6875 37.5563 29.7375 39.8813C28.3125 40.2938 26.925 40.5 25.5 40.5ZM3 6.75C3 5.75544 3.39509 4.80161 4.09835 4.09835C4.80161 3.39509 5.75544 3 6.75 3H14.25V6.75H6.75V14.25H3V6.75ZM48 44.25C48 45.2446 47.6049 46.1984 46.9016 46.9016C46.1984 47.6049 45.2446 48 44.25 48H36.75V44.25H44.25V36.75H48V44.25ZM6.75 48C5.75544 48 4.80161 47.6049 4.09835 46.9016C3.39509 46.1984 3 45.2446 3 44.25V36.75H6.75V44.25H14.25V48H6.75ZM44.25 3C45.2446 3 46.1984 3.39509 46.9016 4.09835C47.6049 4.80161 48 5.75544 48 6.75V14.25H44.25V6.75H36.75V3H44.25Z" fill="#5698FF"/>
</g>
<defs>
<clipPath id="clip0_1576_19986">
<rect width="45" height="45" fill="white" transform="translate(3 3)"/>
</clipPath>
</defs>
</svg>
