<svg width="45" height="46" viewBox="0 0 45 46" fill="none" xmlns="http://www.w3.org/2000/svg">
<g clip-path="url(#clip0_933_7175)">
<path d="M16.875 22.5312C16.2534 22.5312 15.6573 22.7782 15.2177 23.2177C14.7782 23.6573 14.5312 24.2534 14.5312 24.875C14.5312 25.4966 14.7782 26.0927 15.2177 26.5323C15.6573 26.9718 16.2534 27.2188 16.875 27.2188C17.1828 27.2188 17.4876 27.1581 17.7719 27.0403C18.0563 26.9226 18.3146 26.7499 18.5323 26.5323C18.7499 26.3146 18.9226 26.0563 19.0403 25.7719C19.1581 25.4876 19.2188 25.1828 19.2188 24.875C19.2188 24.5672 19.1581 24.2624 19.0403 23.9781C18.9226 23.6937 18.7499 23.4354 18.5323 23.2177C18.3146 23.0001 18.0563 22.8274 17.7719 22.7097C17.4876 22.5919 17.1828 22.5312 16.875 22.5312ZM28.125 22.5312C27.5034 22.5312 26.9073 22.7782 26.4677 23.2177C26.0282 23.6573 25.7812 24.2534 25.7812 24.875C25.7812 25.4966 26.0282 26.0927 26.4677 26.5323C26.9073 26.9718 27.5034 27.2188 28.125 27.2188C28.7466 27.2188 29.3427 26.9718 29.7823 26.5323C30.2218 26.0927 30.4688 25.4966 30.4688 24.875C30.4688 24.2534 30.2218 23.6573 29.7823 23.2177C29.3427 22.7782 28.7466 22.5312 28.125 22.5312ZM22.5 4.25C20.0377 4.25 17.5995 4.73498 15.3247 5.67726C13.0498 6.61953 10.9828 8.00065 9.24175 9.74175C5.72544 13.2581 3.75 18.0272 3.75 23C3.75 27.9728 5.72544 32.7419 9.24175 36.2583C10.9828 37.9994 13.0498 39.3805 15.3247 40.3227C17.5995 41.265 20.0377 41.75 22.5 41.75C27.4728 41.75 32.2419 39.7746 35.7583 36.2583C39.2746 32.7419 41.25 27.9728 41.25 23C41.25 20.5377 40.765 18.0995 39.8227 15.8247C38.8805 13.5498 37.4994 11.4828 35.7583 9.74175C34.0172 8.00065 31.9502 6.61953 29.6753 5.67726C27.4005 4.73498 24.9623 4.25 22.5 4.25ZM22.5 38C18.5218 38 14.7064 36.4196 11.8934 33.6066C9.08035 30.7936 7.5 26.9782 7.5 23C7.44375 22.4562 7.44375 21.9313 7.5 21.3875C11.9625 19.4375 15.5063 15.8188 17.3625 11.3188C20.8687 16.2875 26.5688 19.25 32.6625 19.25C34.0875 19.25 35.4938 19.0812 36.8812 18.7625C39.225 26.75 34.6875 35.0563 26.7375 37.3812C25.3125 37.7938 23.925 38 22.5 38ZM0 4.25C0 3.25544 0.395088 2.30161 1.09835 1.59835C1.80161 0.895088 2.75544 0.5 3.75 0.5L11.25 0.5V4.25H3.75V11.75H0V4.25ZM45 41.75C45 42.7446 44.6049 43.6984 43.9016 44.4016C43.1984 45.1049 42.2446 45.5 41.25 45.5H33.75V41.75H41.25V34.25H45V41.75ZM3.75 45.5C2.75544 45.5 1.80161 45.1049 1.09835 44.4016C0.395088 43.6984 0 42.7446 0 41.75V34.25H3.75V41.75H11.25V45.5H3.75ZM41.25 0.5C42.2446 0.5 43.1984 0.895088 43.9016 1.59835C44.6049 2.30161 45 3.25544 45 4.25V11.75H41.25V4.25H33.75V0.5H41.25Z" fill="#5698FF"/>
</g>
<defs>
<clipPath id="clip0_933_7175">
<rect width="45" height="45" fill="white" transform="translate(0 0.5)"/>
</clipPath>
</defs>
</svg>
