<svg width="45" height="46" viewBox="0 0 45 46" fill="none" xmlns="http://www.w3.org/2000/svg">
<path fill-rule="evenodd" clip-rule="evenodd" d="M5.9978 34.0408C3.25063 29.2825 2.50618 23.6279 3.92822 18.3207C4.63235 15.6929 5.84716 13.2295 7.50331 11.0712C9.15946 8.91283 11.2245 7.10183 13.5806 5.74157C15.9366 4.3813 18.5375 3.49841 21.2347 3.14331C23.932 2.78822 26.6728 2.96786 29.3006 3.67198C31.9284 4.3761 34.3918 5.59092 36.5502 7.24707C38.7085 8.90322 40.5195 10.9683 41.8798 13.3243C43.24 15.6804 44.1229 18.2813 44.478 20.9785C44.8331 23.6758 44.6535 26.4165 43.9494 29.0444C42.5273 34.3515 39.0553 38.8764 34.297 41.6235C29.5388 44.3707 23.8841 45.1152 18.577 43.6931C17.406 43.3793 16.711 42.1757 17.0248 41.0047C17.3386 39.8336 18.5422 39.1387 19.7133 39.4525C23.8957 40.5731 28.352 39.9865 32.1019 37.8215C35.8518 35.6565 38.588 32.0905 39.7087 27.9081C40.2636 25.8371 40.4052 23.6772 40.1253 21.5515C39.8455 19.4259 39.1497 17.3762 38.0777 15.5194C37.0057 13.6627 35.5785 12.0353 33.8776 10.7301C32.1766 9.42491 30.2353 8.46754 28.1643 7.91263C26.0934 7.35773 23.9334 7.21615 21.8078 7.496C19.6821 7.77585 17.6324 8.47163 15.7757 9.54363C13.9189 10.6156 12.2915 12.0428 10.9863 13.7438C9.68115 15.4447 8.72378 17.3861 8.16887 19.457C7.04819 23.6395 7.63488 28.0958 9.79987 31.8457C10.406 32.8956 10.0463 34.2381 8.9964 34.8442C7.94649 35.4504 6.60397 35.0907 5.9978 34.0408Z" fill="#5698FF"/>
<path fill-rule="evenodd" clip-rule="evenodd" d="M0.385849 32.2169C0.305012 31.3603 0.753019 30.5405 1.51766 30.1459L10.1654 25.6833C10.9069 25.3007 11.8043 25.3915 12.4541 25.9149C13.1039 26.4384 13.3837 27.2959 13.1678 28.1018L11.4236 34.6112C11.2764 35.1604 10.9135 35.6269 10.4174 35.9047C9.9212 36.1825 9.33383 36.248 8.78864 36.0864L1.88508 34.0396C1.06013 33.795 0.466685 33.0735 0.385849 32.2169Z" fill="#5698FF"/>
<path d="M23.5977 13.6616V23.9513L29.7714 30.125" stroke="#5698FF" stroke-width="4.39024" stroke-linecap="round" stroke-linejoin="round"/>
</svg>
