<svg width="45" height="46" viewBox="0 0 45 46" fill="none" xmlns="http://www.w3.org/2000/svg">
<path d="M8.19987 31.1961C5.96211 27.3202 5.3557 22.7141 6.51406 18.391C7.08761 16.2505 8.07717 14.2439 9.42622 12.4858C10.7753 10.7276 12.4574 9.25246 14.3766 8.14444C16.2957 7.03641 18.4143 6.31723 20.6114 6.02798C22.8085 5.73873 25.0411 5.88506 27.1816 6.45862C29.3222 7.03217 31.3288 8.02173 33.0869 9.37078C34.845 10.7198 36.3202 12.402 37.4282 14.3211C38.5363 16.2403 39.2554 18.3589 39.5447 20.556C39.8339 22.7531 39.6876 24.9856 39.1141 27.1262C37.9557 31.4492 35.1275 35.135 31.2516 37.3728C27.3756 39.6106 22.7695 40.217 18.4465 39.0586" stroke="#5698FF" stroke-width="4" stroke-linecap="round" stroke-linejoin="round"/>
<path d="M2.84164 30.579L9.39255 32.5212L11.0476 26.3444L2.84164 30.579Z" stroke="#5698FF" stroke-width="4" stroke-linecap="round" stroke-linejoin="round"/>
<path d="M22.5 13.625V23L28.125 28.625" stroke="#5698FF" stroke-width="4" stroke-linecap="round" stroke-linejoin="round"/>
</svg>
