<svg width="50" height="50" viewBox="0 0 50 50" fill="none" xmlns="http://www.w3.org/2000/svg">
<path d="M25 43.75C27.4623 43.75 29.9005 43.265 32.1753 42.3227C34.4502 41.3805 36.5171 39.9993 38.2582 38.2582C39.9993 36.5171 41.3805 34.4502 42.3227 32.1753C43.265 29.9005 43.75 27.4623 43.75 25C43.75 22.5377 43.265 20.0995 42.3227 17.8247C41.3805 15.5498 39.9993 13.4828 38.2582 11.7417C36.5171 10.0006 34.4502 8.61953 32.1753 7.67726C29.9005 6.73498 27.4623 6.25 25 6.25C20.0272 6.25 15.2581 8.22544 11.7417 11.7417C8.22544 15.2581 6.25 20.0272 6.25 25C6.25 29.9728 8.22544 34.7419 11.7417 38.2582C15.2581 41.7746 20.0272 43.75 25 43.75Z" stroke="#5698FF" stroke-width="4" stroke-linecap="round" stroke-linejoin="round"/>
<path d="M25 14.5833L25 25L31.25 31.25" stroke="#5698FF" stroke-width="4" stroke-linecap="round" stroke-linejoin="round"/>
</svg>
