<svg width="50" height="50" viewBox="0 0 50 50" fill="none" xmlns="http://www.w3.org/2000/svg">
<path d="M48 4V33.6053C48 35.8038 47.1266 37.9122 45.5721 39.4668C44.0175 41.0214 41.909 41.8947 39.7105 41.8947C37.512 41.8947 35.4036 41.0214 33.849 39.4668C32.2944 37.9122 31.4211 35.8038 31.4211 33.6053C31.4211 31.4068 32.2944 29.2983 33.849 27.7437C35.4036 26.1891 37.512 25.3158 39.7105 25.3158C40.9895 25.3158 42.1974 25.6 43.2632 26.1211V12.2184L19.5789 17.2632V38.3421C19.5789 40.5406 18.7056 42.6491 17.151 44.2037C15.5964 45.7582 13.488 46.6316 11.2895 46.6316C9.09097 46.6316 6.98251 45.7582 5.42793 44.2037C3.87335 42.6491 3 40.5406 3 38.3421C3 36.1436 3.87335 34.0351 5.42793 32.4806C6.98251 30.926 9.09097 30.0526 11.2895 30.0526C12.5684 30.0526 13.7763 30.3368 14.8421 30.8579V11.1053L48 4Z" fill="#5698FF"/>
</svg>
