<svg width="45" height="46" viewBox="0 0 45 46" fill="none" xmlns="http://www.w3.org/2000/svg">
<path d="M39.375 32.375H5.625V9.875H39.375V32.375ZM39.375 6.125H5.625C4.63044 6.125 3.67661 6.52009 2.97335 7.22335C2.27009 7.92661 1.875 8.88044 1.875 9.875V32.375C1.875 33.3696 2.27009 34.3234 2.97335 35.0266C3.67661 35.7299 4.63044 36.125 5.625 36.125H15V39.875H30V36.125H39.375C40.3696 36.125 41.3234 35.7299 42.0266 35.0266C42.7299 34.3234 43.125 33.3696 43.125 32.375V9.875C43.125 8.88044 42.7299 7.92661 42.0266 7.22335C41.3234 6.52009 40.3696 6.125 39.375 6.125Z" fill="#5698FF"/>
</svg>
