<svg width="45" height="46" viewBox="0 0 45 46" fill="none" xmlns="http://www.w3.org/2000/svg">
<path d="M39.375 6.125V29.5625C39.375 31.303 38.6836 32.9722 37.4529 34.2029C36.2222 35.4336 34.553 36.125 32.8125 36.125C31.072 36.125 29.4028 35.4336 28.1721 34.2029C26.9414 32.9722 26.25 31.303 26.25 29.5625C26.25 27.822 26.9414 26.1528 28.1721 24.9221C29.4028 23.6914 31.072 23 32.8125 23C33.825 23 34.7812 23.225 35.625 23.6375V12.6312L16.875 16.625V33.3125C16.875 35.053 16.1836 36.7222 14.9529 37.9529C13.7222 39.1836 12.053 39.875 10.3125 39.875C8.57202 39.875 6.90282 39.1836 5.67211 37.9529C4.4414 36.7222 3.75 35.053 3.75 33.3125C3.75 31.572 4.4414 29.9028 5.67211 28.6721C6.90282 27.4414 8.57202 26.75 10.3125 26.75C11.325 26.75 12.2812 26.975 13.125 27.3875V11.75L39.375 6.125Z" fill="#5698FF"/>
</svg>
