<svg width="50" height="50" viewBox="0 0 50 50" fill="none" xmlns="http://www.w3.org/2000/svg">
<path d="M43.9091 35.636H7.09091V11.0909H43.9091V35.636ZM43.9091 7H7.09091C6.00593 7 4.96539 7.431 4.1982 8.19818C3.43101 8.96537 3 10.0059 3 11.0909V35.636C3 36.7209 3.43101 37.7614 4.1982 38.5286C4.96539 39.2958 6.00593 39.7268 7.09091 39.7268H17.3182V43.8177H33.6818V39.7268H43.9091C44.9941 39.7268 46.0346 39.2958 46.8018 38.5286C47.569 37.7614 48 36.7209 48 35.636V11.0909C48 10.0059 47.569 8.96537 46.8018 8.19818C46.0346 7.431 44.9941 7 43.9091 7Z" fill="#5698FF"/>
</svg>
