<svg width="204" height="204" viewBox="0 0 204 204" fill="none" xmlns="http://www.w3.org/2000/svg">
<mask id="path-1-inside-1_763_7245" fill="white">
<path d="M149.679 155.783C158.037 148.397 164.565 139.17 168.748 128.83C172.931 118.489 174.654 107.319 173.782 96.1986C172.91 85.0785 169.466 74.3131 163.723 64.7514C157.979 55.1896 150.092 47.093 140.685 41.1001L139.861 42.394C149.068 48.2592 156.786 56.1833 162.407 65.5413C168.029 74.8994 171.399 85.4354 172.253 96.3186C173.106 107.202 171.419 118.134 167.326 128.254C163.232 138.374 156.843 147.405 148.663 154.633L149.679 155.783Z"/>
</mask>
<path d="M149.679 155.783C158.037 148.397 164.565 139.17 168.748 128.83C172.931 118.489 174.654 107.319 173.782 96.1986C172.91 85.0785 169.466 74.3131 163.723 64.7514C157.979 55.1896 150.092 47.093 140.685 41.1001L139.861 42.394C149.068 48.2592 156.786 56.1833 162.407 65.5413C168.029 74.8994 171.399 85.4354 172.253 96.3186C173.106 107.202 171.419 118.134 167.326 128.254C163.232 138.374 156.843 147.405 148.663 154.633L149.679 155.783Z" stroke="url(#paint0_linear_763_7245)" stroke-width="6" mask="url(#path-1-inside-1_763_7245)"/>
<mask id="path-2-inside-2_763_7245" fill="white">
<path d="M124.887 33.5589C115.304 30.3464 105.152 29.1872 95.0917 30.1569C85.0314 31.1266 75.2879 34.2034 66.4951 39.1872C57.7024 44.1709 50.0573 50.9499 44.0573 59.0832C38.0573 67.2165 33.8368 76.5218 31.6703 86.3939C29.5038 96.2659 29.4399 106.483 31.4828 116.382C33.5257 126.28 37.6295 135.637 43.5273 143.845C49.4252 152.053 56.9849 158.927 65.7146 164.02C74.4444 169.114 84.1486 172.312 94.196 173.407L94.3623 171.882C84.529 170.81 75.0315 167.68 66.4877 162.695C57.944 157.71 50.5454 150.983 44.7732 142.95C39.001 134.917 34.9846 125.759 32.9853 116.072C30.986 106.384 31.0485 96.3844 33.1688 86.7227C35.2891 77.061 39.4197 67.954 45.2919 59.994C51.164 52.034 58.6462 45.3994 67.2516 40.5219C75.8571 35.6443 85.3929 32.6331 95.2389 31.684C105.085 30.735 115.02 31.8694 124.399 35.0135L124.887 33.5589Z"/>
</mask>
<path d="M124.887 33.5589C115.304 30.3464 105.152 29.1872 95.0917 30.1569C85.0314 31.1266 75.2879 34.2034 66.4951 39.1872C57.7024 44.1709 50.0573 50.9499 44.0573 59.0832C38.0573 67.2165 33.8368 76.5218 31.6703 86.3939C29.5038 96.2659 29.4399 106.483 31.4828 116.382C33.5257 126.28 37.6295 135.637 43.5273 143.845C49.4252 152.053 56.9849 158.927 65.7146 164.02C74.4444 169.114 84.1486 172.312 94.196 173.407L94.3623 171.882C84.529 170.81 75.0315 167.68 66.4877 162.695C57.944 157.71 50.5454 150.983 44.7732 142.95C39.001 134.917 34.9846 125.759 32.9853 116.072C30.986 106.384 31.0485 96.3844 33.1688 86.7227C35.2891 77.061 39.4197 67.954 45.2919 59.994C51.164 52.034 58.6462 45.3994 67.2516 40.5219C75.8571 35.6443 85.3929 32.6331 95.2389 31.684C105.085 30.735 115.02 31.8694 124.399 35.0135L124.887 33.5589Z" stroke="url(#paint1_linear_763_7245)" stroke-width="6" mask="url(#path-2-inside-2_763_7245)"/>
<path d="M163.489 101.828C163.489 135.788 135.959 163.317 102 163.317C68.0403 163.317 40.5107 135.788 40.5107 101.828C40.5107 67.8687 68.0403 40.3391 102 40.3391C135.959 40.3391 163.489 67.8687 163.489 101.828ZM46.6596 101.828C46.6596 132.392 71.4363 157.168 102 157.168C132.563 157.168 157.34 132.392 157.34 101.828C157.34 71.2646 132.563 46.488 102 46.488C71.4363 46.488 46.6596 71.2646 46.6596 101.828Z" fill="#5698FF"/>
<path opacity="0.7" d="M122.51 43.8606C131.901 47.1835 140.345 52.7387 147.114 60.048L142.603 64.226C136.511 57.6476 128.911 52.648 120.459 49.6573L122.51 43.8606Z" fill="#F5FBFF"/>
<path opacity="0.7" d="M145.479 58.3488C147.959 60.8285 150.222 63.5158 152.243 66.3813L147.219 69.9259C145.4 67.347 143.363 64.9285 141.131 62.6967L145.479 58.3488Z" fill="#F5FBFF"/>
<path opacity="0.7" d="M48.2211 72.0165C54.383 60.9007 63.8379 51.9674 75.2851 46.4456C86.7323 40.9238 99.6094 39.0848 112.145 41.1816L111.13 47.2463C99.8484 45.3591 88.2591 47.0142 77.9566 51.9839C67.6541 56.9535 59.1447 64.9935 53.599 74.9977L48.2211 72.0165Z" fill="#F5FBFF"/>
<path opacity="0.7" d="M118.948 160.935C106.731 164.438 93.7282 164.07 81.7292 159.88C69.7303 155.69 59.3245 147.885 51.9434 137.538L56.9491 133.967C63.5921 143.279 72.9573 150.304 83.7563 154.075C94.5554 157.845 106.258 158.177 117.253 155.025L118.948 160.935Z" fill="#F5FBFF"/>
<path d="M131 120.746L106.727 96.4733C109.128 90.3383 107.794 83.1364 102.726 78.0684C97.3915 72.7337 89.3893 71.6667 82.9876 74.6008L94.4573 86.0705L86.4552 94.0727L74.7188 82.603C71.5179 89.0047 72.8516 97.0068 78.1864 102.342C83.2544 107.41 90.4563 108.743 96.5912 106.343L120.864 130.616C121.931 131.683 123.532 131.683 124.599 130.616L130.734 124.481C132.067 123.414 132.067 121.547 131 120.746Z" fill="#5698FF"/>
<ellipse cx="95.412" cy="172.364" rx="2.67582" ry="2.67582" transform="rotate(30 95.412 172.364)" fill="#CCEAFF"/>
<ellipse cx="148.435" cy="155.494" rx="2.67582" ry="2.67582" transform="rotate(30 148.435 155.494)" fill="#C3E6FF"/>
<ellipse cx="125.54" cy="34.987" rx="2.67582" ry="2.67582" transform="rotate(30 125.54 34.987)" fill="#96D2FF"/>
<ellipse cx="140.001" cy="41.0122" rx="2.67582" ry="2.67582" transform="rotate(30 140.001 41.0122)" fill="#E0F3FF"/>
<defs>
<linearGradient id="paint0_linear_763_7245" x1="189.308" y1="149.47" x2="152.819" y2="13.2918" gradientUnits="userSpaceOnUse">
<stop stop-color="#C0E4FF"/>
<stop offset="1" stop-color="#E7F6FF"/>
</linearGradient>
<linearGradient id="paint1_linear_763_7245" x1="113.521" y1="-11.5206" x2="-29.2451" y2="153.421" gradientUnits="userSpaceOnUse">
<stop stop-color="#89CCFF"/>
<stop offset="1" stop-color="#E7F6FF"/>
</linearGradient>
</defs>
</svg>
