<svg width="219" height="219" viewBox="0 0 219 219" fill="none" xmlns="http://www.w3.org/2000/svg">
<mask id="path-1-inside-1_1034_20100" fill="white">
<path d="M187.803 40.1879C177.058 28.0286 163.635 18.5319 148.593 12.4469C133.55 6.36182 117.3 3.85476 101.123 5.12341C84.9456 6.39206 69.2846 11.4017 55.3745 19.7573C41.4645 28.1129 29.6859 39.586 20.9677 53.2716L22.85 54.4708C31.3825 41.0767 42.9101 29.8481 56.5238 21.6705C70.1374 13.493 85.4648 8.59003 101.297 7.34841C117.129 6.10679 133.034 8.56043 147.756 14.5158C162.478 20.4712 175.615 29.7655 186.131 41.6658L187.803 40.1879Z"/>
</mask>
<path d="M187.803 40.1879C177.058 28.0286 163.635 18.5319 148.593 12.4469C133.55 6.36182 117.3 3.85476 101.123 5.12341C84.9456 6.39206 69.2846 11.4017 55.3745 19.7573C41.4645 28.1129 29.6859 39.586 20.9677 53.2716L22.85 54.4708C31.3825 41.0767 42.9101 29.8481 56.5238 21.6705C70.1374 13.493 85.4648 8.59003 101.297 7.34841C117.129 6.10679 133.034 8.56043 147.756 14.5158C162.478 20.4712 175.615 29.7655 186.131 41.6658L187.803 40.1879Z" stroke="url(#paint0_linear_1034_20100)" stroke-width="6" mask="url(#path-1-inside-1_1034_20100)"/>
<ellipse cx="186.881" cy="40.3715" rx="3.2588" ry="3.2588" transform="rotate(30 186.881 40.3715)" fill="#E1F2FF"/>
<ellipse cx="21.6703" cy="54.6495" rx="3.2588" ry="3.2588" transform="rotate(30 21.6703 54.6495)" fill="#71AAFF"/>
<mask id="path-4-inside-2_1034_20100" fill="white">
<path d="M9.99746 76.2557C5.324 90.1963 3.63776 104.965 5.04844 119.6C6.45913 134.235 10.9351 148.41 18.1852 161.201C25.4354 173.992 35.2972 185.114 47.1291 193.843C58.9611 202.571 72.498 208.711 86.8594 211.863C101.221 215.014 116.085 215.107 130.484 212.135C144.884 209.163 158.497 203.193 170.437 194.613C182.377 186.034 192.377 175.036 199.787 162.336C207.196 149.637 211.849 135.519 213.443 120.903L211.224 120.661C209.664 134.966 205.111 148.783 197.859 161.212C190.607 173.641 180.82 184.404 169.135 192.801C157.449 201.198 144.126 207.041 130.033 209.95C115.941 212.858 101.393 212.767 87.3378 209.683C73.2824 206.598 60.0339 200.589 48.454 192.047C36.8742 183.504 27.2225 172.619 20.1269 160.1C13.0312 147.582 8.65061 133.709 7.26998 119.386C5.88936 105.062 7.53966 90.6087 12.1135 76.9651L9.99746 76.2557Z"/>
</mask>
<path d="M9.99746 76.2557C5.324 90.1963 3.63776 104.965 5.04844 119.6C6.45913 134.235 10.9351 148.41 18.1852 161.201C25.4354 173.992 35.2972 185.114 47.1291 193.843C58.9611 202.571 72.498 208.711 86.8594 211.863C101.221 215.014 116.085 215.107 130.484 212.135C144.884 209.163 158.497 203.193 170.437 194.613C182.377 186.034 192.377 175.036 199.787 162.336C207.196 149.637 211.849 135.519 213.443 120.903L211.224 120.661C209.664 134.966 205.111 148.783 197.859 161.212C190.607 173.641 180.82 184.404 169.135 192.801C157.449 201.198 144.126 207.041 130.033 209.95C115.941 212.858 101.393 212.767 87.3378 209.683C73.2824 206.598 60.0339 200.589 48.454 192.047C36.8742 183.504 27.2225 172.619 20.1269 160.1C13.0312 147.582 8.65061 133.709 7.26998 119.386C5.88936 105.062 7.53966 90.6087 12.1135 76.9651L9.99746 76.2557Z" stroke="url(#paint1_linear_1034_20100)" stroke-width="6" mask="url(#path-4-inside-2_1034_20100)"/>
<ellipse cx="10.6182" cy="76.9619" rx="3.2588" ry="3.2588" transform="rotate(-90 10.6182 76.9619)" fill="#CBE5FF"/>
<ellipse cx="211.927" cy="122.651" rx="3.2588" ry="3.2588" transform="rotate(-90 211.927 122.651)" fill="#7CB1FF"/>
<path d="M109.217 20.3721C158.598 20.3721 198.628 60.4027 198.628 109.783C198.628 159.163 158.598 199.194 109.217 199.194C59.8372 199.194 19.8066 159.163 19.8066 109.783C19.8066 60.4027 59.8372 20.3721 109.217 20.3721ZM109.217 190.253C153.66 190.253 189.687 154.225 189.687 109.783C189.687 65.3408 153.66 29.3132 109.217 29.3132C64.7753 29.3132 28.7477 65.3408 28.7477 109.783C28.7477 154.225 64.7753 190.253 109.217 190.253Z" fill="#5698FF"/>
<path opacity="0.7" d="M24.9272 79.9595C29.7591 66.303 37.8368 54.0251 48.4652 44.1822L54.5404 50.7423C44.9748 59.6009 37.7049 70.651 33.3562 82.9418L24.9272 79.9595Z" fill="white"/>
<path opacity="0.7" d="M191.622 75.0868C197.243 88.4377 199.536 102.954 198.304 117.388L189.396 116.627C190.505 103.637 188.441 90.5722 183.381 78.5564L191.622 75.0868Z" fill="white"/>
<path opacity="0.7" d="M45.9945 46.56C49.6002 42.9543 53.5077 39.6636 57.6744 36.7241L62.8287 44.03C59.0787 46.6756 55.5619 49.6371 52.3168 52.8823L45.9945 46.56Z" fill="white"/>
<path opacity="0.7" d="M65.9425 187.785C49.7718 178.821 36.776 165.067 28.7431 148.414C20.7102 131.761 18.035 113.028 21.0854 94.7924L29.9079 96.2682C27.1626 112.68 29.5703 129.54 36.7999 144.528C44.0295 159.515 55.7257 171.894 70.2794 179.962L65.9425 187.785Z" fill="white"/>
<path d="M112.581 66.8252H104.423V83.8896H112.585V66.8292L112.581 66.8252Z" fill="#5698FF"/>
<path d="M112.581 135.106H104.423V152.175H112.585V135.11L112.581 135.106Z" fill="#5698FF"/>
<path d="M135.793 76.4321L123.72 88.505L129.499 94.2763L141.568 82.2034L135.793 76.4321Z" fill="#5698FF"/>
<path d="M87.5133 124.704L75.4404 136.777L81.2156 142.548L93.2886 130.475L87.5133 124.704Z" fill="#5698FF"/>
<path d="M151.175 105.419H134.11V113.581H151.179V105.423L151.175 105.419Z" fill="#5698FF"/>
<path d="M82.8935 105.419H65.8291V113.581H82.8895V105.423L82.8935 105.419Z" fill="#5698FF"/>
<path d="M129.495 124.724L123.724 130.499L135.797 142.572L141.564 136.793L129.495 124.724Z" fill="#5698FF"/>
<path d="M81.2068 76.4519L75.4316 82.2232L87.5046 94.2961L93.2758 88.5209L81.2068 76.4519Z" fill="#5698FF"/>
<path d="M108.5 128.425C104.756 128.426 101.096 127.316 97.9824 125.236C94.8689 123.157 92.4422 120.201 91.009 116.742C89.5759 113.283 89.2007 109.476 89.9309 105.804C90.6612 102.132 92.464 98.7588 95.1115 96.1114C97.759 93.4639 101.132 91.661 104.804 90.9308C108.476 90.2005 112.283 90.5757 115.742 92.0089C119.201 93.4421 122.157 95.8688 124.236 98.9822C126.316 102.096 127.426 105.756 127.425 109.5C127.419 114.517 125.423 119.327 121.875 122.875C118.327 126.423 113.517 128.418 108.5 128.425Z" fill="#5698FF"/>
<defs>
<linearGradient id="paint0_linear_1034_20100" x1="178.619" y1="-17.463" x2="-19.4864" y2="35.6192" gradientUnits="userSpaceOnUse">
<stop stop-color="#E7F6FF"/>
<stop offset="1" stop-color="#5497FF"/>
</linearGradient>
<linearGradient id="paint1_linear_1034_20100" x1="-55.5822" y1="92.7905" x2="184.368" y2="300.48" gradientUnits="userSpaceOnUse">
<stop stop-color="#DEF1FF"/>
<stop offset="1" stop-color="#5396FF"/>
</linearGradient>
</defs>
</svg>
