<svg width="50" height="50" viewBox="0 0 50 50" fill="none" xmlns="http://www.w3.org/2000/svg">
<path d="M25 43.5C27.4623 43.5 29.9005 43.015 32.1753 42.0727C34.4502 41.1305 36.5171 39.7493 38.2582 38.0082C39.9993 36.2671 41.3805 34.2002 42.3227 31.9253C43.265 29.6505 43.75 27.2123 43.75 24.75C43.75 22.2877 43.265 19.8495 42.3227 17.5747C41.3805 15.2998 39.9993 13.2328 38.2582 11.4917C36.5171 9.75065 34.4502 8.36953 32.1753 7.42726C29.9005 6.48498 27.4623 6 25 6C20.0272 6 15.2581 7.97544 11.7417 11.4917C8.22544 15.0081 6.25 19.7772 6.25 24.75C6.25 29.7228 8.22544 34.4919 11.7417 38.0082C15.2581 41.5246 20.0272 43.5 25 43.5Z" stroke="#5698FF" stroke-width="4" stroke-linecap="round" stroke-linejoin="round"/>
<path d="M25 14.3333L25 24.75L31.25 31" stroke="#5698FF" stroke-width="4" stroke-linecap="round" stroke-linejoin="round"/>
</svg>
