<svg width="50" height="50" viewBox="0 0 50 50" fill="none" xmlns="http://www.w3.org/2000/svg">
<path fill-rule="evenodd" clip-rule="evenodd" d="M9.5901 9.58999C13.8097 5.37049 19.5326 3 25.5 3C28.4547 3 31.3806 3.58197 34.1104 4.71268C36.8402 5.8434 39.3206 7.50071 41.4099 9.58999C43.4992 11.6793 45.1566 14.1596 46.2873 16.8894C47.418 19.6192 48 22.545 48 25.4996C48 28.4543 47.418 31.3801 46.2873 34.1099C45.1566 36.8397 43.4992 39.32 41.4099 41.4093C39.3206 43.4986 36.8402 45.1559 34.1104 46.2866C31.3805 47.4173 28.4547 47.9993 25.5 47.9993C19.5326 47.9993 13.8097 45.6288 9.5901 41.4093C5.37053 37.1898 3 31.4669 3 25.4996C3 19.5324 5.37053 13.8095 9.5901 9.58999ZM25.5 7.33728C20.683 7.33728 16.0632 9.25081 12.6571 12.6569C9.25091 16.063 7.33735 20.6827 7.33735 25.4996C7.33735 30.3166 9.25091 34.9363 12.6571 38.3424C16.0632 41.7485 20.683 43.662 25.5 43.662C27.8852 43.662 30.247 43.1922 32.4505 42.2795C34.6541 41.3667 36.6564 40.0289 38.3429 38.3424C40.0295 36.6558 41.3673 34.6536 42.2801 32.4501C43.1929 30.2465 43.6626 27.8848 43.6626 25.4996C43.6626 23.1145 43.1929 20.7528 42.2801 18.5492C41.3673 16.3457 40.0295 14.3434 38.3429 12.6569C36.6564 10.9704 34.6541 9.63255 32.4505 8.71981C30.247 7.80706 27.8852 7.33728 25.5 7.33728Z" fill="#5698FF"/>
<path d="M25.5 14.2046L25.5 25.4996L32.2771 32.2767" stroke="#5698FF" stroke-width="4.33732" stroke-linecap="round" stroke-linejoin="round"/>
</svg>
