<svg width="50" height="50" viewBox="0 0 50 50" fill="none" xmlns="http://www.w3.org/2000/svg">
<path d="M27.651 2H23.3496V10.9973H27.6531V2.00209L27.651 2Z" fill="#5698FF"/>
<path d="M27.651 38.0016H23.3496V47.0009H27.6531V38.0037L27.651 38.0016Z" fill="#5698FF"/>
<path d="M39.8889 7.06525L33.5234 13.4307L36.5705 16.4737L42.9339 10.1082L39.8889 7.06525Z" fill="#5698FF"/>
<path d="M14.4319 32.5168L8.06641 38.8823L11.1114 41.9252L17.4769 35.5597L14.4319 32.5168Z" fill="#5698FF"/>
<path d="M47.9972 22.3487H39V26.6522H47.9993V22.3508L47.9972 22.3487Z" fill="#5698FF"/>
<path d="M11.9972 22.3487H3V26.6522H11.9952V22.3508L11.9972 22.3487Z" fill="#5698FF"/>
<path d="M36.5683 32.5273L33.5254 35.5723L39.8909 41.9377L42.9317 38.8907L36.5683 32.5273Z" fill="#5698FF"/>
<path d="M11.1075 7.07571L8.0625 10.1186L14.428 16.4841L17.4709 13.4391L11.1075 7.07571Z" fill="#5698FF"/>
<path d="M25.498 34.4786C23.5239 34.479 21.594 33.894 19.9524 32.7975C18.3109 31.701 17.0314 30.1423 16.2757 28.3186C15.5201 26.4949 15.3223 24.488 15.7073 22.5518C16.0923 20.6156 17.0429 18.8371 18.4388 17.4413C19.8347 16.0454 21.6132 15.0948 23.5493 14.7098C25.4855 14.3247 27.4924 14.5226 29.3161 15.2782C31.1398 16.0338 32.6985 17.3134 33.795 18.9549C34.8915 20.5965 35.4765 22.5264 35.4761 24.5004C35.4728 27.1458 34.4205 29.6819 32.5499 31.5524C30.6794 33.423 28.1433 34.4753 25.498 34.4786Z" fill="#5698FF"/>
</svg>
