<svg width="50" height="50" viewBox="0 0 50 50" fill="none" xmlns="http://www.w3.org/2000/svg">
<path d="M27.1473 3H22.8535V11.9813H27.1493V3.00208L27.1473 3Z" fill="#5698FF"/>
<path d="M27.1473 38.9375H22.8535V47.9208H27.1493V38.9396L27.1473 38.9375Z" fill="#5698FF"/>
<path d="M39.3639 8.05624L33.0098 14.4104L36.0514 17.4479L42.4035 11.0937L39.3639 8.05624Z" fill="#5698FF"/>
<path d="M13.9538 33.4624L7.59961 39.8166L10.6392 42.8541L16.9934 36.4999L13.9538 33.4624Z" fill="#5698FF"/>
<path d="M47.4598 23.3125H38.4785V27.6083H47.4618V23.3146L47.4598 23.3125Z" fill="#5698FF"/>
<path d="M11.5223 23.3125H2.54102V27.6083H11.5202V23.3146L11.5223 23.3125Z" fill="#5698FF"/>
<path d="M36.0492 33.4729L33.0117 36.5125L39.3659 42.8667L42.4013 39.825L36.0492 33.4729Z" fill="#5698FF"/>
<path d="M10.6353 8.06668L7.5957 11.1042L13.9499 17.4583L16.9874 14.4188L10.6353 8.06668Z" fill="#5698FF"/>
<path d="M24.9997 35.4208C23.0292 35.4212 21.1027 34.8372 19.4641 33.7427C17.8254 32.6482 16.5482 31.0923 15.7939 29.2718C15.0396 27.4513 14.8421 25.448 15.2265 23.5152C15.6108 21.5825 16.5597 19.8072 17.9531 18.4138C19.3465 17.0204 21.1219 16.0715 23.0546 15.6871C24.9873 15.3028 26.9906 15.5003 28.8111 16.2546C30.6316 17.0089 32.1875 18.2861 33.282 19.9248C34.3766 21.5634 34.9606 23.4898 34.9602 25.4604C34.9569 28.1011 33.9064 30.6326 32.0392 32.4998C30.1719 34.3671 27.6404 35.4175 24.9997 35.4208Z" fill="#5698FF"/>
</svg>
