<svg width="183" height="184" viewBox="0 0 183 184" fill="none" xmlns="http://www.w3.org/2000/svg">
<path d="M91.4074 51.6797C95.1032 53.2108 96.7101 51.4379 96.7101 51.4379C97.1118 51.1156 98.7187 49.9873 98.9597 48.1338C98.9597 47.4891 98.9597 46.925 98.8794 46.6832C98.6383 45.4744 98.0759 44.6685 97.7545 44.2656C94.6212 39.9944 90.363 37.8186 90.363 37.8186C89.4792 37.4156 85.462 35.4009 79.1149 35.0786C75.4994 34.9174 72.6071 35.3203 70.9199 35.6427C64.9744 36.7709 60.7966 39.2691 56.7794 41.6868C53.7264 43.4597 51.5571 45.0715 49.7895 46.4415C46.4151 48.9397 44.5672 50.7126 42.0766 53.0497C39.4252 55.5479 38.3004 56.9179 37.4167 58.852C36.7739 60.3832 36.5329 61.7532 36.3722 62.7202C36.3722 62.7202 36.2115 63.1231 35.8098 63.3649C35.4081 63.6067 34.444 63.2037 34.444 63.2037C34.444 63.2037 32.9978 62.7202 32.2747 63.2843C31.4712 63.8484 20.4642 74.1637 20.4642 74.1637C20.4642 74.1637 19.4197 77.226 20.4642 80.2884C21.2676 82.5448 30.9088 91.7318 36.4525 95.9224C38.3808 97.373 41.5945 96.0836 41.9159 95.9224C43.2014 95.2777 53.0033 84.8013 53.0033 84.8013C53.0033 84.8013 53.9674 83.8342 53.9674 82.0613C53.9674 80.2884 52.5212 79.1601 52.5212 79.1601C52.5212 79.1601 52.1998 78.4348 52.6819 77.9513C53.2443 77.4678 54.4495 78.1931 54.4495 78.1931L67.7865 88.9113C67.7865 88.9113 68.3489 96.9701 70.0361 95.4389C74.0532 92.0542 87.792 79.8854 88.7561 78.4348C88.9168 78.1125 88.7561 77.7901 88.7561 77.7901C88.5954 77.1454 87.8723 76.8231 86.5065 76.3396C85.6227 76.0172 84.3372 75.6949 82.7303 75.4531L74.6157 64.2514C74.3746 63.5261 74.1336 62.4784 74.1336 61.189C74.1336 58.2073 75.7405 56.1926 76.2225 55.4673C78.8739 51.9214 82.9714 51.3573 84.2569 51.1156C87.3099 50.632 89.8809 51.2767 91.3271 51.8408L91.4074 51.6797Z" fill="white"/>
<path d="M133.508 149.836L143.31 140.004C147.086 136.216 146.765 130.011 142.667 126.627L121.055 109.058L102.897 128.802L120.332 149.352C123.787 153.382 129.812 153.543 133.508 149.836Z" fill="white"/>
<path d="M161.064 56.0314C159.778 53.0497 155.841 52.405 153.511 54.5808L140.255 68.1196C138.407 69.8925 136.72 71.8266 132.783 67.9584L130.131 65.2184C126.355 61.5114 128.284 59.8996 129.971 58.0461L143.067 44.6685C145.316 42.2509 144.513 38.2215 141.38 37.0127C130.132 32.5803 117.277 34.3533 108.519 42.7344C99.4403 51.4379 97.1907 64.8961 101.851 76.7425C102.011 77.1454 101.851 77.629 101.61 77.8707L51.9574 123.806C45.1282 130.092 44.7265 140.81 50.9933 147.579C57.26 154.349 67.8654 154.349 74.1322 147.579L120.33 97.0506C120.33 97.0506 121.133 96.6477 121.535 96.8089C132.944 101.564 146.039 99.9518 154.958 91.4095C164.438 82.3031 166.447 68.2002 161.064 56.0314Z" fill="white"/>
</svg>
