<svg width="16" height="426" viewBox="0 0 16 426" fill="none" xmlns="http://www.w3.org/2000/svg">
<path d="M0 8.65625C-1.93129e-07 13.0745 3.58172 16.6562 8 16.6562C12.4183 16.6563 16 13.0745 16 8.65625C16 4.23797 12.4183 0.65625 8 0.65625C3.58172 0.65625 1.93129e-07 4.23797 0 8.65625ZM-1.7878e-05 417.656C-1.80711e-05 422.075 3.5817 425.656 7.99998 425.656C12.4183 425.656 16 422.075 16 417.656C16 413.238 12.4183 409.656 7.99998 409.656C3.5817 409.656 -1.76848e-05 413.238 -1.7878e-05 417.656ZM6.5 8.65625L6.49998 417.656L9.49998 417.656L9.5 8.65625L6.5 8.65625Z" fill="url(#paint0_linear_765_2713)"/>
<defs>
<linearGradient id="paint0_linear_765_2713" x1="8" y1="-11.6094" x2="-7.10835" y2="-11.0942" gradientUnits="userSpaceOnUse">
<stop stop-color="#DEF1FF"/>
<stop offset="1" stop-color="#5396FF"/>
</linearGradient>
</defs>
</svg>
