<svg width="183" height="184" viewBox="0 0 183 184" fill="none" xmlns="http://www.w3.org/2000/svg">
<path d="M123.906 109.442C115.008 101.532 103.516 97.1626 91.6104 97.1626C79.7046 97.1626 68.2128 101.532 59.3147 109.442C58.523 110.08 57.8692 110.873 57.393 111.772C56.9167 112.67 56.6279 113.656 56.5441 114.67C56.4603 115.683 56.5832 116.703 56.9053 117.668C57.2275 118.632 57.7422 119.522 58.4182 120.281C59.0942 121.041 59.9175 121.656 60.8382 122.088C61.7588 122.52 62.7576 122.76 63.774 122.795C64.7904 122.83 65.8033 122.657 66.7511 122.289C67.699 121.92 68.5621 121.363 69.2882 120.651C75.4377 115.185 83.3791 112.166 91.6065 112.166C99.834 112.166 107.775 115.185 113.925 120.651C115.422 121.904 117.349 122.525 119.296 122.381C121.243 122.238 123.058 121.342 124.356 119.884C125.654 118.425 126.333 116.519 126.249 114.568C126.165 112.617 125.325 110.776 123.906 109.434V109.442Z" fill="white"/>
<path d="M91.6066 66.3075C71.4538 66.2764 52.0481 73.9339 37.3471 87.7185C36.5559 88.3719 35.9068 89.1803 35.4398 90.094C34.9729 91.0078 34.6979 92.0074 34.6318 93.0314C34.5657 94.0553 34.71 95.082 35.0556 96.0482C35.4013 97.0143 35.9411 97.8995 36.6418 98.6491C37.3424 99.3988 38.1891 99.9971 39.1297 100.407C40.0703 100.817 41.0849 101.03 42.111 101.034C43.1371 101.037 44.1531 100.83 45.0962 100.426C46.0393 100.022 46.8897 99.4285 47.5951 98.6832C59.5307 87.5219 75.2615 81.3127 91.6027 81.3127C107.944 81.3127 123.675 87.5219 135.61 98.6832C136.321 99.4049 137.17 99.9754 138.106 100.361C139.043 100.746 140.048 100.937 141.06 100.924C142.073 100.911 143.072 100.693 143.998 100.284C144.925 99.8749 145.758 99.2825 146.45 98.5427C147.141 97.8029 147.676 96.9309 148.022 95.9792C148.368 95.0274 148.517 94.0156 148.462 93.0045C148.407 91.9934 148.148 91.0039 147.7 90.0955C147.253 89.1871 146.626 88.3786 145.858 87.7185C131.158 73.9325 111.752 66.2723 91.5989 66.2999L91.6066 66.3075Z" fill="white"/>
<path d="M165.135 63.5396C144.898 45.4818 118.725 35.5017 91.6031 35.5017C64.4813 35.5017 38.3077 45.4818 18.0714 63.5396C17.3369 64.1969 16.7391 64.9925 16.3121 65.8809C15.8851 66.7694 15.6373 67.7332 15.5828 68.7174C15.5283 69.7015 15.6681 70.6868 15.9944 71.617C16.3206 72.5471 16.8269 73.4039 17.4843 74.1383C18.1417 74.8728 18.9373 75.4706 19.8257 75.8976C20.7141 76.3246 21.6779 76.5724 22.6621 76.627C23.6463 76.6815 24.6315 76.5416 25.5617 76.2154C26.4918 75.8891 27.3486 75.3828 28.083 74.7254C45.5667 59.1347 68.1739 50.519 91.5993 50.519C115.025 50.519 137.632 59.1347 155.116 74.7254C156.6 76.0531 158.551 76.7367 160.539 76.6258C162.528 76.515 164.39 75.6189 165.718 74.1345C167.046 72.6502 167.729 70.6992 167.618 68.7108C167.508 66.7225 166.612 64.8596 165.127 63.5319L165.135 63.5396Z" fill="white"/>
<path d="M91.5996 152.684C94.633 152.684 97.5422 151.479 99.6871 149.334C101.832 147.189 103.037 144.28 103.037 141.246C103.037 138.213 101.832 135.304 99.6871 133.159C97.5422 131.014 94.633 129.809 91.5996 129.809C88.5662 129.809 85.657 131.014 83.5121 133.159C81.3671 135.304 80.1621 138.213 80.1621 141.246C80.1621 144.28 81.3671 147.189 83.5121 149.334C85.657 151.479 88.5662 152.684 91.5996 152.684Z" fill="white"/>
</svg>
