<svg width="220" height="219" viewBox="0 0 220 219" fill="none" xmlns="http://www.w3.org/2000/svg">
<mask id="path-1-inside-1_1034_20429" fill="white">
<path d="M188.303 40.1877C177.558 28.0285 164.135 18.5318 149.093 12.4468C134.05 6.3617 117.8 3.85464 101.623 5.12329C85.4456 6.39194 69.7846 11.4016 55.8745 19.7572C41.9645 28.1128 30.1859 39.5859 21.4677 53.2715L23.35 54.4706C31.8825 41.0766 43.4101 29.848 57.0238 21.6704C70.6374 13.4928 85.9648 8.5899 101.797 7.34828C117.629 6.10666 133.534 8.56031 148.256 14.5157C162.978 20.4711 176.115 29.7654 186.631 41.6656L188.303 40.1877Z"/>
</mask>
<path d="M188.303 40.1877C177.558 28.0285 164.135 18.5318 149.093 12.4468C134.05 6.3617 117.8 3.85464 101.623 5.12329C85.4456 6.39194 69.7846 11.4016 55.8745 19.7572C41.9645 28.1128 30.1859 39.5859 21.4677 53.2715L23.35 54.4706C31.8825 41.0766 43.4101 29.848 57.0238 21.6704C70.6374 13.4928 85.9648 8.5899 101.797 7.34828C117.629 6.10666 133.534 8.56031 148.256 14.5157C162.978 20.4711 176.115 29.7654 186.631 41.6656L188.303 40.1877Z" stroke="url(#paint0_linear_1034_20429)" stroke-width="6" mask="url(#path-1-inside-1_1034_20429)"/>
<ellipse cx="187.381" cy="40.3715" rx="3.2588" ry="3.2588" transform="rotate(30 187.381 40.3715)" fill="#E1F2FF"/>
<ellipse cx="22.1703" cy="54.6494" rx="3.2588" ry="3.2588" transform="rotate(30 22.1703 54.6494)" fill="#71AAFF"/>
<mask id="path-4-inside-2_1034_20429" fill="white">
<path d="M10.4975 76.2557C5.824 90.1963 4.13776 104.965 5.54844 119.6C6.95913 134.235 11.4351 148.41 18.6852 161.201C25.9354 173.992 35.7972 185.114 47.6291 193.843C59.4611 202.571 72.998 208.711 87.3594 211.863C101.721 215.014 116.585 215.107 130.984 212.135C145.384 209.163 158.997 203.193 170.937 194.613C182.877 186.034 192.877 175.036 200.287 162.336C207.696 149.637 212.349 135.519 213.943 120.903L211.724 120.661C210.164 134.966 205.611 148.783 198.359 161.212C191.107 173.641 181.32 184.404 169.635 192.801C157.949 201.198 144.626 207.041 130.533 209.95C116.441 212.858 101.893 212.767 87.8378 209.683C73.7824 206.598 60.5339 200.589 48.954 192.047C37.3742 183.504 27.7225 172.619 20.6269 160.1C13.5312 147.582 9.15061 133.709 7.76998 119.386C6.38936 105.062 8.03966 90.6087 12.6135 76.9651L10.4975 76.2557Z"/>
</mask>
<path d="M10.4975 76.2557C5.824 90.1963 4.13776 104.965 5.54844 119.6C6.95913 134.235 11.4351 148.41 18.6852 161.201C25.9354 173.992 35.7972 185.114 47.6291 193.843C59.4611 202.571 72.998 208.711 87.3594 211.863C101.721 215.014 116.585 215.107 130.984 212.135C145.384 209.163 158.997 203.193 170.937 194.613C182.877 186.034 192.877 175.036 200.287 162.336C207.696 149.637 212.349 135.519 213.943 120.903L211.724 120.661C210.164 134.966 205.611 148.783 198.359 161.212C191.107 173.641 181.32 184.404 169.635 192.801C157.949 201.198 144.626 207.041 130.533 209.95C116.441 212.858 101.893 212.767 87.8378 209.683C73.7824 206.598 60.5339 200.589 48.954 192.047C37.3742 183.504 27.7225 172.619 20.6269 160.1C13.5312 147.582 9.15061 133.709 7.76998 119.386C6.38936 105.062 8.03966 90.6087 12.6135 76.9651L10.4975 76.2557Z" stroke="url(#paint1_linear_1034_20429)" stroke-width="6" mask="url(#path-4-inside-2_1034_20429)"/>
<ellipse cx="11.1182" cy="76.9619" rx="3.2588" ry="3.2588" transform="rotate(-90 11.1182 76.9619)" fill="#CBE5FF"/>
<ellipse cx="212.427" cy="122.651" rx="3.2588" ry="3.2588" transform="rotate(-90 212.427 122.651)" fill="#7CB1FF"/>
<path d="M109.717 20.3721C159.098 20.3721 199.128 60.4027 199.128 109.783C199.128 159.163 159.098 199.194 109.717 199.194C60.3372 199.194 20.3066 159.163 20.3066 109.783C20.3066 60.4027 60.3372 20.3721 109.717 20.3721ZM109.717 190.253C154.16 190.253 190.187 154.225 190.187 109.783C190.187 65.3408 154.16 29.3132 109.717 29.3132C65.2753 29.3132 29.2477 65.3408 29.2477 109.783C29.2477 154.225 65.2753 190.253 109.717 190.253Z" fill="#5698FF"/>
<path opacity="0.7" d="M25.4272 79.9595C30.2591 66.303 38.3368 54.0251 48.9652 44.1822L55.0404 50.7423C45.4748 59.6009 38.2049 70.651 33.8562 82.9418L25.4272 79.9595Z" fill="white"/>
<path opacity="0.7" d="M192.122 75.0868C197.743 88.4377 200.036 102.954 198.804 117.388L189.896 116.627C191.005 103.637 188.941 90.5722 183.881 78.5564L192.122 75.0868Z" fill="white"/>
<path opacity="0.7" d="M46.4945 46.56C50.1002 42.9543 54.0077 39.6636 58.1744 36.7241L63.3287 44.03C59.5787 46.6756 56.0619 49.6371 52.8168 52.8823L46.4945 46.56Z" fill="white"/>
<path opacity="0.7" d="M66.4425 187.785C50.2718 178.821 37.276 165.067 29.2431 148.414C21.2102 131.761 18.535 113.028 21.5854 94.7924L30.4079 96.2682C27.6626 112.68 30.0703 129.54 37.2999 144.528C44.5295 159.515 56.2257 171.894 70.7794 179.962L66.4425 187.785Z" fill="white"/>
<g clip-path="url(#clip0_1034_20429)">
<path d="M98.625 108.51C97.3127 108.51 96.0542 109.032 95.1263 109.96C94.1984 110.888 93.6771 112.146 93.6771 113.458C93.6771 114.771 94.1984 116.029 95.1263 116.957C96.0542 117.885 97.3127 118.406 98.625 118.406C99.2748 118.406 99.9182 118.278 100.518 118.03C101.119 117.781 101.664 117.416 102.124 116.957C102.583 116.498 102.948 115.952 103.196 115.352C103.445 114.752 103.573 114.108 103.573 113.458C103.573 112.809 103.445 112.165 103.196 111.565C102.948 110.965 102.583 110.419 102.124 109.96C101.664 109.5 101.119 109.136 100.518 108.887C99.9182 108.638 99.2748 108.51 98.625 108.51ZM122.375 108.51C121.063 108.51 119.804 109.032 118.876 109.96C117.948 110.888 117.427 112.146 117.427 113.458C117.427 114.771 117.948 116.029 118.876 116.957C119.804 117.885 121.063 118.406 122.375 118.406C123.687 118.406 124.946 117.885 125.874 116.957C126.802 116.029 127.323 114.771 127.323 113.458C127.323 112.146 126.802 110.888 125.874 109.96C124.946 109.032 123.687 108.51 122.375 108.51ZM110.5 69.9167C105.302 69.9167 100.155 70.9405 95.3521 72.9298C90.5496 74.919 86.186 77.8347 82.5104 81.5104C75.087 88.9337 70.9167 99.0018 70.9167 109.5C70.9167 119.998 75.087 130.066 82.5104 137.49C86.186 141.165 90.5496 144.081 95.3521 146.07C100.155 148.059 105.302 149.083 110.5 149.083C120.998 149.083 131.066 144.913 138.49 137.49C145.913 130.066 150.083 119.998 150.083 109.5C150.083 104.302 149.059 99.1546 147.07 94.3521C145.081 89.5496 142.165 85.186 138.49 81.5104C134.814 77.8347 130.45 74.919 125.648 72.9298C120.845 70.9405 115.698 69.9167 110.5 69.9167ZM110.5 141.167C102.101 141.167 94.0469 137.83 88.1083 131.892C82.1696 125.953 78.8333 117.899 78.8333 109.5C78.7146 108.352 78.7146 107.244 78.8333 106.096C88.2542 101.979 95.7354 94.3396 99.6542 84.8396C107.056 95.3292 119.09 101.583 131.954 101.583C134.963 101.583 137.931 101.227 140.86 100.554C145.808 117.417 136.229 134.952 119.446 139.86C116.438 140.731 113.508 141.167 110.5 141.167ZM63 69.9167C63 67.817 63.8341 65.8034 65.3187 64.3187C66.8034 62.8341 68.817 62 70.9167 62H86.75V69.9167H70.9167V85.75H63V69.9167ZM158 149.083C158 151.183 157.166 153.197 155.681 154.681C154.197 156.166 152.183 157 150.083 157H134.25V149.083H150.083V133.25H158V149.083ZM70.9167 157C68.817 157 66.8034 156.166 65.3187 154.681C63.8341 153.197 63 151.183 63 149.083V133.25H70.9167V149.083H86.75V157H70.9167ZM150.083 62C152.183 62 154.197 62.8341 155.681 64.3187C157.166 65.8034 158 67.817 158 69.9167V85.75H150.083V69.9167H134.25V62H150.083Z" fill="#5698FF"/>
</g>
<defs>
<linearGradient id="paint0_linear_1034_20429" x1="179.119" y1="-17.4631" x2="-18.9864" y2="35.619" gradientUnits="userSpaceOnUse">
<stop stop-color="#E7F6FF"/>
<stop offset="1" stop-color="#5497FF"/>
</linearGradient>
<linearGradient id="paint1_linear_1034_20429" x1="-55.0822" y1="92.7905" x2="184.868" y2="300.48" gradientUnits="userSpaceOnUse">
<stop stop-color="#DEF1FF"/>
<stop offset="1" stop-color="#5396FF"/>
</linearGradient>
<clipPath id="clip0_1034_20429">
<rect width="95" height="95" fill="white" transform="translate(63 62)"/>
</clipPath>
</defs>
</svg>
