<svg width="220" height="219" viewBox="0 0 220 219" fill="none" xmlns="http://www.w3.org/2000/svg">
<mask id="path-1-inside-1_1034_20447" fill="white">
<path d="M188.303 40.1877C177.558 28.0285 164.135 18.5318 149.093 12.4468C134.05 6.3617 117.8 3.85464 101.623 5.12329C85.4456 6.39194 69.7846 11.4016 55.8745 19.7572C41.9645 28.1128 30.1859 39.5859 21.4677 53.2715L23.35 54.4706C31.8825 41.0766 43.4101 29.848 57.0238 21.6704C70.6374 13.4928 85.9648 8.5899 101.797 7.34828C117.629 6.10666 133.534 8.56031 148.256 14.5157C162.978 20.4711 176.115 29.7654 186.631 41.6656L188.303 40.1877Z"/>
</mask>
<path d="M188.303 40.1877C177.558 28.0285 164.135 18.5318 149.093 12.4468C134.05 6.3617 117.8 3.85464 101.623 5.12329C85.4456 6.39194 69.7846 11.4016 55.8745 19.7572C41.9645 28.1128 30.1859 39.5859 21.4677 53.2715L23.35 54.4706C31.8825 41.0766 43.4101 29.848 57.0238 21.6704C70.6374 13.4928 85.9648 8.5899 101.797 7.34828C117.629 6.10666 133.534 8.56031 148.256 14.5157C162.978 20.4711 176.115 29.7654 186.631 41.6656L188.303 40.1877Z" stroke="url(#paint0_linear_1034_20447)" stroke-width="6" mask="url(#path-1-inside-1_1034_20447)"/>
<ellipse cx="187.381" cy="40.3715" rx="3.2588" ry="3.2588" transform="rotate(30 187.381 40.3715)" fill="#E1F2FF"/>
<ellipse cx="22.1703" cy="54.6494" rx="3.2588" ry="3.2588" transform="rotate(30 22.1703 54.6494)" fill="#71AAFF"/>
<mask id="path-4-inside-2_1034_20447" fill="white">
<path d="M10.4975 76.2557C5.824 90.1963 4.13776 104.965 5.54844 119.6C6.95913 134.235 11.4351 148.41 18.6852 161.201C25.9354 173.992 35.7972 185.114 47.6291 193.843C59.4611 202.571 72.998 208.711 87.3594 211.863C101.721 215.014 116.585 215.107 130.984 212.135C145.384 209.163 158.997 203.193 170.937 194.613C182.877 186.034 192.877 175.036 200.287 162.336C207.696 149.637 212.349 135.519 213.943 120.903L211.724 120.661C210.164 134.966 205.611 148.783 198.359 161.212C191.107 173.641 181.32 184.404 169.635 192.801C157.949 201.198 144.626 207.041 130.533 209.95C116.441 212.858 101.893 212.767 87.8378 209.683C73.7824 206.598 60.5339 200.589 48.954 192.047C37.3742 183.504 27.7225 172.619 20.6269 160.1C13.5312 147.582 9.15061 133.709 7.76998 119.386C6.38936 105.062 8.03966 90.6087 12.6135 76.9651L10.4975 76.2557Z"/>
</mask>
<path d="M10.4975 76.2557C5.824 90.1963 4.13776 104.965 5.54844 119.6C6.95913 134.235 11.4351 148.41 18.6852 161.201C25.9354 173.992 35.7972 185.114 47.6291 193.843C59.4611 202.571 72.998 208.711 87.3594 211.863C101.721 215.014 116.585 215.107 130.984 212.135C145.384 209.163 158.997 203.193 170.937 194.613C182.877 186.034 192.877 175.036 200.287 162.336C207.696 149.637 212.349 135.519 213.943 120.903L211.724 120.661C210.164 134.966 205.611 148.783 198.359 161.212C191.107 173.641 181.32 184.404 169.635 192.801C157.949 201.198 144.626 207.041 130.533 209.95C116.441 212.858 101.893 212.767 87.8378 209.683C73.7824 206.598 60.5339 200.589 48.954 192.047C37.3742 183.504 27.7225 172.619 20.6269 160.1C13.5312 147.582 9.15061 133.709 7.76998 119.386C6.38936 105.062 8.03966 90.6087 12.6135 76.9651L10.4975 76.2557Z" stroke="url(#paint1_linear_1034_20447)" stroke-width="6" mask="url(#path-4-inside-2_1034_20447)"/>
<ellipse cx="11.1182" cy="76.9619" rx="3.2588" ry="3.2588" transform="rotate(-90 11.1182 76.9619)" fill="#CBE5FF"/>
<ellipse cx="212.427" cy="122.651" rx="3.2588" ry="3.2588" transform="rotate(-90 212.427 122.651)" fill="#7CB1FF"/>
<path d="M109.717 20.3721C159.098 20.3721 199.128 60.4027 199.128 109.783C199.128 159.163 159.098 199.194 109.717 199.194C60.3372 199.194 20.3066 159.163 20.3066 109.783C20.3066 60.4027 60.3372 20.3721 109.717 20.3721ZM109.717 190.253C154.16 190.253 190.187 154.225 190.187 109.783C190.187 65.3408 154.16 29.3132 109.717 29.3132C65.2753 29.3132 29.2477 65.3408 29.2477 109.783C29.2477 154.225 65.2753 190.253 109.717 190.253Z" fill="#5698FF"/>
<path opacity="0.7" d="M25.4272 79.9595C30.2591 66.303 38.3368 54.0251 48.9652 44.1822L55.0404 50.7423C45.4748 59.6009 38.2049 70.651 33.8562 82.9418L25.4272 79.9595Z" fill="white"/>
<path opacity="0.7" d="M192.122 75.0868C197.743 88.4377 200.036 102.954 198.804 117.388L189.896 116.627C191.005 103.637 188.941 90.5722 183.881 78.5564L192.122 75.0868Z" fill="white"/>
<path opacity="0.7" d="M46.4945 46.56C50.1002 42.9543 54.0077 39.6636 58.1744 36.7241L63.3287 44.03C59.5787 46.6756 56.0619 49.6371 52.8168 52.8823L46.4945 46.56Z" fill="white"/>
<path opacity="0.7" d="M66.4425 187.785C50.2718 178.821 37.276 165.067 29.2431 148.414C21.2102 131.761 18.535 113.028 21.5854 94.7924L30.4079 96.2682C27.6626 112.68 30.0703 129.54 37.2999 144.528C44.5295 159.515 56.2257 171.894 70.7794 179.962L66.4425 187.785Z" fill="white"/>
<path d="M80.3116 127.802C75.5874 119.62 74.3072 109.896 76.7527 100.77C77.9635 96.2506 80.0526 92.0144 82.9006 88.3029C85.7485 84.5913 89.2997 81.477 93.3513 79.1378C97.4028 76.7987 101.875 75.2804 106.514 74.6698C111.152 74.0591 115.865 74.368 120.384 75.5789C124.903 76.7897 129.139 78.8788 132.851 81.7268C136.562 84.5748 139.677 88.1259 142.016 92.1775C144.355 96.2291 145.873 100.702 146.484 105.34C147.095 109.978 146.786 114.691 145.575 119.21C143.129 128.337 137.159 136.118 128.976 140.842C120.794 145.566 111.07 146.847 101.943 144.401" stroke="#5698FF" stroke-width="8" stroke-linecap="round" stroke-linejoin="round"/>
<path d="M69 126.5L82.8297 130.6L86.3237 117.56L69 126.5Z" stroke="#5698FF" stroke-width="8" stroke-linecap="round" stroke-linejoin="round"/>
<path d="M110.5 90.7085V110.5L122.375 122.375" stroke="#5698FF" stroke-width="8" stroke-linecap="round" stroke-linejoin="round"/>
<defs>
<linearGradient id="paint0_linear_1034_20447" x1="179.119" y1="-17.4631" x2="-18.9864" y2="35.619" gradientUnits="userSpaceOnUse">
<stop stop-color="#E7F6FF"/>
<stop offset="1" stop-color="#5497FF"/>
</linearGradient>
<linearGradient id="paint1_linear_1034_20447" x1="-55.0822" y1="92.7905" x2="184.868" y2="300.48" gradientUnits="userSpaceOnUse">
<stop stop-color="#DEF1FF"/>
<stop offset="1" stop-color="#5396FF"/>
</linearGradient>
</defs>
</svg>
